G04 EAGLE Gerber RS-274X export*
G75*
%MOMM*%
%FSLAX34Y34*%
%LPD*%
%INTop Copper*%
%IPPOS*%
%AMOC8*
5,1,8,0,0,1.08239X$1,22.5*%
G01*
G04 Define Apertures*
%ADD10R,1.560000X1.560000*%
%ADD11C,1.560000*%
%ADD12C,4.186000*%
%ADD13C,1.800000*%
%ADD14C,2.700000*%
%ADD15C,1.581000*%
%ADD16C,1.260000*%
%ADD17C,0.152400*%
D10*
X567100Y222000D03*
D11*
X567100Y249400D03*
X567100Y276800D03*
X567100Y304200D03*
X567100Y331600D03*
X595500Y235700D03*
X595500Y263100D03*
X595500Y290500D03*
X595500Y317900D03*
D12*
X581300Y401800D03*
X581300Y151900D03*
D13*
X39300Y169900D03*
X39300Y195300D03*
X39600Y299900D03*
X39600Y376100D03*
X39600Y350700D03*
X39600Y325300D03*
D14*
X264500Y449500D03*
X217500Y449500D03*
X170500Y449500D03*
X264500Y103900D03*
X217500Y103900D03*
X170500Y103900D03*
X264500Y282250D03*
X217500Y282250D03*
X170500Y282250D03*
D15*
X445300Y103000D03*
X470700Y103000D03*
D16*
X331762Y449000D03*
X404162Y449000D03*
X331762Y283250D03*
X404162Y283250D03*
X331762Y103900D03*
X404162Y103900D03*
X404162Y355800D03*
X331762Y355800D03*
D15*
X445300Y282527D03*
X470700Y282527D03*
X445300Y449000D03*
X470700Y449000D03*
D17*
X445676Y448912D02*
X405420Y448912D01*
X404162Y449000D01*
X445300Y449000D02*
X445676Y448912D01*
X568452Y332232D02*
X577596Y323088D01*
X568452Y278892D02*
X567100Y276800D01*
X567100Y331600D02*
X568452Y332232D01*
X460916Y438244D02*
X470060Y447388D01*
X470700Y449000D01*
X462440Y438244D02*
X566928Y333756D01*
X462440Y438244D02*
X460916Y438244D01*
X566928Y333756D02*
X567100Y331600D01*
X39300Y195300D02*
X33528Y196596D01*
X331340Y355092D02*
X331762Y355800D01*
X397058Y374386D02*
X460916Y438244D01*
X397058Y374386D02*
X350348Y374386D01*
X331762Y355800D01*
X568452Y288488D02*
X568452Y278892D01*
X577596Y297632D02*
X577596Y323088D01*
X577596Y297632D02*
X568452Y288488D01*
X331340Y355092D02*
X266167Y355092D01*
X107671Y196596D01*
X33528Y196596D01*
X263652Y448912D02*
X330744Y448912D01*
X331762Y449000D01*
X264500Y449500D02*
X263652Y448912D01*
X114968Y300228D02*
X38100Y300228D01*
X114968Y300228D02*
X262128Y447388D01*
X39600Y299900D02*
X38100Y300228D01*
X262128Y447388D02*
X264500Y449500D01*
X488348Y251460D02*
X566928Y251460D01*
X488348Y251460D02*
X473481Y266327D01*
X566928Y251460D02*
X567100Y249400D01*
X473481Y266327D02*
X470700Y282527D01*
X444603Y100584D02*
X413932Y100584D01*
X404162Y103900D01*
X444603Y100584D02*
X445300Y103000D01*
X440801Y269748D02*
X440768Y269748D01*
X404162Y283250D01*
X440801Y269748D02*
X445300Y282527D01*
X335280Y277104D02*
X335280Y252984D01*
X335280Y110664D01*
X331762Y103900D01*
X335280Y277104D02*
X331762Y283250D01*
X118872Y170688D02*
X33528Y170688D01*
X118872Y170688D02*
X216195Y268011D01*
X39300Y169900D02*
X33528Y170688D01*
X216195Y268011D02*
X217500Y282250D01*
X233172Y252984D02*
X335280Y252984D01*
X233172Y252984D02*
X226674Y259482D01*
X217500Y282250D01*
X404492Y355092D02*
X508160Y355092D01*
X557852Y305400D02*
X567100Y304200D01*
X557852Y305400D02*
X508160Y355092D01*
X404492Y355092D02*
X404162Y355800D01*
X264500Y282250D02*
X265276Y269748D01*
X305118Y269748D01*
X391170Y355800D01*
X404162Y355800D01*
M02*
