G04 EAGLE Gerber RS-274X export*
G75*
%MOMM*%
%FSLAX34Y34*%
%LPD*%
%INSilkscreen Top*%
%IPPOS*%
%AMOC8*
5,1,8,0,0,1.08239X$1,22.5*%
G01*
G04 Define Apertures*
%ADD10C,0.120000*%
%ADD11C,0.500000*%
%ADD12C,0.152400*%
%ADD13C,0.100000*%
%ADD14C,0.200000*%
%ADD15C,0.127000*%
G36*
X537581Y283719D02*
X537215Y283725D01*
X536859Y283744D01*
X536514Y283776D01*
X536179Y283820D01*
X535854Y283877D01*
X535538Y283947D01*
X535233Y284029D01*
X534939Y284125D01*
X534654Y284232D01*
X534379Y284353D01*
X534115Y284486D01*
X533860Y284632D01*
X533382Y284961D01*
X532944Y285342D01*
X532552Y285768D01*
X532376Y285995D01*
X532212Y286233D01*
X532062Y286481D01*
X531925Y286738D01*
X531801Y287006D01*
X531690Y287283D01*
X531592Y287570D01*
X531507Y287868D01*
X531435Y288175D01*
X531377Y288492D01*
X531331Y288819D01*
X531298Y289156D01*
X531279Y289503D01*
X531272Y289860D01*
X531284Y290324D01*
X531319Y290772D01*
X531378Y291205D01*
X531460Y291622D01*
X531565Y292023D01*
X531694Y292409D01*
X531847Y292779D01*
X532022Y293133D01*
X532221Y293469D01*
X532440Y293785D01*
X532681Y294081D01*
X532943Y294356D01*
X533226Y294611D01*
X533530Y294845D01*
X533856Y295059D01*
X534203Y295252D01*
X534568Y295424D01*
X534950Y295572D01*
X535348Y295698D01*
X535762Y295801D01*
X536193Y295882D01*
X536639Y295939D01*
X537102Y295973D01*
X537581Y295985D01*
X538058Y295973D01*
X538520Y295938D01*
X538967Y295880D01*
X539399Y295799D01*
X539816Y295695D01*
X540218Y295567D01*
X540604Y295417D01*
X540976Y295243D01*
X541330Y295048D01*
X541662Y294832D01*
X541973Y294596D01*
X542264Y294341D01*
X542533Y294065D01*
X542781Y293768D01*
X543008Y293452D01*
X543213Y293115D01*
X543396Y292761D01*
X543555Y292391D01*
X543689Y292005D01*
X543799Y291604D01*
X543884Y291187D01*
X543945Y290755D01*
X543982Y290307D01*
X543994Y289843D01*
X543982Y289375D01*
X543946Y288924D01*
X543886Y288488D01*
X543801Y288069D01*
X543693Y287667D01*
X543560Y287281D01*
X543403Y286911D01*
X543222Y286557D01*
X543018Y286222D01*
X542793Y285907D01*
X542546Y285613D01*
X542278Y285339D01*
X541988Y285085D01*
X541677Y284852D01*
X541344Y284639D01*
X540989Y284447D01*
X540616Y284276D01*
X540228Y284128D01*
X539825Y284003D01*
X539407Y283901D01*
X538973Y283821D01*
X538524Y283764D01*
X538060Y283730D01*
X537581Y283719D01*
G37*
%LPC*%
G36*
X537581Y285421D02*
X538147Y285439D01*
X538683Y285494D01*
X539189Y285586D01*
X539665Y285714D01*
X540112Y285878D01*
X540528Y286080D01*
X540914Y286318D01*
X541270Y286592D01*
X541590Y286899D01*
X541867Y287235D01*
X542101Y287598D01*
X542293Y287990D01*
X542442Y288411D01*
X542549Y288860D01*
X542613Y289337D01*
X542634Y289843D01*
X542614Y290363D01*
X542552Y290851D01*
X542449Y291308D01*
X542304Y291735D01*
X542119Y292130D01*
X541892Y292494D01*
X541623Y292827D01*
X541314Y293129D01*
X540967Y293397D01*
X540585Y293630D01*
X540170Y293826D01*
X539720Y293987D01*
X539237Y294113D01*
X538719Y294202D01*
X538167Y294256D01*
X537581Y294274D01*
X537019Y294256D01*
X536489Y294202D01*
X535989Y294111D01*
X535521Y293985D01*
X535084Y293823D01*
X534677Y293625D01*
X534302Y293390D01*
X533957Y293120D01*
X533649Y292817D01*
X533381Y292484D01*
X533155Y292121D01*
X532970Y291728D01*
X532826Y291306D01*
X532723Y290854D01*
X532662Y290372D01*
X532641Y289860D01*
X532661Y289345D01*
X532722Y288859D01*
X532824Y288404D01*
X532966Y287978D01*
X533148Y287583D01*
X533371Y287218D01*
X533635Y286884D01*
X533939Y286579D01*
X534280Y286308D01*
X534654Y286072D01*
X535060Y285873D01*
X535499Y285710D01*
X535970Y285584D01*
X536475Y285493D01*
X537011Y285439D01*
X537581Y285421D01*
G37*
%LPD*%
G36*
X543819Y244373D02*
X531456Y244373D01*
X531456Y249576D01*
X531472Y250081D01*
X531517Y250557D01*
X531593Y251003D01*
X531700Y251420D01*
X531837Y251808D01*
X532004Y252167D01*
X532202Y252496D01*
X532430Y252796D01*
X532686Y253063D01*
X532967Y253295D01*
X533273Y253491D01*
X533604Y253651D01*
X533960Y253776D01*
X534340Y253865D01*
X534746Y253919D01*
X535177Y253936D01*
X535604Y253918D01*
X536009Y253865D01*
X536391Y253775D01*
X536751Y253650D01*
X537089Y253489D01*
X537404Y253292D01*
X537697Y253060D01*
X537967Y252791D01*
X538209Y252492D01*
X538420Y252168D01*
X538598Y251817D01*
X538743Y251441D01*
X538856Y251040D01*
X538937Y250612D01*
X538986Y250160D01*
X539002Y249681D01*
X539002Y246049D01*
X543819Y246049D01*
X543819Y244373D01*
G37*
%LPC*%
G36*
X537677Y246049D02*
X537677Y249444D01*
X537667Y249784D01*
X537638Y250102D01*
X537590Y250398D01*
X537522Y250673D01*
X537435Y250925D01*
X537328Y251155D01*
X537202Y251363D01*
X537056Y251550D01*
X536891Y251714D01*
X536707Y251857D01*
X536504Y251978D01*
X536280Y252076D01*
X536038Y252153D01*
X535776Y252208D01*
X535495Y252241D01*
X535194Y252252D01*
X534904Y252241D01*
X534633Y252207D01*
X534380Y252151D01*
X534146Y252072D01*
X533931Y251971D01*
X533735Y251847D01*
X533557Y251701D01*
X533398Y251532D01*
X533257Y251341D01*
X533136Y251128D01*
X533033Y250892D01*
X532949Y250633D01*
X532883Y250352D01*
X532836Y250048D01*
X532808Y249722D01*
X532799Y249374D01*
X532799Y246049D01*
X537677Y246049D01*
G37*
%LPD*%
G36*
X535431Y233772D02*
X534959Y233789D01*
X534513Y233840D01*
X534093Y233925D01*
X533699Y234044D01*
X533331Y234197D01*
X532989Y234384D01*
X532673Y234605D01*
X532382Y234860D01*
X532122Y235146D01*
X531897Y235458D01*
X531706Y235796D01*
X531550Y236161D01*
X531428Y236553D01*
X531342Y236971D01*
X531290Y237416D01*
X531272Y237887D01*
X531278Y238141D01*
X531296Y238387D01*
X531368Y238856D01*
X531487Y239293D01*
X531654Y239699D01*
X531869Y240074D01*
X532131Y240418D01*
X532441Y240730D01*
X532799Y241011D01*
X533205Y241260D01*
X533658Y241475D01*
X534160Y241658D01*
X534709Y241807D01*
X535307Y241923D01*
X535953Y242006D01*
X536646Y242056D01*
X537388Y242072D01*
X538161Y242054D01*
X538888Y242000D01*
X539569Y241909D01*
X540204Y241782D01*
X540793Y241618D01*
X541336Y241419D01*
X541833Y241182D01*
X542283Y240910D01*
X542684Y240604D01*
X543032Y240267D01*
X543326Y239899D01*
X543567Y239501D01*
X543754Y239071D01*
X543827Y238845D01*
X543887Y238611D01*
X543934Y238369D01*
X543967Y238120D01*
X543988Y237863D01*
X543994Y237598D01*
X543985Y237245D01*
X543956Y236910D01*
X543908Y236593D01*
X543842Y236294D01*
X543756Y236013D01*
X543651Y235750D01*
X543527Y235504D01*
X543384Y235277D01*
X543220Y235067D01*
X543033Y234872D01*
X542822Y234692D01*
X542587Y234528D01*
X542329Y234380D01*
X542048Y234247D01*
X541743Y234129D01*
X541415Y234027D01*
X541178Y235536D01*
X541540Y235672D01*
X541853Y235844D01*
X542119Y236052D01*
X542336Y236295D01*
X542505Y236574D01*
X542626Y236888D01*
X542698Y237238D01*
X542716Y237427D01*
X542722Y237624D01*
X542702Y237955D01*
X542643Y238266D01*
X542544Y238558D01*
X542406Y238831D01*
X542229Y239084D01*
X542011Y239319D01*
X541755Y239534D01*
X541459Y239730D01*
X541126Y239905D01*
X540759Y240058D01*
X540359Y240189D01*
X539925Y240298D01*
X539458Y240384D01*
X538956Y240449D01*
X538421Y240491D01*
X537853Y240511D01*
X538045Y240415D01*
X538228Y240304D01*
X538401Y240177D01*
X538564Y240035D01*
X538718Y239877D01*
X538862Y239703D01*
X538996Y239514D01*
X539120Y239309D01*
X539232Y239093D01*
X539330Y238873D01*
X539412Y238647D01*
X539479Y238416D01*
X539531Y238180D01*
X539569Y237938D01*
X539591Y237692D01*
X539599Y237440D01*
X539581Y237034D01*
X539527Y236648D01*
X539438Y236283D01*
X539313Y235940D01*
X539153Y235617D01*
X538957Y235314D01*
X538725Y235033D01*
X538458Y234773D01*
X538161Y234538D01*
X537841Y234335D01*
X537498Y234163D01*
X537131Y234023D01*
X536741Y233913D01*
X536328Y233835D01*
X535891Y233788D01*
X535431Y233772D01*
G37*
%LPC*%
G36*
X535431Y235378D02*
X535760Y235388D01*
X536071Y235419D01*
X536365Y235471D01*
X536641Y235543D01*
X536899Y235635D01*
X537139Y235748D01*
X537362Y235882D01*
X537567Y236036D01*
X537751Y236208D01*
X537911Y236394D01*
X538046Y236595D01*
X538156Y236810D01*
X538242Y237040D01*
X538304Y237285D01*
X538340Y237544D01*
X538353Y237817D01*
X538333Y238153D01*
X538275Y238477D01*
X538177Y238789D01*
X538041Y239089D01*
X537869Y239368D01*
X537665Y239615D01*
X537428Y239831D01*
X537159Y240015D01*
X536864Y240163D01*
X536550Y240268D01*
X536215Y240332D01*
X535861Y240353D01*
X535497Y240342D01*
X535152Y240310D01*
X534824Y240257D01*
X534515Y240182D01*
X534224Y240085D01*
X533952Y239968D01*
X533697Y239829D01*
X533461Y239668D01*
X533248Y239490D01*
X533064Y239297D01*
X532908Y239090D01*
X532780Y238868D01*
X532681Y238631D01*
X532610Y238380D01*
X532567Y238115D01*
X532553Y237835D01*
X532565Y237557D01*
X532602Y237295D01*
X532662Y237047D01*
X532747Y236815D01*
X532857Y236598D01*
X532990Y236395D01*
X533148Y236208D01*
X533330Y236036D01*
X533532Y235882D01*
X533752Y235748D01*
X533989Y235635D01*
X534243Y235543D01*
X534515Y235471D01*
X534803Y235419D01*
X535108Y235388D01*
X535431Y235378D01*
G37*
%LPD*%
G36*
X543819Y261373D02*
X531456Y261373D01*
X531456Y263321D01*
X542055Y270006D01*
X540572Y269927D01*
X539563Y269901D01*
X531456Y269901D01*
X531456Y271410D01*
X543819Y271410D01*
X543819Y269392D01*
X533290Y262777D01*
X534141Y262821D01*
X535607Y262864D01*
X543819Y262864D01*
X543819Y261373D01*
G37*
G36*
X539327Y298223D02*
X531456Y298223D01*
X531456Y299898D01*
X539186Y299898D01*
X539597Y299912D01*
X539982Y299952D01*
X540341Y300019D01*
X540676Y300113D01*
X540984Y300234D01*
X541267Y300382D01*
X541525Y300557D01*
X541757Y300758D01*
X541963Y300985D01*
X542141Y301236D01*
X542292Y301511D01*
X542415Y301809D01*
X542511Y302131D01*
X542579Y302477D01*
X542621Y302847D01*
X542634Y303241D01*
X542620Y303646D01*
X542578Y304028D01*
X542507Y304387D01*
X542407Y304723D01*
X542280Y305035D01*
X542124Y305325D01*
X541939Y305591D01*
X541726Y305834D01*
X541486Y306051D01*
X541220Y306239D01*
X540927Y306398D01*
X540609Y306528D01*
X540264Y306629D01*
X539893Y306702D01*
X539496Y306745D01*
X539072Y306760D01*
X531456Y306760D01*
X531456Y308427D01*
X539169Y308427D01*
X539537Y308417D01*
X539893Y308387D01*
X540236Y308337D01*
X540566Y308268D01*
X540883Y308178D01*
X541187Y308069D01*
X541479Y307940D01*
X541757Y307791D01*
X542021Y307623D01*
X542269Y307440D01*
X542501Y307239D01*
X542717Y307023D01*
X542916Y306790D01*
X543100Y306540D01*
X543268Y306274D01*
X543420Y305992D01*
X543554Y305695D01*
X543671Y305385D01*
X543770Y305061D01*
X543851Y304725D01*
X543913Y304376D01*
X543958Y304014D01*
X543985Y303638D01*
X543994Y303250D01*
X543986Y302877D01*
X543960Y302515D01*
X543916Y302166D01*
X543856Y301829D01*
X543778Y301504D01*
X543683Y301190D01*
X543571Y300889D01*
X543442Y300600D01*
X543296Y300325D01*
X543134Y300066D01*
X542957Y299823D01*
X542764Y299596D01*
X542555Y299384D01*
X542331Y299189D01*
X542091Y299009D01*
X541836Y298846D01*
X541566Y298700D01*
X541284Y298573D01*
X540990Y298466D01*
X540682Y298378D01*
X540362Y298310D01*
X540030Y298262D01*
X539684Y298232D01*
X539327Y298223D01*
G37*
G36*
X532825Y310209D02*
X531456Y310209D01*
X531456Y320369D01*
X532825Y320369D01*
X532825Y316122D01*
X543819Y316122D01*
X543819Y314455D01*
X532825Y314455D01*
X532825Y310209D01*
G37*
G36*
X543819Y256557D02*
X531456Y256557D01*
X531456Y258233D01*
X543819Y258233D01*
X543819Y256557D01*
G37*
G36*
X547390Y272596D02*
X546249Y272596D01*
X546249Y283063D01*
X547390Y283063D01*
X547390Y272596D01*
G37*
G36*
X101080Y195822D02*
X83794Y195822D01*
X83794Y203956D01*
X83815Y204665D01*
X83876Y205332D01*
X83978Y205958D01*
X84121Y206543D01*
X84305Y207085D01*
X84529Y207587D01*
X84795Y208046D01*
X85101Y208464D01*
X85444Y208837D01*
X85818Y209159D01*
X86225Y209432D01*
X86664Y209656D01*
X87134Y209829D01*
X87637Y209954D01*
X87900Y209997D01*
X88172Y210028D01*
X88451Y210047D01*
X88738Y210053D01*
X89210Y210035D01*
X89663Y209983D01*
X90097Y209895D01*
X90511Y209772D01*
X90906Y209614D01*
X91282Y209421D01*
X91639Y209193D01*
X91977Y208930D01*
X92290Y208636D01*
X92573Y208316D01*
X92825Y207969D01*
X92918Y207813D01*
X93048Y207595D01*
X93239Y207194D01*
X93401Y206767D01*
X93532Y206313D01*
X93633Y205833D01*
X96803Y207922D01*
X101080Y210740D01*
X101080Y208041D01*
X93903Y203551D01*
X93903Y198165D01*
X101080Y198165D01*
X101080Y195822D01*
G37*
%LPC*%
G36*
X92051Y198165D02*
X92051Y203821D01*
X92037Y204271D01*
X91997Y204694D01*
X91929Y205092D01*
X91835Y205463D01*
X91713Y205808D01*
X91564Y206127D01*
X91389Y206419D01*
X91186Y206685D01*
X90959Y206923D01*
X90710Y207128D01*
X90440Y207302D01*
X90148Y207444D01*
X89834Y207555D01*
X89499Y207634D01*
X89142Y207682D01*
X88763Y207697D01*
X88397Y207681D01*
X88053Y207633D01*
X87732Y207553D01*
X87433Y207441D01*
X87157Y207297D01*
X86903Y207121D01*
X86672Y206913D01*
X86463Y206673D01*
X86277Y206403D01*
X86116Y206104D01*
X85980Y205778D01*
X85869Y205423D01*
X85783Y205040D01*
X85721Y204629D01*
X85684Y204190D01*
X85671Y203723D01*
X85671Y198165D01*
X92051Y198165D01*
G37*
%LPD*%
G36*
X101080Y155353D02*
X83794Y155353D01*
X83794Y162628D01*
X83816Y163335D01*
X83879Y164000D01*
X83986Y164624D01*
X84135Y165208D01*
X84326Y165750D01*
X84560Y166251D01*
X84837Y166711D01*
X85156Y167131D01*
X85514Y167504D01*
X85907Y167828D01*
X86334Y168102D01*
X86797Y168327D01*
X87294Y168501D01*
X87556Y168570D01*
X87827Y168626D01*
X88106Y168669D01*
X88394Y168700D01*
X88691Y168719D01*
X88996Y168725D01*
X89299Y168719D01*
X89594Y168700D01*
X89881Y168669D01*
X90160Y168625D01*
X90695Y168500D01*
X91198Y168325D01*
X91670Y168100D01*
X92111Y167825D01*
X92520Y167500D01*
X92897Y167124D01*
X93237Y166706D01*
X93531Y166252D01*
X93779Y165762D01*
X93983Y165237D01*
X94141Y164675D01*
X94254Y164078D01*
X94322Y163444D01*
X94345Y162775D01*
X94345Y157696D01*
X101080Y157696D01*
X101080Y155353D01*
G37*
%LPC*%
G36*
X92492Y157696D02*
X92492Y162444D01*
X92479Y162920D01*
X92438Y163364D01*
X92370Y163778D01*
X92275Y164162D01*
X92153Y164514D01*
X92004Y164836D01*
X91828Y165128D01*
X91624Y165388D01*
X91394Y165618D01*
X91136Y165818D01*
X90851Y165987D01*
X90539Y166125D01*
X90200Y166232D01*
X89834Y166309D01*
X89441Y166355D01*
X89021Y166370D01*
X88615Y166354D01*
X88236Y166307D01*
X87882Y166228D01*
X87555Y166118D01*
X87254Y165977D01*
X86980Y165804D01*
X86731Y165600D01*
X86509Y165364D01*
X86312Y165097D01*
X86142Y164798D01*
X85998Y164468D01*
X85881Y164106D01*
X85789Y163713D01*
X85724Y163289D01*
X85684Y162833D01*
X85671Y162346D01*
X85671Y157696D01*
X92492Y157696D01*
G37*
%LPD*%
G36*
X83794Y170153D02*
X83794Y172594D01*
X94774Y175698D01*
X96866Y176228D01*
X99019Y176716D01*
X97608Y177033D01*
X96075Y177397D01*
X94709Y177755D01*
X92207Y178441D01*
X83794Y180801D01*
X83794Y183046D01*
X94553Y186052D01*
X96989Y186665D01*
X99019Y187132D01*
X98590Y187242D01*
X96289Y187782D01*
X95175Y188075D01*
X92721Y188748D01*
X83794Y191229D01*
X83794Y193670D01*
X101080Y188579D01*
X101080Y185782D01*
X90100Y182789D01*
X89483Y182625D01*
X88662Y182427D01*
X86407Y181930D01*
X88787Y181390D01*
X89915Y181098D01*
X92339Y180442D01*
X101080Y178041D01*
X101080Y175244D01*
X83794Y170153D01*
G37*
G36*
X93600Y314237D02*
X76314Y314237D01*
X76314Y319954D01*
X76323Y320495D01*
X76349Y321021D01*
X76392Y321530D01*
X76452Y322025D01*
X76529Y322503D01*
X76624Y322966D01*
X76736Y323413D01*
X76865Y323844D01*
X77011Y324260D01*
X77175Y324660D01*
X77355Y325045D01*
X77553Y325414D01*
X77768Y325767D01*
X78000Y326104D01*
X78250Y326426D01*
X78516Y326732D01*
X78799Y327021D01*
X79096Y327291D01*
X79408Y327543D01*
X79734Y327776D01*
X80074Y327990D01*
X80429Y328186D01*
X80799Y328363D01*
X81183Y328522D01*
X81582Y328662D01*
X81995Y328783D01*
X82423Y328885D01*
X82865Y328969D01*
X83322Y329034D01*
X83793Y329081D01*
X84279Y329109D01*
X84779Y329118D01*
X85437Y329102D01*
X86075Y329053D01*
X86691Y328972D01*
X87287Y328858D01*
X87861Y328711D01*
X88415Y328532D01*
X88948Y328320D01*
X89460Y328075D01*
X89946Y327801D01*
X90404Y327500D01*
X90832Y327171D01*
X91231Y326815D01*
X91600Y326432D01*
X91940Y326021D01*
X92251Y325584D01*
X92533Y325119D01*
X92783Y324631D01*
X93000Y324125D01*
X93183Y323601D01*
X93333Y323058D01*
X93450Y322497D01*
X93533Y321917D01*
X93583Y321319D01*
X93600Y320702D01*
X93600Y314237D01*
G37*
%LPC*%
G36*
X91723Y316580D02*
X91723Y320432D01*
X91710Y320901D01*
X91671Y321354D01*
X91606Y321794D01*
X91514Y322219D01*
X91397Y322630D01*
X91254Y323026D01*
X91084Y323408D01*
X90889Y323775D01*
X90669Y324125D01*
X90426Y324454D01*
X90160Y324763D01*
X89871Y325050D01*
X89558Y325316D01*
X89223Y325562D01*
X88865Y325786D01*
X88484Y325990D01*
X88083Y326171D01*
X87664Y326328D01*
X87227Y326461D01*
X86773Y326570D01*
X86301Y326654D01*
X85811Y326714D01*
X85304Y326751D01*
X84779Y326763D01*
X84383Y326756D01*
X84000Y326735D01*
X83628Y326701D01*
X83268Y326653D01*
X82920Y326591D01*
X82583Y326515D01*
X82259Y326426D01*
X81947Y326323D01*
X81647Y326206D01*
X81358Y326075D01*
X81082Y325931D01*
X80817Y325772D01*
X80564Y325601D01*
X80324Y325415D01*
X80095Y325215D01*
X79878Y325002D01*
X79674Y324776D01*
X79483Y324538D01*
X79305Y324287D01*
X79140Y324024D01*
X78989Y323748D01*
X78850Y323460D01*
X78725Y323160D01*
X78613Y322848D01*
X78514Y322523D01*
X78429Y322186D01*
X78356Y321837D01*
X78297Y321475D01*
X78251Y321101D01*
X78218Y320715D01*
X78198Y320316D01*
X78191Y319905D01*
X78191Y316580D01*
X91723Y316580D01*
G37*
%LPD*%
G36*
X84877Y338533D02*
X84359Y338542D01*
X83855Y338569D01*
X83366Y338613D01*
X82892Y338674D01*
X82433Y338754D01*
X81989Y338851D01*
X81559Y338965D01*
X81145Y339098D01*
X80745Y339248D01*
X80360Y339415D01*
X79990Y339600D01*
X79635Y339803D01*
X79295Y340024D01*
X78969Y340262D01*
X78659Y340517D01*
X78363Y340791D01*
X78084Y341080D01*
X77823Y341384D01*
X77579Y341701D01*
X77354Y342034D01*
X77147Y342380D01*
X76958Y342741D01*
X76786Y343116D01*
X76633Y343505D01*
X76498Y343909D01*
X76381Y344326D01*
X76282Y344759D01*
X76201Y345205D01*
X76138Y345666D01*
X76093Y346141D01*
X76066Y346630D01*
X76057Y347133D01*
X76072Y347834D01*
X76117Y348501D01*
X76193Y349135D01*
X76299Y349734D01*
X76435Y350300D01*
X76602Y350832D01*
X76799Y351331D01*
X77026Y351795D01*
X77286Y352230D01*
X77583Y352639D01*
X77917Y353023D01*
X78286Y353381D01*
X78693Y353713D01*
X79135Y354020D01*
X79614Y354300D01*
X80130Y354555D01*
X80792Y352323D01*
X80437Y352130D01*
X80106Y351920D01*
X79800Y351692D01*
X79519Y351447D01*
X79263Y351185D01*
X79032Y350905D01*
X78826Y350607D01*
X78645Y350292D01*
X78487Y349959D01*
X78350Y349606D01*
X78234Y349233D01*
X78139Y348840D01*
X78065Y348428D01*
X78013Y347996D01*
X77981Y347544D01*
X77971Y347072D01*
X77978Y346703D01*
X77999Y346346D01*
X78034Y345999D01*
X78084Y345663D01*
X78147Y345339D01*
X78225Y345025D01*
X78317Y344723D01*
X78423Y344431D01*
X78543Y344151D01*
X78677Y343881D01*
X78826Y343623D01*
X78988Y343375D01*
X79165Y343139D01*
X79356Y342914D01*
X79561Y342699D01*
X79780Y342496D01*
X80012Y342304D01*
X80256Y342125D01*
X80511Y341958D01*
X80777Y341804D01*
X81055Y341661D01*
X81345Y341532D01*
X81646Y341414D01*
X81959Y341309D01*
X82284Y341216D01*
X82619Y341136D01*
X82967Y341068D01*
X83326Y341012D01*
X83696Y340969D01*
X84079Y340938D01*
X84472Y340920D01*
X84877Y340913D01*
X85281Y340920D01*
X85675Y340940D01*
X86057Y340972D01*
X86429Y341018D01*
X86790Y341078D01*
X87140Y341150D01*
X87479Y341235D01*
X87808Y341334D01*
X88126Y341445D01*
X88433Y341570D01*
X88729Y341708D01*
X89014Y341859D01*
X89289Y342023D01*
X89553Y342200D01*
X89806Y342391D01*
X90048Y342594D01*
X90278Y342809D01*
X90493Y343034D01*
X90693Y343270D01*
X90878Y343515D01*
X91048Y343770D01*
X91203Y344036D01*
X91344Y344311D01*
X91470Y344597D01*
X91581Y344893D01*
X91677Y345198D01*
X91759Y345514D01*
X91825Y345840D01*
X91877Y346176D01*
X91914Y346522D01*
X91936Y346878D01*
X91944Y347244D01*
X91936Y347663D01*
X91912Y348076D01*
X91871Y348482D01*
X91815Y348880D01*
X91743Y349271D01*
X91654Y349656D01*
X91549Y350033D01*
X91429Y350403D01*
X91294Y350761D01*
X91148Y351101D01*
X90990Y351424D01*
X90821Y351729D01*
X90641Y352017D01*
X90449Y352288D01*
X90245Y352541D01*
X90030Y352777D01*
X86914Y352777D01*
X86914Y347612D01*
X84951Y347612D01*
X84951Y354936D01*
X90913Y354936D01*
X91253Y354583D01*
X91573Y354210D01*
X91873Y353818D01*
X92154Y353407D01*
X92415Y352976D01*
X92656Y352526D01*
X92877Y352057D01*
X93079Y351568D01*
X93258Y351065D01*
X93414Y350550D01*
X93546Y350026D01*
X93654Y349490D01*
X93738Y348944D01*
X93797Y348388D01*
X93833Y347821D01*
X93845Y347244D01*
X93828Y346578D01*
X93778Y345935D01*
X93694Y345316D01*
X93575Y344720D01*
X93424Y344147D01*
X93238Y343598D01*
X93019Y343072D01*
X92766Y342570D01*
X92481Y342093D01*
X92167Y341646D01*
X91822Y341228D01*
X91449Y340838D01*
X91045Y340478D01*
X90612Y340146D01*
X90149Y339844D01*
X89656Y339570D01*
X89137Y339327D01*
X88596Y339117D01*
X88032Y338938D01*
X87446Y338793D01*
X86838Y338679D01*
X86207Y338598D01*
X85553Y338550D01*
X84877Y338533D01*
G37*
G36*
X93600Y332620D02*
X76314Y332620D01*
X76314Y334963D01*
X93600Y334963D01*
X93600Y332620D01*
G37*
G36*
X93600Y359151D02*
X76314Y359151D01*
X76314Y361494D01*
X93600Y361494D01*
X93600Y359151D01*
G37*
G36*
X238902Y502975D02*
X238435Y502987D01*
X237985Y503023D01*
X237550Y503083D01*
X237132Y503168D01*
X236730Y503276D01*
X236344Y503408D01*
X235975Y503565D01*
X235622Y503746D01*
X235288Y503949D01*
X234973Y504174D01*
X234679Y504420D01*
X234406Y504688D01*
X234153Y504978D01*
X233920Y505288D01*
X233708Y505621D01*
X233516Y505975D01*
X233345Y506347D01*
X233198Y506734D01*
X233073Y507137D01*
X232971Y507554D01*
X232891Y507987D01*
X232834Y508436D01*
X232800Y508899D01*
X232789Y509377D01*
X232795Y509742D01*
X232814Y510097D01*
X232846Y510442D01*
X232890Y510777D01*
X232947Y511101D01*
X233017Y511416D01*
X233099Y511720D01*
X233194Y512015D01*
X233301Y512299D01*
X233422Y512573D01*
X233555Y512837D01*
X233700Y513091D01*
X234029Y513569D01*
X234409Y514006D01*
X234834Y514397D01*
X235061Y514573D01*
X235299Y514736D01*
X235546Y514886D01*
X235803Y515023D01*
X236070Y515147D01*
X236347Y515258D01*
X236634Y515355D01*
X236931Y515440D01*
X237237Y515512D01*
X237554Y515570D01*
X237881Y515616D01*
X238217Y515649D01*
X238563Y515668D01*
X238920Y515675D01*
X239383Y515663D01*
X239830Y515628D01*
X240262Y515569D01*
X240678Y515488D01*
X241079Y515382D01*
X241464Y515253D01*
X241833Y515101D01*
X242187Y514926D01*
X242522Y514728D01*
X242838Y514509D01*
X243133Y514269D01*
X243407Y514007D01*
X243662Y513725D01*
X243895Y513421D01*
X244109Y513096D01*
X244302Y512749D01*
X244473Y512384D01*
X244622Y512003D01*
X244748Y511606D01*
X244850Y511193D01*
X244930Y510763D01*
X244988Y510317D01*
X245022Y509855D01*
X245033Y509377D01*
X245022Y508901D01*
X244987Y508440D01*
X244929Y507993D01*
X244848Y507562D01*
X244744Y507146D01*
X244617Y506745D01*
X244467Y506359D01*
X244293Y505988D01*
X244098Y505635D01*
X243883Y505303D01*
X243648Y504992D01*
X243392Y504702D01*
X243117Y504434D01*
X242821Y504186D01*
X242505Y503960D01*
X242169Y503754D01*
X241815Y503572D01*
X241446Y503413D01*
X241061Y503279D01*
X240661Y503170D01*
X240244Y503084D01*
X239813Y503024D01*
X239365Y502987D01*
X238902Y502975D01*
G37*
%LPC*%
G36*
X238902Y504332D02*
X239421Y504353D01*
X239909Y504415D01*
X240365Y504518D01*
X240791Y504662D01*
X241185Y504847D01*
X241549Y505074D01*
X241881Y505342D01*
X242182Y505651D01*
X242450Y505997D01*
X242682Y506378D01*
X242879Y506793D01*
X243040Y507241D01*
X243165Y507724D01*
X243254Y508241D01*
X243307Y508792D01*
X243325Y509377D01*
X243307Y509938D01*
X243253Y510467D01*
X243163Y510966D01*
X243037Y511433D01*
X242875Y511870D01*
X242677Y512276D01*
X242444Y512651D01*
X242174Y512995D01*
X241871Y513303D01*
X241538Y513569D01*
X241176Y513795D01*
X240784Y513980D01*
X240363Y514124D01*
X239911Y514226D01*
X239430Y514288D01*
X238920Y514308D01*
X238405Y514288D01*
X237920Y514227D01*
X237466Y514126D01*
X237041Y513984D01*
X236647Y513802D01*
X236282Y513579D01*
X235948Y513316D01*
X235644Y513012D01*
X235373Y512672D01*
X235138Y512299D01*
X234940Y511893D01*
X234777Y511455D01*
X234651Y510985D01*
X234560Y510481D01*
X234506Y509946D01*
X234488Y509377D01*
X234506Y508812D01*
X234561Y508277D01*
X234652Y507771D01*
X234780Y507296D01*
X234945Y506851D01*
X235146Y506435D01*
X235383Y506050D01*
X235657Y505694D01*
X235964Y505375D01*
X236299Y505099D01*
X236662Y504864D01*
X237053Y504673D01*
X237473Y504524D01*
X237921Y504418D01*
X238397Y504354D01*
X238902Y504332D01*
G37*
%LPD*%
G36*
X251619Y503150D02*
X249622Y503150D01*
X245987Y515491D01*
X247730Y515491D01*
X249946Y507652D01*
X250324Y506159D01*
X250673Y504621D01*
X251159Y506723D01*
X251414Y507698D01*
X251904Y509485D01*
X253589Y515491D01*
X255192Y515491D01*
X257338Y507810D01*
X257776Y506071D01*
X258109Y504621D01*
X258187Y504928D01*
X258573Y506570D01*
X259263Y509118D01*
X261034Y515491D01*
X262777Y515491D01*
X259142Y503150D01*
X257145Y503150D01*
X255008Y510989D01*
X254750Y512016D01*
X254395Y513625D01*
X254010Y511926D01*
X253333Y509390D01*
X251619Y503150D01*
G37*
G36*
X197185Y502975D02*
X196709Y502987D01*
X196250Y503023D01*
X195808Y503083D01*
X195383Y503168D01*
X194974Y503276D01*
X194582Y503408D01*
X194207Y503565D01*
X193848Y503746D01*
X193508Y503949D01*
X193189Y504173D01*
X192890Y504419D01*
X192612Y504686D01*
X192355Y504974D01*
X192118Y505284D01*
X191902Y505614D01*
X191706Y505966D01*
X191533Y506336D01*
X191383Y506723D01*
X191255Y507125D01*
X191151Y507544D01*
X191070Y507978D01*
X191013Y508428D01*
X190978Y508895D01*
X190966Y509377D01*
X190973Y509748D01*
X190992Y510107D01*
X191023Y510456D01*
X191067Y510795D01*
X191124Y511122D01*
X191193Y511440D01*
X191275Y511746D01*
X191369Y512042D01*
X191476Y512327D01*
X191596Y512602D01*
X191728Y512866D01*
X191873Y513120D01*
X192030Y513363D01*
X192200Y513595D01*
X192578Y514028D01*
X193001Y514414D01*
X193228Y514588D01*
X193465Y514749D01*
X193713Y514896D01*
X193970Y515032D01*
X194238Y515154D01*
X194516Y515263D01*
X194804Y515360D01*
X195102Y515443D01*
X195411Y515514D01*
X195729Y515572D01*
X196058Y515617D01*
X196397Y515649D01*
X196747Y515668D01*
X197106Y515675D01*
X197606Y515664D01*
X198083Y515631D01*
X198535Y515577D01*
X198963Y515502D01*
X199367Y515404D01*
X199747Y515286D01*
X200103Y515145D01*
X200434Y514983D01*
X200745Y514797D01*
X201037Y514585D01*
X201311Y514347D01*
X201566Y514083D01*
X201804Y513793D01*
X202022Y513477D01*
X202223Y513135D01*
X202405Y512767D01*
X200811Y512294D01*
X200673Y512548D01*
X200523Y512784D01*
X200361Y513002D01*
X200186Y513203D01*
X199998Y513385D01*
X199799Y513550D01*
X199586Y513697D01*
X199361Y513827D01*
X199123Y513940D01*
X198871Y514037D01*
X198605Y514120D01*
X198325Y514188D01*
X198030Y514241D01*
X197722Y514278D01*
X197399Y514301D01*
X197062Y514308D01*
X196544Y514288D01*
X196057Y514228D01*
X195601Y514127D01*
X195177Y513985D01*
X194784Y513804D01*
X194423Y513582D01*
X194094Y513319D01*
X193795Y513017D01*
X193531Y512677D01*
X193301Y512305D01*
X193107Y511899D01*
X192948Y511461D01*
X192824Y510989D01*
X192736Y510485D01*
X192683Y509948D01*
X192666Y509377D01*
X192684Y508808D01*
X192741Y508270D01*
X192834Y507762D01*
X192965Y507285D01*
X193134Y506839D01*
X193340Y506424D01*
X193584Y506039D01*
X193865Y505686D01*
X194180Y505368D01*
X194523Y505094D01*
X194895Y504861D01*
X195295Y504671D01*
X195725Y504523D01*
X196183Y504417D01*
X196669Y504354D01*
X197185Y504332D01*
X197779Y504355D01*
X198353Y504424D01*
X198907Y504539D01*
X199440Y504700D01*
X199939Y504901D01*
X200387Y505134D01*
X200786Y505400D01*
X201135Y505699D01*
X201135Y507923D01*
X197448Y507923D01*
X197448Y509325D01*
X202677Y509325D01*
X202677Y505068D01*
X202424Y504826D01*
X202158Y504597D01*
X201879Y504383D01*
X201585Y504182D01*
X201278Y503996D01*
X200956Y503824D01*
X200621Y503666D01*
X200272Y503522D01*
X199913Y503394D01*
X199546Y503283D01*
X199171Y503189D01*
X198789Y503112D01*
X198399Y503052D01*
X198002Y503009D01*
X197597Y502983D01*
X197185Y502975D01*
G37*
G36*
X175302Y503150D02*
X173629Y503150D01*
X173629Y515491D01*
X175302Y515491D01*
X175302Y510271D01*
X181976Y510271D01*
X181976Y515491D01*
X183649Y515491D01*
X183649Y503150D01*
X181976Y503150D01*
X181976Y508869D01*
X175302Y508869D01*
X175302Y503150D01*
G37*
G36*
X207177Y503150D02*
X205504Y503150D01*
X205504Y515491D01*
X207177Y515491D01*
X207177Y510271D01*
X213851Y510271D01*
X213851Y515491D01*
X215524Y515491D01*
X215524Y503150D01*
X213851Y503150D01*
X213851Y508869D01*
X207177Y508869D01*
X207177Y503150D01*
G37*
G36*
X231351Y503150D02*
X223442Y503150D01*
X223442Y515491D01*
X225115Y515491D01*
X225115Y504516D01*
X231351Y504516D01*
X231351Y503150D01*
G37*
G36*
X188424Y503150D02*
X186751Y503150D01*
X186751Y515491D01*
X188424Y515491D01*
X188424Y503150D01*
G37*
G36*
X218389Y502975D02*
X216970Y502975D01*
X220570Y516148D01*
X221954Y516148D01*
X218389Y502975D01*
G37*
G36*
X190586Y157375D02*
X190119Y157387D01*
X189668Y157423D01*
X189234Y157483D01*
X188816Y157568D01*
X188414Y157676D01*
X188028Y157808D01*
X187659Y157965D01*
X187306Y158146D01*
X186971Y158349D01*
X186657Y158574D01*
X186363Y158820D01*
X186089Y159088D01*
X185836Y159378D01*
X185604Y159688D01*
X185391Y160021D01*
X185199Y160375D01*
X185029Y160747D01*
X184881Y161134D01*
X184756Y161537D01*
X184654Y161954D01*
X184575Y162387D01*
X184518Y162836D01*
X184484Y163299D01*
X184472Y163777D01*
X184479Y164142D01*
X184498Y164497D01*
X184529Y164842D01*
X184574Y165177D01*
X184631Y165501D01*
X184700Y165816D01*
X184783Y166120D01*
X184877Y166415D01*
X184985Y166699D01*
X185105Y166973D01*
X185238Y167237D01*
X185384Y167491D01*
X185713Y167969D01*
X186093Y168406D01*
X186518Y168797D01*
X186745Y168973D01*
X186982Y169136D01*
X187229Y169286D01*
X187487Y169423D01*
X187754Y169547D01*
X188031Y169658D01*
X188317Y169755D01*
X188614Y169840D01*
X188921Y169912D01*
X189238Y169970D01*
X189564Y170016D01*
X189901Y170049D01*
X190247Y170068D01*
X190603Y170075D01*
X191066Y170063D01*
X191514Y170028D01*
X191945Y169969D01*
X192362Y169888D01*
X192762Y169782D01*
X193147Y169653D01*
X193517Y169501D01*
X193870Y169326D01*
X194206Y169128D01*
X194521Y168909D01*
X194816Y168669D01*
X195091Y168407D01*
X195345Y168125D01*
X195579Y167821D01*
X195792Y167496D01*
X195985Y167149D01*
X196157Y166784D01*
X196305Y166403D01*
X196431Y166006D01*
X196534Y165593D01*
X196614Y165163D01*
X196671Y164717D01*
X196705Y164255D01*
X196717Y163777D01*
X196705Y163301D01*
X196671Y162840D01*
X196613Y162393D01*
X196532Y161962D01*
X196428Y161546D01*
X196301Y161145D01*
X196150Y160759D01*
X195977Y160388D01*
X195782Y160035D01*
X195566Y159703D01*
X195331Y159392D01*
X195076Y159102D01*
X194800Y158834D01*
X194504Y158586D01*
X194189Y158360D01*
X193853Y158154D01*
X193499Y157972D01*
X193130Y157813D01*
X192745Y157679D01*
X192344Y157570D01*
X191928Y157484D01*
X191496Y157424D01*
X191049Y157387D01*
X190586Y157375D01*
G37*
%LPC*%
G36*
X190586Y158732D02*
X191105Y158753D01*
X191592Y158815D01*
X192049Y158918D01*
X192474Y159062D01*
X192869Y159247D01*
X193232Y159474D01*
X193565Y159742D01*
X193866Y160051D01*
X194134Y160397D01*
X194366Y160778D01*
X194562Y161193D01*
X194723Y161641D01*
X194848Y162124D01*
X194937Y162641D01*
X194991Y163192D01*
X195009Y163777D01*
X194991Y164338D01*
X194937Y164867D01*
X194847Y165366D01*
X194721Y165833D01*
X194559Y166270D01*
X194361Y166676D01*
X194127Y167051D01*
X193857Y167395D01*
X193554Y167703D01*
X193222Y167969D01*
X192860Y168195D01*
X192468Y168380D01*
X192046Y168524D01*
X191595Y168626D01*
X191114Y168688D01*
X190603Y168708D01*
X190089Y168688D01*
X189604Y168627D01*
X189149Y168526D01*
X188725Y168384D01*
X188330Y168202D01*
X187966Y167979D01*
X187632Y167716D01*
X187328Y167412D01*
X187057Y167072D01*
X186822Y166699D01*
X186623Y166293D01*
X186461Y165855D01*
X186334Y165385D01*
X186244Y164881D01*
X186190Y164346D01*
X186172Y163777D01*
X186190Y163212D01*
X186245Y162677D01*
X186336Y162171D01*
X186464Y161696D01*
X186628Y161251D01*
X186829Y160835D01*
X187067Y160450D01*
X187341Y160094D01*
X187647Y159775D01*
X187982Y159499D01*
X188345Y159264D01*
X188737Y159073D01*
X189157Y158924D01*
X189605Y158818D01*
X190081Y158754D01*
X190586Y158732D01*
G37*
%LPD*%
G36*
X222461Y157375D02*
X221994Y157387D01*
X221543Y157423D01*
X221109Y157483D01*
X220691Y157568D01*
X220289Y157676D01*
X219903Y157808D01*
X219534Y157965D01*
X219181Y158146D01*
X218846Y158349D01*
X218532Y158574D01*
X218238Y158820D01*
X217964Y159088D01*
X217711Y159378D01*
X217479Y159688D01*
X217266Y160021D01*
X217074Y160375D01*
X216904Y160747D01*
X216756Y161134D01*
X216631Y161537D01*
X216529Y161954D01*
X216450Y162387D01*
X216393Y162836D01*
X216359Y163299D01*
X216347Y163777D01*
X216354Y164142D01*
X216373Y164497D01*
X216404Y164842D01*
X216449Y165177D01*
X216506Y165501D01*
X216575Y165816D01*
X216658Y166120D01*
X216752Y166415D01*
X216860Y166699D01*
X216980Y166973D01*
X217113Y167237D01*
X217259Y167491D01*
X217588Y167969D01*
X217968Y168406D01*
X218393Y168797D01*
X218620Y168973D01*
X218857Y169136D01*
X219104Y169286D01*
X219362Y169423D01*
X219629Y169547D01*
X219906Y169658D01*
X220192Y169755D01*
X220489Y169840D01*
X220796Y169912D01*
X221113Y169970D01*
X221439Y170016D01*
X221776Y170049D01*
X222122Y170068D01*
X222478Y170075D01*
X222941Y170063D01*
X223389Y170028D01*
X223820Y169969D01*
X224237Y169888D01*
X224637Y169782D01*
X225022Y169653D01*
X225392Y169501D01*
X225745Y169326D01*
X226081Y169128D01*
X226396Y168909D01*
X226691Y168669D01*
X226966Y168407D01*
X227220Y168125D01*
X227454Y167821D01*
X227667Y167496D01*
X227860Y167149D01*
X228032Y166784D01*
X228180Y166403D01*
X228306Y166006D01*
X228409Y165593D01*
X228489Y165163D01*
X228546Y164717D01*
X228580Y164255D01*
X228592Y163777D01*
X228580Y163301D01*
X228546Y162840D01*
X228488Y162393D01*
X228407Y161962D01*
X228303Y161546D01*
X228176Y161145D01*
X228025Y160759D01*
X227852Y160388D01*
X227657Y160035D01*
X227441Y159703D01*
X227206Y159392D01*
X226951Y159102D01*
X226675Y158834D01*
X226379Y158586D01*
X226064Y158360D01*
X225728Y158154D01*
X225374Y157972D01*
X225005Y157813D01*
X224620Y157679D01*
X224219Y157570D01*
X223803Y157484D01*
X223371Y157424D01*
X222924Y157387D01*
X222461Y157375D01*
G37*
%LPC*%
G36*
X222461Y158732D02*
X222980Y158753D01*
X223467Y158815D01*
X223924Y158918D01*
X224349Y159062D01*
X224744Y159247D01*
X225107Y159474D01*
X225440Y159742D01*
X225741Y160051D01*
X226009Y160397D01*
X226241Y160778D01*
X226437Y161193D01*
X226598Y161641D01*
X226723Y162124D01*
X226812Y162641D01*
X226866Y163192D01*
X226884Y163777D01*
X226866Y164338D01*
X226812Y164867D01*
X226722Y165366D01*
X226596Y165833D01*
X226434Y166270D01*
X226236Y166676D01*
X226002Y167051D01*
X225732Y167395D01*
X225429Y167703D01*
X225097Y167969D01*
X224735Y168195D01*
X224343Y168380D01*
X223921Y168524D01*
X223470Y168626D01*
X222989Y168688D01*
X222478Y168708D01*
X221964Y168688D01*
X221479Y168627D01*
X221024Y168526D01*
X220600Y168384D01*
X220205Y168202D01*
X219841Y167979D01*
X219507Y167716D01*
X219203Y167412D01*
X218932Y167072D01*
X218697Y166699D01*
X218498Y166293D01*
X218336Y165855D01*
X218209Y165385D01*
X218119Y164881D01*
X218065Y164346D01*
X218047Y163777D01*
X218065Y163212D01*
X218120Y162677D01*
X218211Y162171D01*
X218339Y161696D01*
X218503Y161251D01*
X218704Y160835D01*
X218942Y160450D01*
X219216Y160094D01*
X219522Y159775D01*
X219857Y159499D01*
X220220Y159264D01*
X220612Y159073D01*
X221032Y158924D01*
X221480Y158818D01*
X221956Y158754D01*
X222461Y158732D01*
G37*
%LPD*%
G36*
X200521Y157550D02*
X199032Y157550D01*
X199032Y169891D01*
X200976Y169891D01*
X207650Y159310D01*
X207571Y160791D01*
X207545Y161798D01*
X207545Y169891D01*
X209052Y169891D01*
X209052Y157550D01*
X207037Y157550D01*
X200433Y168060D01*
X200477Y167211D01*
X200521Y165748D01*
X200521Y157550D01*
G37*
G36*
X232580Y157550D02*
X230907Y157550D01*
X230907Y169891D01*
X239674Y169891D01*
X239674Y168524D01*
X232580Y168524D01*
X232580Y163935D01*
X239464Y163935D01*
X239464Y162551D01*
X232580Y162551D01*
X232580Y157550D01*
G37*
G36*
X243548Y157550D02*
X241875Y157550D01*
X241875Y169891D01*
X250643Y169891D01*
X250643Y168524D01*
X243548Y168524D01*
X243548Y163935D01*
X250433Y163935D01*
X250433Y162551D01*
X243548Y162551D01*
X243548Y157550D01*
G37*
G36*
X211917Y157375D02*
X210498Y157375D01*
X214098Y170548D01*
X215481Y170548D01*
X211917Y157375D01*
G37*
G36*
X223962Y335725D02*
X223495Y335737D01*
X223044Y335773D01*
X222609Y335833D01*
X222191Y335918D01*
X221789Y336026D01*
X221404Y336158D01*
X221035Y336315D01*
X220682Y336496D01*
X220347Y336699D01*
X220033Y336924D01*
X219739Y337170D01*
X219465Y337438D01*
X219212Y337728D01*
X218979Y338038D01*
X218767Y338371D01*
X218575Y338725D01*
X218405Y339097D01*
X218257Y339484D01*
X218132Y339887D01*
X218030Y340304D01*
X217950Y340737D01*
X217894Y341186D01*
X217860Y341649D01*
X217848Y342127D01*
X217854Y342492D01*
X217873Y342847D01*
X217905Y343192D01*
X217949Y343527D01*
X218006Y343851D01*
X218076Y344166D01*
X218158Y344470D01*
X218253Y344765D01*
X218361Y345049D01*
X218481Y345323D01*
X218614Y345587D01*
X218760Y345841D01*
X219089Y346319D01*
X219468Y346756D01*
X219893Y347147D01*
X220121Y347323D01*
X220358Y347486D01*
X220605Y347636D01*
X220862Y347773D01*
X221129Y347897D01*
X221406Y348008D01*
X221693Y348105D01*
X221990Y348190D01*
X222297Y348262D01*
X222613Y348320D01*
X222940Y348366D01*
X223276Y348399D01*
X223623Y348418D01*
X223979Y348425D01*
X224442Y348413D01*
X224889Y348378D01*
X225321Y348319D01*
X225737Y348238D01*
X226138Y348132D01*
X226523Y348003D01*
X226892Y347851D01*
X227246Y347676D01*
X227582Y347478D01*
X227897Y347259D01*
X228192Y347019D01*
X228467Y346757D01*
X228721Y346475D01*
X228955Y346171D01*
X229168Y345846D01*
X229361Y345499D01*
X229533Y345134D01*
X229681Y344753D01*
X229807Y344356D01*
X229910Y343943D01*
X229990Y343513D01*
X230047Y343067D01*
X230081Y342605D01*
X230093Y342127D01*
X230081Y341651D01*
X230046Y341190D01*
X229989Y340743D01*
X229908Y340312D01*
X229803Y339896D01*
X229676Y339495D01*
X229526Y339109D01*
X229352Y338738D01*
X229157Y338385D01*
X228942Y338053D01*
X228707Y337742D01*
X228451Y337452D01*
X228176Y337184D01*
X227880Y336936D01*
X227564Y336710D01*
X227229Y336504D01*
X226875Y336322D01*
X226505Y336163D01*
X226120Y336029D01*
X225720Y335920D01*
X225304Y335834D01*
X224872Y335774D01*
X224425Y335737D01*
X223962Y335725D01*
G37*
%LPC*%
G36*
X223962Y337082D02*
X224480Y337103D01*
X224968Y337165D01*
X225425Y337268D01*
X225850Y337412D01*
X226245Y337597D01*
X226608Y337824D01*
X226940Y338092D01*
X227242Y338401D01*
X227510Y338747D01*
X227742Y339128D01*
X227938Y339543D01*
X228099Y339991D01*
X228224Y340474D01*
X228313Y340991D01*
X228367Y341542D01*
X228385Y342127D01*
X228367Y342688D01*
X228313Y343217D01*
X228223Y343716D01*
X228097Y344183D01*
X227935Y344620D01*
X227737Y345026D01*
X227503Y345401D01*
X227233Y345745D01*
X226930Y346053D01*
X226598Y346319D01*
X226235Y346545D01*
X225844Y346730D01*
X225422Y346874D01*
X224971Y346976D01*
X224490Y347038D01*
X223979Y347058D01*
X223464Y347038D01*
X222980Y346977D01*
X222525Y346876D01*
X222100Y346734D01*
X221706Y346552D01*
X221342Y346329D01*
X221008Y346066D01*
X220703Y345762D01*
X220432Y345422D01*
X220198Y345049D01*
X219999Y344643D01*
X219836Y344205D01*
X219710Y343735D01*
X219620Y343231D01*
X219565Y342696D01*
X219547Y342127D01*
X219566Y341562D01*
X219620Y341027D01*
X219712Y340521D01*
X219840Y340046D01*
X220004Y339601D01*
X220205Y339185D01*
X220443Y338800D01*
X220717Y338444D01*
X221023Y338125D01*
X221358Y337849D01*
X221721Y337614D01*
X222112Y337423D01*
X222532Y337274D01*
X222980Y337168D01*
X223457Y337104D01*
X223962Y337082D01*
G37*
%LPD*%
G36*
X210117Y335900D02*
X205501Y335900D01*
X205501Y348241D01*
X209583Y348241D01*
X209969Y348235D01*
X210344Y348216D01*
X210708Y348186D01*
X211061Y348143D01*
X211403Y348087D01*
X211733Y348020D01*
X212052Y347940D01*
X212360Y347848D01*
X212657Y347743D01*
X212943Y347627D01*
X213217Y347498D01*
X213481Y347356D01*
X213733Y347203D01*
X213974Y347037D01*
X214203Y346859D01*
X214422Y346669D01*
X214628Y346467D01*
X214821Y346255D01*
X215001Y346032D01*
X215167Y345800D01*
X215320Y345556D01*
X215460Y345303D01*
X215586Y345039D01*
X215699Y344765D01*
X215799Y344480D01*
X215886Y344185D01*
X215959Y343880D01*
X216019Y343564D01*
X216065Y343238D01*
X216099Y342901D01*
X216119Y342555D01*
X216125Y342197D01*
X216114Y341728D01*
X216079Y341273D01*
X216021Y340832D01*
X215939Y340407D01*
X215835Y339997D01*
X215707Y339602D01*
X215555Y339221D01*
X215381Y338856D01*
X215185Y338508D01*
X214970Y338182D01*
X214735Y337876D01*
X214481Y337591D01*
X214207Y337328D01*
X213914Y337085D01*
X213602Y336863D01*
X213270Y336662D01*
X212922Y336483D01*
X212561Y336329D01*
X212186Y336198D01*
X211799Y336090D01*
X211398Y336007D01*
X210984Y335948D01*
X210557Y335912D01*
X210117Y335900D01*
G37*
%LPC*%
G36*
X209924Y337240D02*
X210259Y337249D01*
X210583Y337277D01*
X210896Y337324D01*
X211200Y337389D01*
X211493Y337473D01*
X211776Y337575D01*
X212049Y337696D01*
X212311Y337836D01*
X212561Y337993D01*
X212796Y338166D01*
X213016Y338356D01*
X213221Y338563D01*
X213411Y338785D01*
X213586Y339025D01*
X213747Y339280D01*
X213892Y339552D01*
X214021Y339839D01*
X214133Y340138D01*
X214228Y340450D01*
X214306Y340774D01*
X214366Y341111D01*
X214409Y341461D01*
X214435Y341823D01*
X214444Y342197D01*
X214424Y342754D01*
X214365Y343277D01*
X214267Y343765D01*
X214130Y344220D01*
X213953Y344640D01*
X213737Y345026D01*
X213481Y345378D01*
X213187Y345696D01*
X212855Y345979D01*
X212488Y346223D01*
X212086Y346430D01*
X211649Y346600D01*
X211176Y346731D01*
X210669Y346825D01*
X210126Y346882D01*
X209548Y346901D01*
X207174Y346901D01*
X207174Y337240D01*
X209924Y337240D01*
G37*
%LPD*%
G36*
X190237Y335900D02*
X188564Y335900D01*
X188564Y348241D01*
X193758Y348241D01*
X194262Y348226D01*
X194737Y348180D01*
X195183Y348104D01*
X195599Y347998D01*
X195986Y347861D01*
X196344Y347694D01*
X196673Y347496D01*
X196972Y347269D01*
X197239Y347013D01*
X197470Y346733D01*
X197666Y346427D01*
X197826Y346097D01*
X197950Y345742D01*
X198039Y345362D01*
X198093Y344957D01*
X198111Y344527D01*
X198093Y344100D01*
X198039Y343696D01*
X197950Y343314D01*
X197825Y342955D01*
X197664Y342618D01*
X197468Y342304D01*
X197235Y342012D01*
X196968Y341742D01*
X196669Y341500D01*
X196345Y341290D01*
X195995Y341112D01*
X195620Y340967D01*
X195219Y340854D01*
X194792Y340773D01*
X194340Y340725D01*
X193863Y340708D01*
X190237Y340708D01*
X190237Y335900D01*
G37*
%LPC*%
G36*
X193626Y342031D02*
X193966Y342041D01*
X194283Y342070D01*
X194579Y342118D01*
X194852Y342186D01*
X195104Y342273D01*
X195334Y342380D01*
X195542Y342505D01*
X195728Y342651D01*
X195892Y342815D01*
X196035Y342999D01*
X196155Y343203D01*
X196254Y343425D01*
X196330Y343667D01*
X196385Y343929D01*
X196418Y344209D01*
X196429Y344510D01*
X196418Y344799D01*
X196384Y345070D01*
X196328Y345322D01*
X196249Y345556D01*
X196148Y345771D01*
X196025Y345967D01*
X195879Y346144D01*
X195711Y346303D01*
X195520Y346443D01*
X195307Y346564D01*
X195071Y346667D01*
X194813Y346751D01*
X194532Y346817D01*
X194229Y346863D01*
X193904Y346891D01*
X193556Y346901D01*
X190237Y346901D01*
X190237Y342031D01*
X193626Y342031D01*
G37*
%LPD*%
G36*
X236647Y335900D02*
X234650Y335900D01*
X231015Y348241D01*
X232758Y348241D01*
X234974Y340402D01*
X235353Y338909D01*
X235701Y337371D01*
X236187Y339473D01*
X236442Y340448D01*
X236932Y342235D01*
X238617Y348241D01*
X240220Y348241D01*
X242366Y340560D01*
X242804Y338821D01*
X243137Y337371D01*
X243216Y337678D01*
X243601Y339320D01*
X244291Y341868D01*
X246062Y348241D01*
X247805Y348241D01*
X244170Y335900D01*
X242173Y335900D01*
X240036Y343739D01*
X239778Y344766D01*
X239423Y346375D01*
X239038Y344676D01*
X238361Y342140D01*
X236647Y335900D01*
G37*
G36*
X250834Y335900D02*
X249345Y335900D01*
X249345Y348241D01*
X251289Y348241D01*
X257963Y337660D01*
X257885Y339141D01*
X257858Y340148D01*
X257858Y348241D01*
X259365Y348241D01*
X259365Y335900D01*
X257350Y335900D01*
X250746Y346410D01*
X250790Y345561D01*
X250834Y344098D01*
X250834Y335900D01*
G37*
G36*
X180557Y335725D02*
X180185Y335733D01*
X179824Y335759D01*
X179475Y335802D01*
X179138Y335863D01*
X178814Y335940D01*
X178501Y336035D01*
X178201Y336147D01*
X177912Y336277D01*
X177638Y336422D01*
X177379Y336584D01*
X177136Y336761D01*
X176909Y336953D01*
X176698Y337161D01*
X176503Y337385D01*
X176324Y337624D01*
X176161Y337879D01*
X176015Y338148D01*
X175888Y338430D01*
X175782Y338724D01*
X175694Y339031D01*
X175626Y339351D01*
X175578Y339683D01*
X175548Y340027D01*
X175539Y340384D01*
X175539Y348241D01*
X177212Y348241D01*
X177212Y340525D01*
X177225Y340115D01*
X177265Y339730D01*
X177332Y339371D01*
X177426Y339038D01*
X177547Y338730D01*
X177694Y338447D01*
X177869Y338190D01*
X178070Y337958D01*
X178296Y337753D01*
X178547Y337575D01*
X178821Y337425D01*
X179119Y337301D01*
X179440Y337206D01*
X179786Y337137D01*
X180155Y337096D01*
X180549Y337082D01*
X180953Y337097D01*
X181334Y337139D01*
X181693Y337210D01*
X182028Y337309D01*
X182340Y337437D01*
X182628Y337592D01*
X182894Y337776D01*
X183137Y337989D01*
X183353Y338229D01*
X183541Y338494D01*
X183700Y338786D01*
X183830Y339105D01*
X183931Y339449D01*
X184003Y339819D01*
X184046Y340216D01*
X184061Y340638D01*
X184061Y348241D01*
X185725Y348241D01*
X185725Y340542D01*
X185715Y340174D01*
X185685Y339819D01*
X185636Y339477D01*
X185566Y339147D01*
X185477Y338831D01*
X185368Y338527D01*
X185239Y338236D01*
X185090Y337958D01*
X184923Y337695D01*
X184740Y337447D01*
X184540Y337216D01*
X184323Y337000D01*
X184091Y336801D01*
X183842Y336617D01*
X183576Y336450D01*
X183294Y336299D01*
X182998Y336164D01*
X182688Y336048D01*
X182365Y335949D01*
X182030Y335868D01*
X181681Y335806D01*
X181320Y335761D01*
X180945Y335734D01*
X180557Y335725D01*
G37*
G36*
X200480Y335725D02*
X199061Y335725D01*
X202661Y348898D01*
X204045Y348898D01*
X200480Y335725D01*
G37*
G36*
X412807Y138871D02*
X412340Y138883D01*
X411889Y138919D01*
X411455Y138979D01*
X411037Y139064D01*
X410635Y139172D01*
X410249Y139304D01*
X409880Y139461D01*
X409527Y139642D01*
X409192Y139845D01*
X408878Y140070D01*
X408584Y140316D01*
X408311Y140584D01*
X408058Y140874D01*
X407825Y141184D01*
X407612Y141517D01*
X407421Y141871D01*
X407250Y142243D01*
X407102Y142630D01*
X406978Y143033D01*
X406875Y143450D01*
X406796Y143883D01*
X406739Y144332D01*
X406705Y144795D01*
X406694Y145273D01*
X406700Y145638D01*
X406719Y145993D01*
X406751Y146338D01*
X406795Y146673D01*
X406852Y146997D01*
X406921Y147312D01*
X407004Y147616D01*
X407099Y147911D01*
X407206Y148195D01*
X407327Y148469D01*
X407459Y148733D01*
X407605Y148987D01*
X407934Y149465D01*
X408314Y149902D01*
X408739Y150293D01*
X408966Y150469D01*
X409203Y150632D01*
X409451Y150782D01*
X409708Y150919D01*
X409975Y151043D01*
X410252Y151154D01*
X410539Y151251D01*
X410835Y151336D01*
X411142Y151408D01*
X411459Y151466D01*
X411785Y151512D01*
X412122Y151545D01*
X412468Y151564D01*
X412825Y151571D01*
X413288Y151559D01*
X413735Y151524D01*
X414167Y151465D01*
X414583Y151384D01*
X414983Y151278D01*
X415368Y151149D01*
X415738Y150997D01*
X416091Y150822D01*
X416427Y150624D01*
X416743Y150405D01*
X417038Y150165D01*
X417312Y149903D01*
X417566Y149621D01*
X417800Y149317D01*
X418014Y148992D01*
X418207Y148645D01*
X418378Y148280D01*
X418527Y147899D01*
X418652Y147502D01*
X418755Y147089D01*
X418835Y146659D01*
X418892Y146213D01*
X418927Y145751D01*
X418938Y145273D01*
X418926Y144797D01*
X418892Y144336D01*
X418834Y143889D01*
X418753Y143458D01*
X418649Y143042D01*
X418522Y142641D01*
X418371Y142255D01*
X418198Y141884D01*
X418003Y141531D01*
X417788Y141199D01*
X417552Y140888D01*
X417297Y140598D01*
X417021Y140330D01*
X416726Y140082D01*
X416410Y139856D01*
X416074Y139650D01*
X415720Y139468D01*
X415351Y139309D01*
X414966Y139175D01*
X414565Y139066D01*
X414149Y138980D01*
X413717Y138920D01*
X413270Y138883D01*
X412807Y138871D01*
G37*
%LPC*%
G36*
X412807Y140228D02*
X413326Y140249D01*
X413813Y140311D01*
X414270Y140414D01*
X414696Y140558D01*
X415090Y140743D01*
X415453Y140970D01*
X415786Y141238D01*
X416087Y141547D01*
X416355Y141893D01*
X416587Y142274D01*
X416784Y142689D01*
X416944Y143137D01*
X417069Y143620D01*
X417159Y144137D01*
X417212Y144688D01*
X417230Y145273D01*
X417212Y145834D01*
X417158Y146363D01*
X417068Y146862D01*
X416942Y147329D01*
X416780Y147766D01*
X416582Y148172D01*
X416348Y148547D01*
X416078Y148891D01*
X415776Y149199D01*
X415443Y149465D01*
X415081Y149691D01*
X414689Y149876D01*
X414267Y150020D01*
X413816Y150122D01*
X413335Y150184D01*
X412825Y150204D01*
X412310Y150184D01*
X411825Y150123D01*
X411370Y150022D01*
X410946Y149880D01*
X410551Y149698D01*
X410187Y149475D01*
X409853Y149212D01*
X409549Y148908D01*
X409278Y148568D01*
X409043Y148195D01*
X408844Y147789D01*
X408682Y147351D01*
X408555Y146881D01*
X408465Y146377D01*
X408411Y145842D01*
X408393Y145273D01*
X408411Y144708D01*
X408466Y144173D01*
X408557Y143667D01*
X408685Y143192D01*
X408849Y142747D01*
X409050Y142331D01*
X409288Y141946D01*
X409562Y141590D01*
X409868Y141271D01*
X410203Y140995D01*
X410566Y140760D01*
X410958Y140569D01*
X411378Y140420D01*
X411826Y140314D01*
X412302Y140250D01*
X412807Y140228D01*
G37*
%LPD*%
G36*
X490213Y138871D02*
X489746Y138883D01*
X489296Y138919D01*
X488861Y138979D01*
X488443Y139064D01*
X488041Y139172D01*
X487656Y139304D01*
X487286Y139461D01*
X486933Y139642D01*
X486599Y139845D01*
X486284Y140070D01*
X485990Y140316D01*
X485717Y140584D01*
X485464Y140874D01*
X485231Y141184D01*
X485019Y141517D01*
X484827Y141871D01*
X484656Y142243D01*
X484509Y142630D01*
X484384Y143033D01*
X484282Y143450D01*
X484202Y143883D01*
X484145Y144332D01*
X484111Y144795D01*
X484100Y145273D01*
X484106Y145638D01*
X484125Y145993D01*
X484157Y146338D01*
X484201Y146673D01*
X484258Y146997D01*
X484328Y147312D01*
X484410Y147616D01*
X484505Y147911D01*
X484613Y148195D01*
X484733Y148469D01*
X484866Y148733D01*
X485011Y148987D01*
X485340Y149465D01*
X485720Y149902D01*
X486145Y150293D01*
X486372Y150469D01*
X486610Y150632D01*
X486857Y150782D01*
X487114Y150919D01*
X487381Y151043D01*
X487658Y151154D01*
X487945Y151251D01*
X488242Y151336D01*
X488548Y151408D01*
X488865Y151466D01*
X489192Y151512D01*
X489528Y151545D01*
X489874Y151564D01*
X490231Y151571D01*
X490694Y151559D01*
X491141Y151524D01*
X491573Y151465D01*
X491989Y151384D01*
X492390Y151278D01*
X492775Y151149D01*
X493144Y150997D01*
X493498Y150822D01*
X493834Y150624D01*
X494149Y150405D01*
X494444Y150165D01*
X494718Y149903D01*
X494973Y149621D01*
X495206Y149317D01*
X495420Y148992D01*
X495613Y148645D01*
X495784Y148280D01*
X495933Y147899D01*
X496059Y147502D01*
X496161Y147089D01*
X496241Y146659D01*
X496299Y146213D01*
X496333Y145751D01*
X496344Y145273D01*
X496333Y144797D01*
X496298Y144336D01*
X496240Y143889D01*
X496159Y143458D01*
X496055Y143042D01*
X495928Y142641D01*
X495778Y142255D01*
X495604Y141884D01*
X495409Y141531D01*
X495194Y141199D01*
X494959Y140888D01*
X494703Y140598D01*
X494428Y140330D01*
X494132Y140082D01*
X493816Y139856D01*
X493480Y139650D01*
X493126Y139468D01*
X492757Y139309D01*
X492372Y139175D01*
X491972Y139066D01*
X491555Y138980D01*
X491124Y138920D01*
X490676Y138883D01*
X490213Y138871D01*
G37*
%LPC*%
G36*
X490213Y140228D02*
X490732Y140249D01*
X491220Y140311D01*
X491676Y140414D01*
X492102Y140558D01*
X492496Y140743D01*
X492860Y140970D01*
X493192Y141238D01*
X493493Y141547D01*
X493761Y141893D01*
X493993Y142274D01*
X494190Y142689D01*
X494351Y143137D01*
X494476Y143620D01*
X494565Y144137D01*
X494618Y144688D01*
X494636Y145273D01*
X494618Y145834D01*
X494564Y146363D01*
X494474Y146862D01*
X494348Y147329D01*
X494186Y147766D01*
X493988Y148172D01*
X493755Y148547D01*
X493485Y148891D01*
X493182Y149199D01*
X492849Y149465D01*
X492487Y149691D01*
X492095Y149876D01*
X491674Y150020D01*
X491222Y150122D01*
X490741Y150184D01*
X490231Y150204D01*
X489716Y150184D01*
X489231Y150123D01*
X488777Y150022D01*
X488352Y149880D01*
X487958Y149698D01*
X487593Y149475D01*
X487259Y149212D01*
X486955Y148908D01*
X486684Y148568D01*
X486449Y148195D01*
X486251Y147789D01*
X486088Y147351D01*
X485962Y146881D01*
X485871Y146377D01*
X485817Y145842D01*
X485799Y145273D01*
X485817Y144708D01*
X485872Y144173D01*
X485963Y143667D01*
X486091Y143192D01*
X486256Y142747D01*
X486457Y142331D01*
X486694Y141946D01*
X486968Y141590D01*
X487275Y141271D01*
X487610Y140995D01*
X487973Y140760D01*
X488364Y140569D01*
X488784Y140420D01*
X489232Y140314D01*
X489709Y140250D01*
X490213Y140228D01*
G37*
%LPD*%
G36*
X446863Y139046D02*
X445190Y139046D01*
X445190Y151387D01*
X450997Y151387D01*
X451504Y151372D01*
X451980Y151328D01*
X452427Y151256D01*
X452844Y151154D01*
X453232Y151022D01*
X453590Y150862D01*
X453918Y150673D01*
X454216Y150454D01*
X454482Y150209D01*
X454712Y149942D01*
X454907Y149652D01*
X455067Y149338D01*
X455191Y149002D01*
X455279Y148643D01*
X455333Y148262D01*
X455350Y147857D01*
X455338Y147520D01*
X455300Y147197D01*
X455238Y146887D01*
X455150Y146591D01*
X455037Y146309D01*
X454900Y146041D01*
X454737Y145786D01*
X454549Y145545D01*
X454339Y145321D01*
X454110Y145120D01*
X453862Y144939D01*
X453751Y144873D01*
X453595Y144781D01*
X453309Y144644D01*
X453004Y144528D01*
X452680Y144435D01*
X452337Y144362D01*
X453829Y142099D01*
X455841Y139046D01*
X453914Y139046D01*
X450708Y144170D01*
X446863Y144170D01*
X446863Y139046D01*
G37*
%LPC*%
G36*
X450901Y145492D02*
X451222Y145502D01*
X451525Y145531D01*
X451809Y145579D01*
X452074Y145647D01*
X452320Y145733D01*
X452547Y145840D01*
X452756Y145965D01*
X452946Y146110D01*
X453115Y146272D01*
X453262Y146449D01*
X453386Y146642D01*
X453488Y146851D01*
X453567Y147075D01*
X453624Y147314D01*
X453657Y147569D01*
X453669Y147840D01*
X453657Y148101D01*
X453623Y148346D01*
X453566Y148576D01*
X453486Y148789D01*
X453383Y148986D01*
X453257Y149167D01*
X453109Y149333D01*
X452937Y149482D01*
X452744Y149614D01*
X452531Y149729D01*
X452298Y149826D01*
X452045Y149906D01*
X451772Y149967D01*
X451478Y150011D01*
X451165Y150038D01*
X450831Y150047D01*
X446863Y150047D01*
X446863Y145492D01*
X450901Y145492D01*
G37*
%LPD*%
G36*
X422926Y139046D02*
X421253Y139046D01*
X421253Y151387D01*
X426447Y151387D01*
X426951Y151372D01*
X427426Y151326D01*
X427872Y151250D01*
X428288Y151144D01*
X428675Y151007D01*
X429033Y150840D01*
X429362Y150642D01*
X429661Y150415D01*
X429928Y150159D01*
X430159Y149879D01*
X430355Y149573D01*
X430515Y149243D01*
X430640Y148888D01*
X430729Y148508D01*
X430782Y148103D01*
X430800Y147673D01*
X430782Y147246D01*
X430728Y146842D01*
X430639Y146460D01*
X430514Y146101D01*
X430353Y145764D01*
X430157Y145450D01*
X429925Y145158D01*
X429657Y144888D01*
X429358Y144646D01*
X429034Y144436D01*
X428684Y144258D01*
X428309Y144113D01*
X427908Y144000D01*
X427482Y143919D01*
X427030Y143871D01*
X426552Y143854D01*
X422926Y143854D01*
X422926Y139046D01*
G37*
%LPC*%
G36*
X426315Y145177D02*
X426655Y145187D01*
X426972Y145216D01*
X427268Y145264D01*
X427542Y145332D01*
X427793Y145419D01*
X428023Y145526D01*
X428231Y145651D01*
X428417Y145797D01*
X428582Y145961D01*
X428724Y146145D01*
X428844Y146349D01*
X428943Y146571D01*
X429020Y146813D01*
X429074Y147075D01*
X429107Y147355D01*
X429118Y147656D01*
X429107Y147945D01*
X429073Y148216D01*
X429017Y148468D01*
X428939Y148702D01*
X428838Y148917D01*
X428714Y149113D01*
X428568Y149290D01*
X428400Y149449D01*
X428209Y149589D01*
X427996Y149710D01*
X427760Y149813D01*
X427502Y149897D01*
X427222Y149963D01*
X426919Y150009D01*
X426593Y150037D01*
X426245Y150047D01*
X422926Y150047D01*
X422926Y145177D01*
X426315Y145177D01*
G37*
%LPD*%
G36*
X458426Y139046D02*
X456692Y139046D01*
X461728Y151387D01*
X463628Y151387D01*
X468586Y139046D01*
X466878Y139046D01*
X465468Y142655D01*
X459845Y142655D01*
X458426Y139046D01*
G37*
%LPC*%
G36*
X464968Y143960D02*
X463383Y148032D01*
X463138Y148676D01*
X462893Y149399D01*
X462656Y150126D01*
X462577Y149880D01*
X462306Y149050D01*
X461929Y148015D01*
X460353Y143960D01*
X464968Y143960D01*
G37*
%LPD*%
G36*
X500148Y139046D02*
X498659Y139046D01*
X498659Y151387D01*
X500604Y151387D01*
X507278Y140806D01*
X507199Y142287D01*
X507172Y143294D01*
X507172Y151387D01*
X508679Y151387D01*
X508679Y139046D01*
X506664Y139046D01*
X500061Y149556D01*
X500104Y148707D01*
X500148Y147244D01*
X500148Y139046D01*
G37*
G36*
X442944Y139046D02*
X433222Y139046D01*
X433222Y151387D01*
X442585Y151387D01*
X442585Y150020D01*
X434895Y150020D01*
X434895Y146062D01*
X442059Y146062D01*
X442059Y144713D01*
X434895Y144713D01*
X434895Y140412D01*
X442944Y140412D01*
X442944Y139046D01*
G37*
G36*
X473588Y139046D02*
X471924Y139046D01*
X471924Y150020D01*
X467684Y150020D01*
X467684Y151387D01*
X477827Y151387D01*
X477827Y150020D01*
X473588Y150020D01*
X473588Y139046D01*
G37*
G36*
X481578Y139046D02*
X479906Y139046D01*
X479906Y151387D01*
X481578Y151387D01*
X481578Y139046D01*
G37*
G36*
X359642Y465500D02*
X357969Y465500D01*
X357969Y477841D01*
X363776Y477841D01*
X364283Y477826D01*
X364759Y477782D01*
X365206Y477710D01*
X365623Y477608D01*
X366011Y477476D01*
X366368Y477316D01*
X366697Y477127D01*
X366995Y476908D01*
X367261Y476663D01*
X367491Y476396D01*
X367686Y476106D01*
X367846Y475792D01*
X367970Y475456D01*
X368058Y475097D01*
X368112Y474716D01*
X368129Y474311D01*
X368117Y473974D01*
X368079Y473651D01*
X368017Y473341D01*
X367929Y473045D01*
X367816Y472763D01*
X367678Y472495D01*
X367516Y472240D01*
X367328Y471999D01*
X367118Y471775D01*
X366889Y471574D01*
X366641Y471393D01*
X366530Y471327D01*
X366374Y471235D01*
X366088Y471098D01*
X365783Y470982D01*
X365459Y470889D01*
X365116Y470816D01*
X366608Y468553D01*
X368620Y465500D01*
X366693Y465500D01*
X363487Y470624D01*
X359642Y470624D01*
X359642Y465500D01*
G37*
%LPC*%
G36*
X363680Y471946D02*
X364001Y471956D01*
X364304Y471985D01*
X364587Y472033D01*
X364852Y472101D01*
X365099Y472187D01*
X365326Y472294D01*
X365535Y472419D01*
X365725Y472564D01*
X365894Y472726D01*
X366041Y472903D01*
X366165Y473096D01*
X366267Y473305D01*
X366346Y473529D01*
X366402Y473768D01*
X366436Y474023D01*
X366448Y474294D01*
X366436Y474555D01*
X366402Y474800D01*
X366345Y475030D01*
X366265Y475243D01*
X366162Y475440D01*
X366036Y475621D01*
X365888Y475787D01*
X365716Y475936D01*
X365523Y476068D01*
X365310Y476183D01*
X365077Y476280D01*
X364824Y476360D01*
X364551Y476421D01*
X364257Y476465D01*
X363944Y476492D01*
X363610Y476501D01*
X359642Y476501D01*
X359642Y471946D01*
X363680Y471946D01*
G37*
%LPD*%
G36*
X378536Y465500D02*
X370802Y465500D01*
X370802Y466840D01*
X373946Y466840D01*
X373946Y476334D01*
X371161Y474346D01*
X371161Y475835D01*
X374077Y477841D01*
X375531Y477841D01*
X375531Y466840D01*
X378536Y466840D01*
X378536Y465500D01*
G37*
G36*
X359642Y299750D02*
X357969Y299750D01*
X357969Y312091D01*
X363776Y312091D01*
X364283Y312076D01*
X364759Y312032D01*
X365206Y311960D01*
X365623Y311858D01*
X366011Y311726D01*
X366368Y311566D01*
X366697Y311377D01*
X366995Y311158D01*
X367261Y310913D01*
X367491Y310646D01*
X367686Y310356D01*
X367846Y310042D01*
X367970Y309706D01*
X368058Y309347D01*
X368112Y308966D01*
X368129Y308561D01*
X368117Y308224D01*
X368079Y307901D01*
X368017Y307591D01*
X367929Y307295D01*
X367816Y307013D01*
X367678Y306745D01*
X367516Y306490D01*
X367328Y306249D01*
X367118Y306025D01*
X366889Y305824D01*
X366641Y305643D01*
X366530Y305577D01*
X366374Y305485D01*
X366088Y305348D01*
X365783Y305232D01*
X365459Y305139D01*
X365116Y305066D01*
X366608Y302803D01*
X368620Y299750D01*
X366693Y299750D01*
X363487Y304874D01*
X359642Y304874D01*
X359642Y299750D01*
G37*
%LPC*%
G36*
X363680Y306196D02*
X364001Y306206D01*
X364304Y306235D01*
X364587Y306283D01*
X364852Y306351D01*
X365099Y306437D01*
X365326Y306544D01*
X365535Y306669D01*
X365725Y306814D01*
X365894Y306976D01*
X366041Y307153D01*
X366165Y307346D01*
X366267Y307555D01*
X366346Y307779D01*
X366402Y308018D01*
X366436Y308273D01*
X366448Y308544D01*
X366436Y308805D01*
X366402Y309050D01*
X366345Y309280D01*
X366265Y309493D01*
X366162Y309690D01*
X366036Y309871D01*
X365888Y310037D01*
X365716Y310186D01*
X365523Y310318D01*
X365310Y310433D01*
X365077Y310530D01*
X364824Y310610D01*
X364551Y310671D01*
X364257Y310715D01*
X363944Y310742D01*
X363610Y310751D01*
X359642Y310751D01*
X359642Y306196D01*
X363680Y306196D01*
G37*
%LPD*%
G36*
X378509Y299750D02*
X370338Y299750D01*
X370338Y300862D01*
X370573Y301360D01*
X370833Y301827D01*
X371118Y302264D01*
X371428Y302671D01*
X371754Y303054D01*
X372088Y303418D01*
X372431Y303763D01*
X372781Y304090D01*
X373487Y304702D01*
X374187Y305268D01*
X374849Y305811D01*
X375444Y306354D01*
X375711Y306629D01*
X375951Y306910D01*
X376164Y307198D01*
X376350Y307493D01*
X376502Y307800D01*
X376610Y308128D01*
X376675Y308475D01*
X376696Y308841D01*
X376687Y309088D01*
X376659Y309321D01*
X376612Y309539D01*
X376547Y309743D01*
X376464Y309933D01*
X376361Y310109D01*
X376240Y310271D01*
X376101Y310418D01*
X375944Y310549D01*
X375774Y310663D01*
X375589Y310759D01*
X375389Y310838D01*
X375175Y310900D01*
X374946Y310943D01*
X374703Y310970D01*
X374445Y310978D01*
X374199Y310970D01*
X373964Y310944D01*
X373740Y310901D01*
X373527Y310842D01*
X373325Y310765D01*
X373134Y310671D01*
X372954Y310559D01*
X372786Y310431D01*
X372631Y310287D01*
X372493Y310130D01*
X372372Y309958D01*
X372268Y309773D01*
X372180Y309574D01*
X372110Y309361D01*
X372056Y309134D01*
X372019Y308894D01*
X370408Y309043D01*
X370466Y309403D01*
X370552Y309745D01*
X370666Y310068D01*
X370809Y310372D01*
X370981Y310657D01*
X371180Y310923D01*
X371408Y311170D01*
X371664Y311399D01*
X371944Y311604D01*
X372244Y311782D01*
X372563Y311933D01*
X372900Y312056D01*
X373258Y312152D01*
X373634Y312220D01*
X374030Y312261D01*
X374445Y312275D01*
X374898Y312261D01*
X375324Y312220D01*
X375723Y312151D01*
X376095Y312055D01*
X376440Y311931D01*
X376758Y311780D01*
X377049Y311601D01*
X377314Y311394D01*
X377549Y311163D01*
X377752Y310908D01*
X377925Y310630D01*
X378066Y310329D01*
X378176Y310005D01*
X378254Y309658D01*
X378301Y309287D01*
X378317Y308894D01*
X378296Y308535D01*
X378234Y308178D01*
X378132Y307822D01*
X377988Y307466D01*
X377804Y307112D01*
X377580Y306757D01*
X377316Y306402D01*
X377012Y306047D01*
X376614Y305644D01*
X376068Y305143D01*
X375374Y304545D01*
X374533Y303849D01*
X374055Y303447D01*
X373629Y303066D01*
X373254Y302705D01*
X372930Y302364D01*
X372653Y302037D01*
X372418Y301715D01*
X372224Y301400D01*
X372072Y301090D01*
X378509Y301090D01*
X378509Y299750D01*
G37*
G36*
X359642Y120400D02*
X357969Y120400D01*
X357969Y132741D01*
X363776Y132741D01*
X364283Y132726D01*
X364759Y132682D01*
X365206Y132610D01*
X365623Y132508D01*
X366011Y132376D01*
X366368Y132216D01*
X366697Y132027D01*
X366995Y131808D01*
X367261Y131563D01*
X367491Y131296D01*
X367686Y131006D01*
X367846Y130692D01*
X367970Y130356D01*
X368058Y129997D01*
X368112Y129616D01*
X368129Y129211D01*
X368117Y128874D01*
X368079Y128551D01*
X368017Y128241D01*
X367929Y127945D01*
X367816Y127663D01*
X367678Y127395D01*
X367516Y127140D01*
X367328Y126899D01*
X367118Y126675D01*
X366889Y126474D01*
X366641Y126293D01*
X366530Y126227D01*
X366374Y126135D01*
X366088Y125998D01*
X365783Y125882D01*
X365459Y125789D01*
X365116Y125716D01*
X366608Y123453D01*
X368620Y120400D01*
X366693Y120400D01*
X363487Y125524D01*
X359642Y125524D01*
X359642Y120400D01*
G37*
%LPC*%
G36*
X363680Y126846D02*
X364001Y126856D01*
X364304Y126885D01*
X364587Y126933D01*
X364852Y127001D01*
X365099Y127087D01*
X365326Y127194D01*
X365535Y127319D01*
X365725Y127464D01*
X365894Y127626D01*
X366041Y127803D01*
X366165Y127996D01*
X366267Y128205D01*
X366346Y128429D01*
X366402Y128668D01*
X366436Y128923D01*
X366448Y129194D01*
X366436Y129455D01*
X366402Y129700D01*
X366345Y129930D01*
X366265Y130143D01*
X366162Y130340D01*
X366036Y130521D01*
X365888Y130687D01*
X365716Y130836D01*
X365523Y130968D01*
X365310Y131083D01*
X365077Y131180D01*
X364824Y131260D01*
X364551Y131321D01*
X364257Y131365D01*
X363944Y131392D01*
X363610Y131401D01*
X359642Y131401D01*
X359642Y126846D01*
X363680Y126846D01*
G37*
%LPD*%
G36*
X374437Y120225D02*
X373980Y120238D01*
X373547Y120278D01*
X373137Y120344D01*
X372752Y120436D01*
X372390Y120555D01*
X372051Y120700D01*
X371736Y120872D01*
X371445Y121070D01*
X371180Y121294D01*
X370944Y121543D01*
X370735Y121818D01*
X370555Y122118D01*
X370404Y122443D01*
X370280Y122794D01*
X370185Y123169D01*
X370119Y123571D01*
X371748Y123719D01*
X371795Y123454D01*
X371859Y123206D01*
X371938Y122975D01*
X372034Y122762D01*
X372146Y122565D01*
X372274Y122385D01*
X372417Y122223D01*
X372578Y122077D01*
X372754Y121949D01*
X372946Y121838D01*
X373154Y121744D01*
X373378Y121667D01*
X373619Y121607D01*
X373875Y121564D01*
X374148Y121538D01*
X374437Y121530D01*
X374726Y121539D01*
X375000Y121567D01*
X375258Y121612D01*
X375500Y121677D01*
X375725Y121759D01*
X375935Y121860D01*
X376129Y121979D01*
X376306Y122117D01*
X376466Y122272D01*
X376603Y122446D01*
X376720Y122637D01*
X376816Y122846D01*
X376890Y123073D01*
X376943Y123317D01*
X376975Y123579D01*
X376985Y123860D01*
X376973Y124105D01*
X376937Y124336D01*
X376876Y124553D01*
X376791Y124756D01*
X376682Y124946D01*
X376549Y125122D01*
X376392Y125284D01*
X376210Y125432D01*
X376006Y125564D01*
X375780Y125679D01*
X375532Y125776D01*
X375263Y125855D01*
X374973Y125917D01*
X374661Y125961D01*
X374327Y125988D01*
X373972Y125997D01*
X373079Y125997D01*
X373079Y127363D01*
X373937Y127363D01*
X374252Y127372D01*
X374549Y127398D01*
X374828Y127442D01*
X375088Y127504D01*
X375330Y127584D01*
X375554Y127681D01*
X375760Y127796D01*
X375947Y127928D01*
X376115Y128076D01*
X376260Y128238D01*
X376382Y128413D01*
X376483Y128601D01*
X376561Y128803D01*
X376617Y129019D01*
X376650Y129249D01*
X376661Y129491D01*
X376652Y129732D01*
X376625Y129960D01*
X376579Y130175D01*
X376516Y130377D01*
X376434Y130566D01*
X376334Y130742D01*
X376215Y130905D01*
X376079Y131055D01*
X375924Y131189D01*
X375752Y131306D01*
X375562Y131404D01*
X375355Y131485D01*
X375130Y131548D01*
X374887Y131593D01*
X374627Y131619D01*
X374349Y131628D01*
X374095Y131620D01*
X373853Y131595D01*
X373623Y131553D01*
X373406Y131495D01*
X373202Y131420D01*
X373010Y131328D01*
X372830Y131219D01*
X372663Y131094D01*
X372510Y130954D01*
X372375Y130800D01*
X372256Y130632D01*
X372154Y130450D01*
X372069Y130255D01*
X372000Y130046D01*
X371949Y129824D01*
X371914Y129588D01*
X370329Y129710D01*
X370387Y130079D01*
X370473Y130426D01*
X370588Y130753D01*
X370731Y131059D01*
X370902Y131344D01*
X371101Y131609D01*
X371329Y131852D01*
X371586Y132075D01*
X371866Y132274D01*
X372165Y132447D01*
X372484Y132593D01*
X372822Y132712D01*
X373179Y132805D01*
X373555Y132872D01*
X373951Y132911D01*
X374366Y132925D01*
X374818Y132911D01*
X375243Y132871D01*
X375643Y132803D01*
X376016Y132709D01*
X376364Y132588D01*
X376686Y132439D01*
X376982Y132264D01*
X377252Y132062D01*
X377494Y131836D01*
X377703Y131588D01*
X377880Y131320D01*
X378024Y131030D01*
X378137Y130718D01*
X378217Y130386D01*
X378265Y130033D01*
X378282Y129658D01*
X378271Y129369D01*
X378240Y129094D01*
X378189Y128833D01*
X378116Y128586D01*
X378023Y128353D01*
X377910Y128133D01*
X377775Y127927D01*
X377620Y127735D01*
X377446Y127558D01*
X377252Y127395D01*
X377040Y127247D01*
X376809Y127115D01*
X376559Y126997D01*
X376291Y126894D01*
X376004Y126806D01*
X375698Y126732D01*
X375698Y126697D01*
X376034Y126650D01*
X376351Y126584D01*
X376649Y126497D01*
X376928Y126391D01*
X377188Y126265D01*
X377429Y126119D01*
X377650Y125954D01*
X377852Y125769D01*
X378033Y125568D01*
X378190Y125354D01*
X378322Y125128D01*
X378430Y124889D01*
X378515Y124637D01*
X378575Y124373D01*
X378611Y124096D01*
X378623Y123807D01*
X378606Y123392D01*
X378555Y123001D01*
X378470Y122635D01*
X378352Y122292D01*
X378199Y121973D01*
X378012Y121679D01*
X377792Y121408D01*
X377537Y121162D01*
X377251Y120942D01*
X376936Y120752D01*
X376592Y120591D01*
X376219Y120459D01*
X375817Y120357D01*
X375386Y120283D01*
X374926Y120240D01*
X374437Y120225D01*
G37*
G36*
X359642Y379300D02*
X357969Y379300D01*
X357969Y391641D01*
X363776Y391641D01*
X364283Y391626D01*
X364759Y391582D01*
X365206Y391510D01*
X365623Y391408D01*
X366011Y391276D01*
X366368Y391116D01*
X366697Y390927D01*
X366995Y390708D01*
X367261Y390463D01*
X367491Y390196D01*
X367686Y389906D01*
X367846Y389592D01*
X367970Y389256D01*
X368058Y388897D01*
X368112Y388516D01*
X368129Y388111D01*
X368117Y387774D01*
X368079Y387451D01*
X368017Y387141D01*
X367929Y386845D01*
X367816Y386563D01*
X367678Y386295D01*
X367516Y386040D01*
X367328Y385799D01*
X367118Y385575D01*
X366889Y385374D01*
X366641Y385193D01*
X366530Y385127D01*
X366374Y385035D01*
X366088Y384898D01*
X365783Y384782D01*
X365459Y384689D01*
X365116Y384616D01*
X366608Y382353D01*
X368620Y379300D01*
X366693Y379300D01*
X363487Y384424D01*
X359642Y384424D01*
X359642Y379300D01*
G37*
%LPC*%
G36*
X363680Y385746D02*
X364001Y385756D01*
X364304Y385785D01*
X364587Y385833D01*
X364852Y385901D01*
X365099Y385987D01*
X365326Y386094D01*
X365535Y386219D01*
X365725Y386364D01*
X365894Y386526D01*
X366041Y386703D01*
X366165Y386896D01*
X366267Y387105D01*
X366346Y387329D01*
X366402Y387568D01*
X366436Y387823D01*
X366448Y388094D01*
X366436Y388355D01*
X366402Y388600D01*
X366345Y388830D01*
X366265Y389043D01*
X366162Y389240D01*
X366036Y389421D01*
X365888Y389587D01*
X365716Y389736D01*
X365523Y389868D01*
X365310Y389983D01*
X365077Y390080D01*
X364824Y390160D01*
X364551Y390221D01*
X364257Y390265D01*
X363944Y390292D01*
X363610Y390301D01*
X359642Y390301D01*
X359642Y385746D01*
X363680Y385746D01*
G37*
%LPD*%
G36*
X377152Y379300D02*
X375663Y379300D01*
X375663Y382094D01*
X369847Y382094D01*
X369847Y383320D01*
X375496Y391641D01*
X377152Y391641D01*
X377152Y383338D01*
X378886Y383338D01*
X378886Y382094D01*
X377152Y382094D01*
X377152Y379300D01*
G37*
%LPC*%
G36*
X375663Y383338D02*
X375663Y389863D01*
X375417Y389399D01*
X375076Y388821D01*
X371914Y384161D01*
X371441Y383513D01*
X371301Y383338D01*
X375663Y383338D01*
G37*
%LPD*%
G36*
X465611Y318573D02*
X463938Y318573D01*
X463938Y330914D01*
X469745Y330914D01*
X470251Y330899D01*
X470728Y330856D01*
X471174Y330783D01*
X471592Y330681D01*
X471979Y330549D01*
X472337Y330389D01*
X472665Y330200D01*
X472963Y329981D01*
X473229Y329736D01*
X473460Y329469D01*
X473655Y329179D01*
X473814Y328865D01*
X473938Y328529D01*
X474027Y328171D01*
X474080Y327789D01*
X474098Y327384D01*
X474085Y327047D01*
X474048Y326724D01*
X473985Y326414D01*
X473897Y326119D01*
X473785Y325836D01*
X473647Y325568D01*
X473484Y325313D01*
X473296Y325072D01*
X473086Y324848D01*
X472858Y324647D01*
X472610Y324466D01*
X472499Y324400D01*
X472343Y324308D01*
X472057Y324171D01*
X471752Y324055D01*
X471428Y323962D01*
X471085Y323889D01*
X472576Y321626D01*
X474588Y318573D01*
X472661Y318573D01*
X469456Y323697D01*
X465611Y323697D01*
X465611Y318573D01*
G37*
%LPC*%
G36*
X469648Y325019D02*
X469970Y325029D01*
X470272Y325058D01*
X470556Y325106D01*
X470821Y325174D01*
X471067Y325261D01*
X471295Y325367D01*
X471503Y325492D01*
X471693Y325637D01*
X471863Y325799D01*
X472010Y325976D01*
X472134Y326170D01*
X472235Y326378D01*
X472314Y326602D01*
X472371Y326841D01*
X472405Y327096D01*
X472416Y327367D01*
X472405Y327628D01*
X472370Y327873D01*
X472313Y328103D01*
X472233Y328316D01*
X472130Y328513D01*
X472005Y328694D01*
X471856Y328860D01*
X471685Y329009D01*
X471492Y329141D01*
X471279Y329256D01*
X471046Y329353D01*
X470792Y329433D01*
X470519Y329494D01*
X470226Y329538D01*
X469912Y329565D01*
X469578Y329574D01*
X465611Y329574D01*
X465611Y325019D01*
X469648Y325019D01*
G37*
%LPD*%
G36*
X435785Y318573D02*
X426063Y318573D01*
X426063Y330914D01*
X435426Y330914D01*
X435426Y329548D01*
X427736Y329548D01*
X427736Y325589D01*
X434900Y325589D01*
X434900Y324240D01*
X427736Y324240D01*
X427736Y319939D01*
X435785Y319939D01*
X435785Y318573D01*
G37*
G36*
X418697Y318398D02*
X418148Y318410D01*
X417629Y318447D01*
X417139Y318508D01*
X416679Y318594D01*
X416248Y318704D01*
X415848Y318839D01*
X415476Y318998D01*
X415135Y319182D01*
X414823Y319390D01*
X414540Y319623D01*
X414288Y319880D01*
X414064Y320162D01*
X413871Y320468D01*
X413707Y320799D01*
X413573Y321154D01*
X413468Y321533D01*
X415089Y321858D01*
X415169Y321589D01*
X415268Y321338D01*
X415388Y321106D01*
X415527Y320893D01*
X415685Y320698D01*
X415864Y320522D01*
X416062Y320364D01*
X416280Y320224D01*
X416518Y320102D01*
X416776Y319996D01*
X417055Y319906D01*
X417355Y319833D01*
X417675Y319776D01*
X418016Y319735D01*
X418377Y319711D01*
X418759Y319703D01*
X419152Y319712D01*
X419522Y319738D01*
X419870Y319781D01*
X420194Y319842D01*
X420495Y319920D01*
X420773Y320016D01*
X421027Y320129D01*
X421259Y320259D01*
X421465Y320406D01*
X421644Y320570D01*
X421795Y320749D01*
X421919Y320946D01*
X422016Y321158D01*
X422084Y321386D01*
X422126Y321631D01*
X422139Y321893D01*
X422122Y322180D01*
X422070Y322440D01*
X421984Y322671D01*
X421863Y322874D01*
X421712Y323054D01*
X421532Y323217D01*
X421324Y323365D01*
X421088Y323495D01*
X420827Y323613D01*
X420541Y323721D01*
X420231Y323819D01*
X419897Y323907D01*
X418364Y324266D01*
X417677Y324428D01*
X417078Y324590D01*
X416567Y324752D01*
X416144Y324914D01*
X415785Y325081D01*
X415466Y325257D01*
X415187Y325442D01*
X414949Y325637D01*
X414742Y325845D01*
X414562Y326069D01*
X414407Y326311D01*
X414279Y326570D01*
X414177Y326847D01*
X414104Y327143D01*
X414061Y327460D01*
X414046Y327796D01*
X414065Y328181D01*
X414122Y328543D01*
X414217Y328883D01*
X414350Y329199D01*
X414520Y329493D01*
X414729Y329765D01*
X414975Y330014D01*
X415259Y330239D01*
X415579Y330441D01*
X415931Y330615D01*
X416316Y330762D01*
X416734Y330883D01*
X417185Y330977D01*
X417668Y331044D01*
X418184Y331084D01*
X418732Y331098D01*
X419242Y331088D01*
X419721Y331058D01*
X420170Y331007D01*
X420587Y330937D01*
X420973Y330846D01*
X421329Y330736D01*
X421653Y330605D01*
X421947Y330454D01*
X422214Y330279D01*
X422461Y330075D01*
X422687Y329844D01*
X422893Y329584D01*
X423077Y329295D01*
X423241Y328978D01*
X423384Y328633D01*
X423506Y328260D01*
X421859Y327971D01*
X421784Y328208D01*
X421693Y328428D01*
X421586Y328631D01*
X421465Y328817D01*
X421328Y328987D01*
X421176Y329139D01*
X421008Y329275D01*
X420826Y329394D01*
X420626Y329498D01*
X420408Y329588D01*
X420172Y329664D01*
X419917Y329726D01*
X419644Y329774D01*
X419352Y329809D01*
X419043Y329830D01*
X418715Y329837D01*
X418356Y329829D01*
X418018Y329806D01*
X417703Y329768D01*
X417410Y329714D01*
X417138Y329645D01*
X416889Y329561D01*
X416661Y329461D01*
X416455Y329346D01*
X416272Y329216D01*
X416114Y329071D01*
X415980Y328910D01*
X415870Y328735D01*
X415785Y328545D01*
X415724Y328339D01*
X415688Y328119D01*
X415676Y327883D01*
X415694Y327611D01*
X415751Y327363D01*
X415845Y327140D01*
X415978Y326942D01*
X416145Y326763D01*
X416347Y326598D01*
X416581Y326448D01*
X416849Y326311D01*
X417204Y326175D01*
X417701Y326023D01*
X418339Y325857D01*
X419118Y325676D01*
X420252Y325409D01*
X420805Y325260D01*
X421334Y325085D01*
X421834Y324880D01*
X422301Y324643D01*
X422519Y324509D01*
X422723Y324360D01*
X422911Y324198D01*
X423085Y324021D01*
X423243Y323829D01*
X423382Y323620D01*
X423503Y323395D01*
X423606Y323154D01*
X423689Y322893D01*
X423748Y322611D01*
X423783Y322306D01*
X423795Y321980D01*
X423774Y321565D01*
X423711Y321174D01*
X423607Y320808D01*
X423461Y320465D01*
X423273Y320146D01*
X423043Y319852D01*
X422772Y319581D01*
X422459Y319335D01*
X422108Y319115D01*
X421723Y318925D01*
X421304Y318764D01*
X420851Y318632D01*
X420363Y318530D01*
X419842Y318456D01*
X419287Y318413D01*
X418697Y318398D01*
G37*
G36*
X455931Y318398D02*
X455559Y318407D01*
X455198Y318432D01*
X454849Y318476D01*
X454512Y318536D01*
X454188Y318613D01*
X453875Y318708D01*
X453575Y318820D01*
X453286Y318950D01*
X453012Y319095D01*
X452753Y319257D01*
X452510Y319434D01*
X452283Y319626D01*
X452072Y319834D01*
X451877Y320058D01*
X451698Y320298D01*
X451535Y320552D01*
X451389Y320822D01*
X451262Y321103D01*
X451156Y321397D01*
X451068Y321704D01*
X451000Y322024D01*
X450952Y322356D01*
X450922Y322700D01*
X450913Y323057D01*
X450913Y330914D01*
X452586Y330914D01*
X452586Y323198D01*
X452599Y322788D01*
X452639Y322403D01*
X452706Y322044D01*
X452800Y321711D01*
X452921Y321403D01*
X453068Y321120D01*
X453243Y320863D01*
X453444Y320631D01*
X453670Y320426D01*
X453921Y320248D01*
X454195Y320098D01*
X454493Y319974D01*
X454814Y319879D01*
X455160Y319810D01*
X455529Y319769D01*
X455923Y319755D01*
X456327Y319770D01*
X456708Y319812D01*
X457067Y319883D01*
X457402Y319982D01*
X457714Y320110D01*
X458002Y320265D01*
X458268Y320450D01*
X458511Y320662D01*
X458727Y320902D01*
X458915Y321168D01*
X459074Y321459D01*
X459204Y321778D01*
X459305Y322122D01*
X459377Y322492D01*
X459420Y322889D01*
X459435Y323311D01*
X459435Y330914D01*
X461099Y330914D01*
X461099Y323215D01*
X461089Y322847D01*
X461059Y322492D01*
X461010Y322150D01*
X460940Y321820D01*
X460851Y321504D01*
X460742Y321200D01*
X460613Y320909D01*
X460464Y320631D01*
X460297Y320368D01*
X460114Y320120D01*
X459914Y319889D01*
X459697Y319673D01*
X459465Y319474D01*
X459216Y319290D01*
X458950Y319123D01*
X458668Y318972D01*
X458372Y318837D01*
X458062Y318721D01*
X457739Y318622D01*
X457404Y318541D01*
X457055Y318479D01*
X456694Y318434D01*
X456319Y318407D01*
X455931Y318398D01*
G37*
G36*
X443488Y318398D02*
X443030Y318410D01*
X442587Y318446D01*
X442160Y318507D01*
X441748Y318592D01*
X441353Y318701D01*
X440973Y318834D01*
X440609Y318991D01*
X440261Y319173D01*
X439930Y319377D01*
X439620Y319602D01*
X439330Y319848D01*
X439061Y320115D01*
X438811Y320402D01*
X438582Y320710D01*
X438373Y321039D01*
X438185Y321389D01*
X438017Y321757D01*
X437872Y322142D01*
X437750Y322544D01*
X437649Y322962D01*
X437571Y323397D01*
X437516Y323848D01*
X437482Y324316D01*
X437471Y324800D01*
X437477Y325164D01*
X437496Y325518D01*
X437527Y325862D01*
X437571Y326196D01*
X437627Y326520D01*
X437695Y326834D01*
X437776Y327138D01*
X437869Y327432D01*
X437975Y327716D01*
X438094Y327990D01*
X438368Y328509D01*
X438691Y328987D01*
X439065Y329425D01*
X439483Y329817D01*
X439939Y330157D01*
X440181Y330307D01*
X440433Y330444D01*
X440695Y330568D01*
X440966Y330680D01*
X441246Y330778D01*
X441537Y330863D01*
X441836Y330934D01*
X442146Y330993D01*
X442465Y331039D01*
X442793Y331072D01*
X443132Y331091D01*
X443479Y331098D01*
X443962Y331086D01*
X444424Y331050D01*
X444866Y330989D01*
X445288Y330905D01*
X445689Y330797D01*
X446071Y330664D01*
X446432Y330508D01*
X446773Y330327D01*
X447092Y330123D01*
X447390Y329895D01*
X447666Y329644D01*
X447920Y329370D01*
X448152Y329073D01*
X448362Y328752D01*
X448551Y328408D01*
X448717Y328041D01*
X447132Y327516D01*
X447016Y327777D01*
X446884Y328022D01*
X446736Y328252D01*
X446572Y328466D01*
X446392Y328664D01*
X446195Y328846D01*
X445982Y329012D01*
X445752Y329162D01*
X445509Y329296D01*
X445255Y329411D01*
X444990Y329509D01*
X444713Y329589D01*
X444426Y329651D01*
X444127Y329696D01*
X443818Y329723D01*
X443497Y329731D01*
X442999Y329711D01*
X442529Y329649D01*
X442088Y329546D01*
X441675Y329402D01*
X441291Y329217D01*
X440935Y328990D01*
X440608Y328722D01*
X440309Y328413D01*
X440042Y328068D01*
X439811Y327693D01*
X439615Y327287D01*
X439455Y326851D01*
X439330Y326384D01*
X439241Y325887D01*
X439188Y325359D01*
X439170Y324800D01*
X439189Y324247D01*
X439244Y323722D01*
X439337Y323224D01*
X439467Y322754D01*
X439634Y322312D01*
X439838Y321898D01*
X440079Y321511D01*
X440357Y321152D01*
X440667Y320829D01*
X441003Y320549D01*
X441365Y320312D01*
X441753Y320118D01*
X442167Y319967D01*
X442608Y319859D01*
X443074Y319795D01*
X443567Y319773D01*
X443886Y319783D01*
X444195Y319813D01*
X444494Y319863D01*
X444783Y319933D01*
X445061Y320024D01*
X445330Y320134D01*
X445589Y320264D01*
X445838Y320415D01*
X446076Y320585D01*
X446305Y320775D01*
X446523Y320986D01*
X446731Y321217D01*
X446930Y321467D01*
X447118Y321738D01*
X447296Y322028D01*
X447464Y322339D01*
X448831Y321656D01*
X448631Y321269D01*
X448411Y320907D01*
X448172Y320568D01*
X447914Y320253D01*
X447637Y319961D01*
X447340Y319694D01*
X447025Y319450D01*
X446689Y319230D01*
X446338Y319035D01*
X445972Y318866D01*
X445593Y318723D01*
X445199Y318606D01*
X444792Y318515D01*
X444371Y318450D01*
X443937Y318411D01*
X443488Y318398D01*
G37*
G36*
X498178Y318573D02*
X496514Y318573D01*
X496514Y323688D01*
X491767Y330914D01*
X493606Y330914D01*
X497363Y325037D01*
X501103Y330914D01*
X502943Y330914D01*
X498178Y323688D01*
X498178Y318573D01*
G37*
G36*
X486710Y318573D02*
X485046Y318573D01*
X485046Y329548D01*
X480807Y329548D01*
X480807Y330914D01*
X490949Y330914D01*
X490949Y329548D01*
X486710Y329548D01*
X486710Y318573D01*
G37*
G36*
X478763Y318573D02*
X477090Y318573D01*
X477090Y330914D01*
X478763Y330914D01*
X478763Y318573D01*
G37*
G36*
X481526Y485046D02*
X476911Y485046D01*
X476911Y497387D01*
X480992Y497387D01*
X481378Y497381D01*
X481754Y497362D01*
X482118Y497332D01*
X482470Y497289D01*
X482812Y497233D01*
X483142Y497166D01*
X483462Y497086D01*
X483770Y496994D01*
X484067Y496889D01*
X484352Y496773D01*
X484627Y496644D01*
X484890Y496502D01*
X485142Y496349D01*
X485383Y496183D01*
X485613Y496005D01*
X485831Y495815D01*
X486038Y495613D01*
X486230Y495401D01*
X486410Y495178D01*
X486577Y494946D01*
X486730Y494702D01*
X486869Y494449D01*
X486996Y494185D01*
X487109Y493911D01*
X487209Y493626D01*
X487295Y493331D01*
X487368Y493026D01*
X487428Y492710D01*
X487475Y492384D01*
X487508Y492047D01*
X487528Y491701D01*
X487535Y491343D01*
X487523Y490874D01*
X487488Y490419D01*
X487430Y489978D01*
X487349Y489553D01*
X487244Y489143D01*
X487116Y488748D01*
X486965Y488367D01*
X486790Y488002D01*
X486594Y487654D01*
X486379Y487328D01*
X486144Y487022D01*
X485890Y486737D01*
X485617Y486474D01*
X485324Y486231D01*
X485011Y486009D01*
X484679Y485808D01*
X484331Y485629D01*
X483970Y485475D01*
X483596Y485344D01*
X483208Y485236D01*
X482807Y485153D01*
X482394Y485094D01*
X481967Y485058D01*
X481526Y485046D01*
G37*
%LPC*%
G36*
X481334Y486386D02*
X481668Y486395D01*
X481992Y486423D01*
X482306Y486470D01*
X482609Y486535D01*
X482902Y486619D01*
X483185Y486721D01*
X483458Y486842D01*
X483720Y486982D01*
X483970Y487139D01*
X484205Y487312D01*
X484425Y487502D01*
X484630Y487709D01*
X484820Y487931D01*
X484996Y488171D01*
X485156Y488426D01*
X485301Y488698D01*
X485431Y488985D01*
X485543Y489284D01*
X485638Y489596D01*
X485715Y489920D01*
X485776Y490257D01*
X485819Y490607D01*
X485845Y490969D01*
X485853Y491343D01*
X485833Y491900D01*
X485775Y492423D01*
X485676Y492911D01*
X485539Y493366D01*
X485362Y493786D01*
X485146Y494172D01*
X484891Y494524D01*
X484596Y494842D01*
X484264Y495125D01*
X483898Y495369D01*
X483495Y495576D01*
X483058Y495746D01*
X482586Y495877D01*
X482078Y495971D01*
X481535Y496028D01*
X480957Y496047D01*
X478584Y496047D01*
X478584Y486386D01*
X481334Y486386D01*
G37*
%LPD*%
G36*
X442677Y485046D02*
X441004Y485046D01*
X441004Y497387D01*
X446198Y497387D01*
X446703Y497372D01*
X447178Y497326D01*
X447623Y497250D01*
X448040Y497144D01*
X448427Y497007D01*
X448785Y496840D01*
X449113Y496642D01*
X449413Y496415D01*
X449679Y496159D01*
X449911Y495879D01*
X450106Y495573D01*
X450267Y495243D01*
X450391Y494888D01*
X450480Y494508D01*
X450533Y494103D01*
X450551Y493673D01*
X450533Y493246D01*
X450480Y492842D01*
X450390Y492460D01*
X450265Y492101D01*
X450105Y491764D01*
X449908Y491450D01*
X449676Y491158D01*
X449408Y490888D01*
X449110Y490646D01*
X448786Y490436D01*
X448436Y490258D01*
X448061Y490113D01*
X447660Y490000D01*
X447233Y489919D01*
X446781Y489871D01*
X446303Y489854D01*
X442677Y489854D01*
X442677Y485046D01*
G37*
%LPC*%
G36*
X446067Y491177D02*
X446406Y491187D01*
X446724Y491216D01*
X447019Y491264D01*
X447293Y491332D01*
X447545Y491419D01*
X447775Y491526D01*
X447983Y491651D01*
X448169Y491797D01*
X448333Y491961D01*
X448475Y492145D01*
X448596Y492349D01*
X448694Y492571D01*
X448771Y492813D01*
X448826Y493075D01*
X448859Y493355D01*
X448870Y493656D01*
X448858Y493945D01*
X448825Y494216D01*
X448769Y494468D01*
X448690Y494702D01*
X448589Y494917D01*
X448466Y495113D01*
X448320Y495290D01*
X448151Y495449D01*
X447961Y495589D01*
X447747Y495710D01*
X447512Y495813D01*
X447254Y495897D01*
X446973Y495963D01*
X446670Y496009D01*
X446345Y496037D01*
X445997Y496047D01*
X442677Y496047D01*
X442677Y491177D01*
X446067Y491177D01*
G37*
%LPD*%
G36*
X462695Y485046D02*
X452973Y485046D01*
X452973Y497387D01*
X462336Y497387D01*
X462336Y496020D01*
X454646Y496020D01*
X454646Y492062D01*
X461811Y492062D01*
X461811Y490713D01*
X454646Y490713D01*
X454646Y486412D01*
X462695Y486412D01*
X462695Y485046D01*
G37*
G36*
X474664Y485046D02*
X464942Y485046D01*
X464942Y497387D01*
X474305Y497387D01*
X474305Y496020D01*
X466615Y496020D01*
X466615Y492062D01*
X473779Y492062D01*
X473779Y490713D01*
X466615Y490713D01*
X466615Y486412D01*
X474664Y486412D01*
X474664Y485046D01*
G37*
G36*
X433639Y484871D02*
X433090Y484883D01*
X432570Y484920D01*
X432081Y484981D01*
X431621Y485067D01*
X431190Y485177D01*
X430789Y485312D01*
X430418Y485471D01*
X430076Y485655D01*
X429764Y485863D01*
X429482Y486096D01*
X429229Y486353D01*
X429006Y486635D01*
X428813Y486941D01*
X428649Y487271D01*
X428515Y487627D01*
X428410Y488006D01*
X430030Y488330D01*
X430110Y488062D01*
X430210Y487811D01*
X430329Y487579D01*
X430468Y487366D01*
X430627Y487171D01*
X430805Y486995D01*
X431004Y486837D01*
X431222Y486697D01*
X431459Y486575D01*
X431718Y486469D01*
X431997Y486379D01*
X432297Y486306D01*
X432617Y486249D01*
X432957Y486208D01*
X433318Y486184D01*
X433700Y486176D01*
X434094Y486185D01*
X434464Y486211D01*
X434811Y486254D01*
X435135Y486315D01*
X435436Y486393D01*
X435714Y486489D01*
X435969Y486602D01*
X436201Y486732D01*
X436407Y486879D01*
X436586Y487043D01*
X436737Y487222D01*
X436861Y487418D01*
X436957Y487631D01*
X437026Y487859D01*
X437067Y488104D01*
X437081Y488365D01*
X437064Y488653D01*
X437012Y488913D01*
X436926Y489144D01*
X436805Y489346D01*
X436653Y489527D01*
X436473Y489690D01*
X436266Y489837D01*
X436030Y489968D01*
X435768Y490086D01*
X435483Y490194D01*
X435173Y490292D01*
X434839Y490380D01*
X433306Y490739D01*
X432619Y490901D01*
X432020Y491063D01*
X431509Y491225D01*
X431086Y491387D01*
X430727Y491554D01*
X430408Y491730D01*
X430129Y491915D01*
X429890Y492110D01*
X429684Y492318D01*
X429504Y492542D01*
X429349Y492784D01*
X429220Y493043D01*
X429119Y493320D01*
X429046Y493616D01*
X429003Y493933D01*
X428988Y494269D01*
X429007Y494654D01*
X429064Y495016D01*
X429159Y495355D01*
X429291Y495672D01*
X429462Y495966D01*
X429670Y496238D01*
X429917Y496486D01*
X430201Y496712D01*
X430521Y496914D01*
X430873Y497088D01*
X431258Y497235D01*
X431676Y497356D01*
X432126Y497450D01*
X432609Y497517D01*
X433125Y497557D01*
X433674Y497571D01*
X434184Y497561D01*
X434663Y497530D01*
X435111Y497480D01*
X435529Y497410D01*
X435915Y497319D01*
X436270Y497209D01*
X436595Y497078D01*
X436888Y496927D01*
X437156Y496752D01*
X437403Y496548D01*
X437629Y496317D01*
X437834Y496057D01*
X438019Y495768D01*
X438182Y495451D01*
X438325Y495106D01*
X438447Y494733D01*
X436801Y494444D01*
X436725Y494681D01*
X436634Y494901D01*
X436528Y495104D01*
X436407Y495290D01*
X436270Y495460D01*
X436118Y495612D01*
X435950Y495748D01*
X435767Y495867D01*
X435568Y495971D01*
X435350Y496061D01*
X435113Y496137D01*
X434858Y496199D01*
X434585Y496247D01*
X434294Y496282D01*
X433984Y496303D01*
X433656Y496309D01*
X433297Y496302D01*
X432960Y496279D01*
X432645Y496241D01*
X432351Y496187D01*
X432080Y496118D01*
X431830Y496034D01*
X431603Y495934D01*
X431397Y495819D01*
X431214Y495689D01*
X431056Y495544D01*
X430922Y495383D01*
X430812Y495208D01*
X430727Y495018D01*
X430666Y494812D01*
X430629Y494592D01*
X430617Y494356D01*
X430636Y494084D01*
X430693Y493836D01*
X430787Y493613D01*
X430919Y493415D01*
X431087Y493236D01*
X431288Y493071D01*
X431523Y492920D01*
X431791Y492784D01*
X432146Y492648D01*
X432643Y492496D01*
X433280Y492330D01*
X434059Y492149D01*
X435194Y491882D01*
X435746Y491733D01*
X436275Y491558D01*
X436776Y491353D01*
X437243Y491116D01*
X437461Y490982D01*
X437665Y490833D01*
X437853Y490671D01*
X438027Y490494D01*
X438184Y490302D01*
X438324Y490093D01*
X438445Y489868D01*
X438548Y489627D01*
X438630Y489366D01*
X438689Y489084D01*
X438725Y488779D01*
X438736Y488453D01*
X438715Y488038D01*
X438653Y487647D01*
X438549Y487281D01*
X438402Y486938D01*
X438215Y486619D01*
X437985Y486325D01*
X437714Y486054D01*
X437401Y485808D01*
X437050Y485588D01*
X436665Y485398D01*
X436246Y485237D01*
X435792Y485105D01*
X435305Y485003D01*
X434784Y484929D01*
X434228Y484886D01*
X433639Y484871D01*
G37*
D10*
X547900Y432800D02*
X547900Y120900D01*
X676300Y120900D01*
X676300Y432800D02*
X547900Y432800D01*
X676300Y432800D02*
X676300Y120900D01*
X738300Y192200D02*
X738300Y361400D01*
X676700Y361400D01*
X676700Y192200D02*
X738300Y192200D01*
D11*
X542647Y222000D03*
D12*
X73300Y211550D02*
X5300Y211550D01*
X73300Y211550D02*
X73300Y153650D01*
X5300Y153650D01*
X5300Y211550D01*
X5600Y392350D02*
X73600Y392350D01*
X73600Y283650D01*
X5600Y283650D01*
X5600Y392350D01*
D13*
X152500Y410000D02*
X152500Y489000D01*
X282500Y489000D01*
X282500Y410000D01*
X152500Y410000D01*
D14*
X263500Y493500D02*
X263502Y493438D01*
X263508Y493377D01*
X263517Y493316D01*
X263530Y493256D01*
X263547Y493197D01*
X263568Y493139D01*
X263592Y493082D01*
X263619Y493027D01*
X263650Y492974D01*
X263684Y492922D01*
X263721Y492873D01*
X263761Y492826D01*
X263804Y492782D01*
X263849Y492741D01*
X263897Y492702D01*
X263948Y492666D01*
X264000Y492634D01*
X264054Y492605D01*
X264110Y492579D01*
X264168Y492557D01*
X264226Y492538D01*
X264286Y492523D01*
X264347Y492512D01*
X264408Y492504D01*
X264469Y492500D01*
X264531Y492500D01*
X264592Y492504D01*
X264653Y492512D01*
X264714Y492523D01*
X264774Y492538D01*
X264832Y492557D01*
X264890Y492579D01*
X264946Y492605D01*
X265000Y492634D01*
X265052Y492666D01*
X265103Y492702D01*
X265151Y492741D01*
X265196Y492782D01*
X265239Y492826D01*
X265279Y492873D01*
X265316Y492922D01*
X265350Y492974D01*
X265381Y493027D01*
X265408Y493082D01*
X265432Y493139D01*
X265453Y493197D01*
X265470Y493256D01*
X265483Y493316D01*
X265492Y493377D01*
X265498Y493438D01*
X265500Y493500D01*
X265498Y493562D01*
X265492Y493623D01*
X265483Y493684D01*
X265470Y493744D01*
X265453Y493803D01*
X265432Y493861D01*
X265408Y493918D01*
X265381Y493973D01*
X265350Y494026D01*
X265316Y494078D01*
X265279Y494127D01*
X265239Y494174D01*
X265196Y494218D01*
X265151Y494259D01*
X265103Y494298D01*
X265052Y494334D01*
X265000Y494366D01*
X264946Y494395D01*
X264890Y494421D01*
X264832Y494443D01*
X264774Y494462D01*
X264714Y494477D01*
X264653Y494488D01*
X264592Y494496D01*
X264531Y494500D01*
X264469Y494500D01*
X264408Y494496D01*
X264347Y494488D01*
X264286Y494477D01*
X264226Y494462D01*
X264168Y494443D01*
X264110Y494421D01*
X264054Y494395D01*
X264000Y494366D01*
X263948Y494334D01*
X263897Y494298D01*
X263849Y494259D01*
X263804Y494218D01*
X263761Y494174D01*
X263721Y494127D01*
X263684Y494078D01*
X263650Y494026D01*
X263619Y493973D01*
X263592Y493918D01*
X263568Y493861D01*
X263547Y493803D01*
X263530Y493744D01*
X263517Y493684D01*
X263508Y493623D01*
X263502Y493562D01*
X263500Y493500D01*
D13*
X152500Y143400D02*
X152500Y64400D01*
X152500Y143400D02*
X282500Y143400D01*
X282500Y64400D01*
X152500Y64400D01*
D14*
X263500Y147900D02*
X263502Y147838D01*
X263508Y147777D01*
X263517Y147716D01*
X263530Y147656D01*
X263547Y147597D01*
X263568Y147539D01*
X263592Y147482D01*
X263619Y147427D01*
X263650Y147374D01*
X263684Y147322D01*
X263721Y147273D01*
X263761Y147226D01*
X263804Y147182D01*
X263849Y147141D01*
X263897Y147102D01*
X263948Y147066D01*
X264000Y147034D01*
X264054Y147005D01*
X264110Y146979D01*
X264168Y146957D01*
X264226Y146938D01*
X264286Y146923D01*
X264347Y146912D01*
X264408Y146904D01*
X264469Y146900D01*
X264531Y146900D01*
X264592Y146904D01*
X264653Y146912D01*
X264714Y146923D01*
X264774Y146938D01*
X264832Y146957D01*
X264890Y146979D01*
X264946Y147005D01*
X265000Y147034D01*
X265052Y147066D01*
X265103Y147102D01*
X265151Y147141D01*
X265196Y147182D01*
X265239Y147226D01*
X265279Y147273D01*
X265316Y147322D01*
X265350Y147374D01*
X265381Y147427D01*
X265408Y147482D01*
X265432Y147539D01*
X265453Y147597D01*
X265470Y147656D01*
X265483Y147716D01*
X265492Y147777D01*
X265498Y147838D01*
X265500Y147900D01*
X265498Y147962D01*
X265492Y148023D01*
X265483Y148084D01*
X265470Y148144D01*
X265453Y148203D01*
X265432Y148261D01*
X265408Y148318D01*
X265381Y148373D01*
X265350Y148426D01*
X265316Y148478D01*
X265279Y148527D01*
X265239Y148574D01*
X265196Y148618D01*
X265151Y148659D01*
X265103Y148698D01*
X265052Y148734D01*
X265000Y148766D01*
X264946Y148795D01*
X264890Y148821D01*
X264832Y148843D01*
X264774Y148862D01*
X264714Y148877D01*
X264653Y148888D01*
X264592Y148896D01*
X264531Y148900D01*
X264469Y148900D01*
X264408Y148896D01*
X264347Y148888D01*
X264286Y148877D01*
X264226Y148862D01*
X264168Y148843D01*
X264110Y148821D01*
X264054Y148795D01*
X264000Y148766D01*
X263948Y148734D01*
X263897Y148698D01*
X263849Y148659D01*
X263804Y148618D01*
X263761Y148574D01*
X263721Y148527D01*
X263684Y148478D01*
X263650Y148426D01*
X263619Y148373D01*
X263592Y148318D01*
X263568Y148261D01*
X263547Y148203D01*
X263530Y148144D01*
X263517Y148084D01*
X263508Y148023D01*
X263502Y147962D01*
X263500Y147900D01*
D13*
X152500Y242750D02*
X152500Y321750D01*
X282500Y321750D01*
X282500Y242750D01*
X152500Y242750D01*
D14*
X263500Y326250D02*
X263502Y326188D01*
X263508Y326127D01*
X263517Y326066D01*
X263530Y326006D01*
X263547Y325947D01*
X263568Y325889D01*
X263592Y325832D01*
X263619Y325777D01*
X263650Y325724D01*
X263684Y325672D01*
X263721Y325623D01*
X263761Y325576D01*
X263804Y325532D01*
X263849Y325491D01*
X263897Y325452D01*
X263948Y325416D01*
X264000Y325384D01*
X264054Y325355D01*
X264110Y325329D01*
X264168Y325307D01*
X264226Y325288D01*
X264286Y325273D01*
X264347Y325262D01*
X264408Y325254D01*
X264469Y325250D01*
X264531Y325250D01*
X264592Y325254D01*
X264653Y325262D01*
X264714Y325273D01*
X264774Y325288D01*
X264832Y325307D01*
X264890Y325329D01*
X264946Y325355D01*
X265000Y325384D01*
X265052Y325416D01*
X265103Y325452D01*
X265151Y325491D01*
X265196Y325532D01*
X265239Y325576D01*
X265279Y325623D01*
X265316Y325672D01*
X265350Y325724D01*
X265381Y325777D01*
X265408Y325832D01*
X265432Y325889D01*
X265453Y325947D01*
X265470Y326006D01*
X265483Y326066D01*
X265492Y326127D01*
X265498Y326188D01*
X265500Y326250D01*
X265498Y326312D01*
X265492Y326373D01*
X265483Y326434D01*
X265470Y326494D01*
X265453Y326553D01*
X265432Y326611D01*
X265408Y326668D01*
X265381Y326723D01*
X265350Y326776D01*
X265316Y326828D01*
X265279Y326877D01*
X265239Y326924D01*
X265196Y326968D01*
X265151Y327009D01*
X265103Y327048D01*
X265052Y327084D01*
X265000Y327116D01*
X264946Y327145D01*
X264890Y327171D01*
X264832Y327193D01*
X264774Y327212D01*
X264714Y327227D01*
X264653Y327238D01*
X264592Y327246D01*
X264531Y327250D01*
X264469Y327250D01*
X264408Y327246D01*
X264347Y327238D01*
X264286Y327227D01*
X264226Y327212D01*
X264168Y327193D01*
X264110Y327171D01*
X264054Y327145D01*
X264000Y327116D01*
X263948Y327084D01*
X263897Y327048D01*
X263849Y327009D01*
X263804Y326968D01*
X263761Y326924D01*
X263721Y326877D01*
X263684Y326828D01*
X263650Y326776D01*
X263619Y326723D01*
X263592Y326668D01*
X263568Y326611D01*
X263547Y326553D01*
X263530Y326494D01*
X263517Y326434D01*
X263508Y326373D01*
X263502Y326312D01*
X263500Y326250D01*
D10*
X429750Y103000D02*
X429758Y103691D01*
X429784Y104381D01*
X429826Y105071D01*
X429885Y105759D01*
X429961Y106446D01*
X430054Y107131D01*
X430163Y107813D01*
X430289Y108493D01*
X430432Y109169D01*
X430591Y109841D01*
X430766Y110509D01*
X430958Y111173D01*
X431166Y111832D01*
X431390Y112486D01*
X431630Y113134D01*
X431886Y113776D01*
X432157Y114411D01*
X432444Y115040D01*
X432746Y115661D01*
X433063Y116275D01*
X433395Y116881D01*
X433742Y117479D01*
X434104Y118067D01*
X434479Y118647D01*
X434869Y119218D01*
X435273Y119779D01*
X435690Y120330D01*
X436120Y120870D01*
X436564Y121400D01*
X437020Y121919D01*
X437489Y122426D01*
X437971Y122922D01*
X438464Y123406D01*
X438969Y123878D01*
X439485Y124337D01*
X440012Y124783D01*
X440551Y125217D01*
X441099Y125637D01*
X441658Y126043D01*
X442226Y126436D01*
X442804Y126815D01*
X443391Y127179D01*
X443987Y127529D01*
X444591Y127865D01*
X445203Y128185D01*
X445823Y128491D01*
X446450Y128781D01*
X447084Y129056D01*
X447725Y129315D01*
X448371Y129558D01*
X449024Y129786D01*
X449681Y129997D01*
X450344Y130193D01*
X451012Y130372D01*
X451683Y130535D01*
X452358Y130681D01*
X453037Y130811D01*
X453719Y130924D01*
X454403Y131020D01*
X455089Y131100D01*
X455777Y131162D01*
X456467Y131208D01*
X457157Y131237D01*
X457848Y131250D01*
X458539Y131245D01*
X459230Y131223D01*
X459920Y131185D01*
X460608Y131129D01*
X461295Y131057D01*
X461981Y130968D01*
X462664Y130862D01*
X463344Y130740D01*
X464020Y130601D01*
X464694Y130446D01*
X465363Y130274D01*
X466028Y130085D01*
X466688Y129881D01*
X467343Y129660D01*
X467992Y129424D01*
X468635Y129172D01*
X469272Y128904D01*
X469902Y128620D01*
X470525Y128322D01*
X471141Y128008D01*
X471748Y127679D01*
X472348Y127335D01*
X472939Y126977D01*
X473521Y126604D01*
X474093Y126218D01*
X474656Y125817D01*
X475210Y125403D01*
X475752Y124975D01*
X476284Y124535D01*
X476806Y124081D01*
X477316Y123615D01*
X477814Y123136D01*
X478301Y122646D01*
X478775Y122143D01*
X479237Y121629D01*
X479686Y121104D01*
X480122Y120569D01*
X480546Y120022D01*
X480955Y119466D01*
X481351Y118900D01*
X481733Y118324D01*
X482101Y117739D01*
X482454Y117145D01*
X482792Y116542D01*
X483116Y115932D01*
X483425Y115314D01*
X483425Y90686D02*
X483116Y90068D01*
X482792Y89458D01*
X482454Y88855D01*
X482101Y88261D01*
X481733Y87676D01*
X481351Y87100D01*
X480955Y86534D01*
X480546Y85978D01*
X480122Y85431D01*
X479686Y84896D01*
X479237Y84371D01*
X478775Y83857D01*
X478301Y83354D01*
X477814Y82864D01*
X477316Y82385D01*
X476806Y81919D01*
X476284Y81465D01*
X475752Y81025D01*
X475210Y80597D01*
X474656Y80183D01*
X474093Y79782D01*
X473521Y79396D01*
X472939Y79023D01*
X472348Y78665D01*
X471748Y78321D01*
X471141Y77992D01*
X470525Y77678D01*
X469902Y77380D01*
X469272Y77096D01*
X468635Y76828D01*
X467992Y76576D01*
X467343Y76340D01*
X466688Y76119D01*
X466028Y75915D01*
X465363Y75726D01*
X464694Y75554D01*
X464020Y75399D01*
X463344Y75260D01*
X462664Y75138D01*
X461981Y75032D01*
X461295Y74943D01*
X460608Y74871D01*
X459920Y74815D01*
X459230Y74777D01*
X458539Y74755D01*
X457848Y74750D01*
X457157Y74763D01*
X456467Y74792D01*
X455777Y74838D01*
X455089Y74900D01*
X454403Y74980D01*
X453719Y75076D01*
X453037Y75189D01*
X452358Y75319D01*
X451683Y75465D01*
X451012Y75628D01*
X450344Y75807D01*
X449681Y76003D01*
X449024Y76214D01*
X448371Y76442D01*
X447725Y76685D01*
X447084Y76944D01*
X446450Y77219D01*
X445823Y77509D01*
X445203Y77815D01*
X444591Y78135D01*
X443987Y78471D01*
X443391Y78821D01*
X442804Y79185D01*
X442226Y79564D01*
X441658Y79957D01*
X441099Y80363D01*
X440551Y80783D01*
X440012Y81217D01*
X439485Y81663D01*
X438969Y82122D01*
X438464Y82594D01*
X437971Y83078D01*
X437489Y83574D01*
X437020Y84081D01*
X436564Y84600D01*
X436120Y85130D01*
X435690Y85670D01*
X435273Y86221D01*
X434869Y86782D01*
X434479Y87353D01*
X434104Y87933D01*
X433742Y88521D01*
X433395Y89119D01*
X433063Y89725D01*
X432746Y90339D01*
X432444Y90960D01*
X432157Y91589D01*
X431886Y92224D01*
X431630Y92866D01*
X431390Y93514D01*
X431166Y94168D01*
X430958Y94827D01*
X430766Y95491D01*
X430591Y96159D01*
X430432Y96831D01*
X430289Y97507D01*
X430163Y98187D01*
X430054Y98869D01*
X429961Y99554D01*
X429885Y100241D01*
X429826Y100929D01*
X429784Y101619D01*
X429758Y102309D01*
X429750Y103000D01*
X483425Y115314D02*
X483425Y90686D01*
X439554Y128946D02*
X432054Y128946D01*
X435804Y132696D02*
X435804Y125196D01*
D15*
X346362Y438850D02*
X346362Y459150D01*
X346362Y438850D02*
X389562Y438850D01*
X389562Y459150D01*
X346362Y459150D01*
X346362Y449000D02*
X340602Y449000D01*
X389562Y449000D02*
X395322Y449000D01*
X346362Y293400D02*
X346362Y273100D01*
X389562Y273100D01*
X389562Y293400D01*
X346362Y293400D01*
X346362Y283250D02*
X340602Y283250D01*
X389562Y283250D02*
X395322Y283250D01*
X346362Y114050D02*
X346362Y93750D01*
X389562Y93750D01*
X389562Y114050D01*
X346362Y114050D01*
X346362Y103900D02*
X340602Y103900D01*
X389562Y103900D02*
X395322Y103900D01*
X389562Y345650D02*
X389562Y365950D01*
X346362Y365950D01*
X346362Y345650D01*
X389562Y345650D01*
X389562Y355800D02*
X395322Y355800D01*
X346362Y355800D02*
X340602Y355800D01*
D10*
X429750Y282527D02*
X429758Y283218D01*
X429784Y283908D01*
X429826Y284598D01*
X429885Y285286D01*
X429961Y285973D01*
X430054Y286658D01*
X430163Y287340D01*
X430289Y288020D01*
X430432Y288696D01*
X430591Y289368D01*
X430766Y290036D01*
X430958Y290700D01*
X431166Y291359D01*
X431390Y292013D01*
X431630Y292661D01*
X431886Y293303D01*
X432157Y293938D01*
X432444Y294567D01*
X432746Y295188D01*
X433063Y295802D01*
X433395Y296408D01*
X433742Y297006D01*
X434104Y297594D01*
X434479Y298174D01*
X434869Y298745D01*
X435273Y299306D01*
X435690Y299857D01*
X436120Y300397D01*
X436564Y300927D01*
X437020Y301446D01*
X437489Y301953D01*
X437971Y302449D01*
X438464Y302933D01*
X438969Y303405D01*
X439485Y303864D01*
X440012Y304310D01*
X440551Y304744D01*
X441099Y305164D01*
X441658Y305570D01*
X442226Y305963D01*
X442804Y306342D01*
X443391Y306706D01*
X443987Y307056D01*
X444591Y307392D01*
X445203Y307712D01*
X445823Y308018D01*
X446450Y308308D01*
X447084Y308583D01*
X447725Y308842D01*
X448371Y309085D01*
X449024Y309313D01*
X449681Y309524D01*
X450344Y309720D01*
X451012Y309899D01*
X451683Y310062D01*
X452358Y310208D01*
X453037Y310338D01*
X453719Y310451D01*
X454403Y310547D01*
X455089Y310627D01*
X455777Y310689D01*
X456467Y310735D01*
X457157Y310764D01*
X457848Y310777D01*
X458539Y310772D01*
X459230Y310750D01*
X459920Y310712D01*
X460608Y310656D01*
X461295Y310584D01*
X461981Y310495D01*
X462664Y310389D01*
X463344Y310267D01*
X464020Y310128D01*
X464694Y309973D01*
X465363Y309801D01*
X466028Y309612D01*
X466688Y309408D01*
X467343Y309187D01*
X467992Y308951D01*
X468635Y308699D01*
X469272Y308431D01*
X469902Y308147D01*
X470525Y307849D01*
X471141Y307535D01*
X471748Y307206D01*
X472348Y306862D01*
X472939Y306504D01*
X473521Y306131D01*
X474093Y305745D01*
X474656Y305344D01*
X475210Y304930D01*
X475752Y304502D01*
X476284Y304062D01*
X476806Y303608D01*
X477316Y303142D01*
X477814Y302663D01*
X478301Y302173D01*
X478775Y301670D01*
X479237Y301156D01*
X479686Y300631D01*
X480122Y300096D01*
X480546Y299549D01*
X480955Y298993D01*
X481351Y298427D01*
X481733Y297851D01*
X482101Y297266D01*
X482454Y296672D01*
X482792Y296069D01*
X483116Y295459D01*
X483425Y294841D01*
X483425Y270213D02*
X483116Y269595D01*
X482792Y268985D01*
X482454Y268382D01*
X482101Y267788D01*
X481733Y267203D01*
X481351Y266627D01*
X480955Y266061D01*
X480546Y265505D01*
X480122Y264958D01*
X479686Y264423D01*
X479237Y263898D01*
X478775Y263384D01*
X478301Y262881D01*
X477814Y262391D01*
X477316Y261912D01*
X476806Y261446D01*
X476284Y260992D01*
X475752Y260552D01*
X475210Y260124D01*
X474656Y259710D01*
X474093Y259309D01*
X473521Y258923D01*
X472939Y258550D01*
X472348Y258192D01*
X471748Y257848D01*
X471141Y257519D01*
X470525Y257205D01*
X469902Y256907D01*
X469272Y256623D01*
X468635Y256355D01*
X467992Y256103D01*
X467343Y255867D01*
X466688Y255646D01*
X466028Y255442D01*
X465363Y255253D01*
X464694Y255081D01*
X464020Y254926D01*
X463344Y254787D01*
X462664Y254665D01*
X461981Y254559D01*
X461295Y254470D01*
X460608Y254398D01*
X459920Y254342D01*
X459230Y254304D01*
X458539Y254282D01*
X457848Y254277D01*
X457157Y254290D01*
X456467Y254319D01*
X455777Y254365D01*
X455089Y254427D01*
X454403Y254507D01*
X453719Y254603D01*
X453037Y254716D01*
X452358Y254846D01*
X451683Y254992D01*
X451012Y255155D01*
X450344Y255334D01*
X449681Y255530D01*
X449024Y255741D01*
X448371Y255969D01*
X447725Y256212D01*
X447084Y256471D01*
X446450Y256746D01*
X445823Y257036D01*
X445203Y257342D01*
X444591Y257662D01*
X443987Y257998D01*
X443391Y258348D01*
X442804Y258712D01*
X442226Y259091D01*
X441658Y259484D01*
X441099Y259890D01*
X440551Y260310D01*
X440012Y260744D01*
X439485Y261190D01*
X438969Y261649D01*
X438464Y262121D01*
X437971Y262605D01*
X437489Y263101D01*
X437020Y263608D01*
X436564Y264127D01*
X436120Y264657D01*
X435690Y265197D01*
X435273Y265748D01*
X434869Y266309D01*
X434479Y266880D01*
X434104Y267460D01*
X433742Y268048D01*
X433395Y268646D01*
X433063Y269252D01*
X432746Y269866D01*
X432444Y270487D01*
X432157Y271116D01*
X431886Y271751D01*
X431630Y272393D01*
X431390Y273041D01*
X431166Y273695D01*
X430958Y274354D01*
X430766Y275018D01*
X430591Y275686D01*
X430432Y276358D01*
X430289Y277034D01*
X430163Y277714D01*
X430054Y278396D01*
X429961Y279081D01*
X429885Y279768D01*
X429826Y280456D01*
X429784Y281146D01*
X429758Y281836D01*
X429750Y282527D01*
X483425Y294841D02*
X483425Y270213D01*
X439554Y308473D02*
X432054Y308473D01*
X435804Y312223D02*
X435804Y304723D01*
X429750Y449000D02*
X429758Y449691D01*
X429784Y450381D01*
X429826Y451071D01*
X429885Y451759D01*
X429961Y452446D01*
X430054Y453131D01*
X430163Y453813D01*
X430289Y454493D01*
X430432Y455169D01*
X430591Y455841D01*
X430766Y456509D01*
X430958Y457173D01*
X431166Y457832D01*
X431390Y458486D01*
X431630Y459134D01*
X431886Y459776D01*
X432157Y460411D01*
X432444Y461040D01*
X432746Y461661D01*
X433063Y462275D01*
X433395Y462881D01*
X433742Y463479D01*
X434104Y464067D01*
X434479Y464647D01*
X434869Y465218D01*
X435273Y465779D01*
X435690Y466330D01*
X436120Y466870D01*
X436564Y467400D01*
X437020Y467919D01*
X437489Y468426D01*
X437971Y468922D01*
X438464Y469406D01*
X438969Y469878D01*
X439485Y470337D01*
X440012Y470783D01*
X440551Y471217D01*
X441099Y471637D01*
X441658Y472043D01*
X442226Y472436D01*
X442804Y472815D01*
X443391Y473179D01*
X443987Y473529D01*
X444591Y473865D01*
X445203Y474185D01*
X445823Y474491D01*
X446450Y474781D01*
X447084Y475056D01*
X447725Y475315D01*
X448371Y475558D01*
X449024Y475786D01*
X449681Y475997D01*
X450344Y476193D01*
X451012Y476372D01*
X451683Y476535D01*
X452358Y476681D01*
X453037Y476811D01*
X453719Y476924D01*
X454403Y477020D01*
X455089Y477100D01*
X455777Y477162D01*
X456467Y477208D01*
X457157Y477237D01*
X457848Y477250D01*
X458539Y477245D01*
X459230Y477223D01*
X459920Y477185D01*
X460608Y477129D01*
X461295Y477057D01*
X461981Y476968D01*
X462664Y476862D01*
X463344Y476740D01*
X464020Y476601D01*
X464694Y476446D01*
X465363Y476274D01*
X466028Y476085D01*
X466688Y475881D01*
X467343Y475660D01*
X467992Y475424D01*
X468635Y475172D01*
X469272Y474904D01*
X469902Y474620D01*
X470525Y474322D01*
X471141Y474008D01*
X471748Y473679D01*
X472348Y473335D01*
X472939Y472977D01*
X473521Y472604D01*
X474093Y472218D01*
X474656Y471817D01*
X475210Y471403D01*
X475752Y470975D01*
X476284Y470535D01*
X476806Y470081D01*
X477316Y469615D01*
X477814Y469136D01*
X478301Y468646D01*
X478775Y468143D01*
X479237Y467629D01*
X479686Y467104D01*
X480122Y466569D01*
X480546Y466022D01*
X480955Y465466D01*
X481351Y464900D01*
X481733Y464324D01*
X482101Y463739D01*
X482454Y463145D01*
X482792Y462542D01*
X483116Y461932D01*
X483425Y461314D01*
X483425Y436686D02*
X483116Y436068D01*
X482792Y435458D01*
X482454Y434855D01*
X482101Y434261D01*
X481733Y433676D01*
X481351Y433100D01*
X480955Y432534D01*
X480546Y431978D01*
X480122Y431431D01*
X479686Y430896D01*
X479237Y430371D01*
X478775Y429857D01*
X478301Y429354D01*
X477814Y428864D01*
X477316Y428385D01*
X476806Y427919D01*
X476284Y427465D01*
X475752Y427025D01*
X475210Y426597D01*
X474656Y426183D01*
X474093Y425782D01*
X473521Y425396D01*
X472939Y425023D01*
X472348Y424665D01*
X471748Y424321D01*
X471141Y423992D01*
X470525Y423678D01*
X469902Y423380D01*
X469272Y423096D01*
X468635Y422828D01*
X467992Y422576D01*
X467343Y422340D01*
X466688Y422119D01*
X466028Y421915D01*
X465363Y421726D01*
X464694Y421554D01*
X464020Y421399D01*
X463344Y421260D01*
X462664Y421138D01*
X461981Y421032D01*
X461295Y420943D01*
X460608Y420871D01*
X459920Y420815D01*
X459230Y420777D01*
X458539Y420755D01*
X457848Y420750D01*
X457157Y420763D01*
X456467Y420792D01*
X455777Y420838D01*
X455089Y420900D01*
X454403Y420980D01*
X453719Y421076D01*
X453037Y421189D01*
X452358Y421319D01*
X451683Y421465D01*
X451012Y421628D01*
X450344Y421807D01*
X449681Y422003D01*
X449024Y422214D01*
X448371Y422442D01*
X447725Y422685D01*
X447084Y422944D01*
X446450Y423219D01*
X445823Y423509D01*
X445203Y423815D01*
X444591Y424135D01*
X443987Y424471D01*
X443391Y424821D01*
X442804Y425185D01*
X442226Y425564D01*
X441658Y425957D01*
X441099Y426363D01*
X440551Y426783D01*
X440012Y427217D01*
X439485Y427663D01*
X438969Y428122D01*
X438464Y428594D01*
X437971Y429078D01*
X437489Y429574D01*
X437020Y430081D01*
X436564Y430600D01*
X436120Y431130D01*
X435690Y431670D01*
X435273Y432221D01*
X434869Y432782D01*
X434479Y433353D01*
X434104Y433933D01*
X433742Y434521D01*
X433395Y435119D01*
X433063Y435725D01*
X432746Y436339D01*
X432444Y436960D01*
X432157Y437589D01*
X431886Y438224D01*
X431630Y438866D01*
X431390Y439514D01*
X431166Y440168D01*
X430958Y440827D01*
X430766Y441491D01*
X430591Y442159D01*
X430432Y442831D01*
X430289Y443507D01*
X430163Y444187D01*
X430054Y444869D01*
X429961Y445554D01*
X429885Y446241D01*
X429826Y446929D01*
X429784Y447619D01*
X429758Y448309D01*
X429750Y449000D01*
X483425Y461314D02*
X483425Y436686D01*
X439554Y474946D02*
X432054Y474946D01*
X435804Y478696D02*
X435804Y471196D01*
M02*
