G04 EAGLE Gerber RS-274X export*
G75*
%MOMM*%
%FSLAX34Y34*%
%LPD*%
%INSoldermask Top*%
%IPPOS*%
%AMOC8*
5,1,8,0,0,1.08239X$1,22.5*%
G01*
G04 Define Apertures*
%ADD10C,4.203200*%
%ADD11R,1.763200X1.763200*%
%ADD12C,1.763200*%
%ADD13C,4.389200*%
%ADD14C,2.003200*%
%ADD15C,2.903200*%
%ADD16C,1.784200*%
%ADD17C,1.463200*%
D10*
X65400Y489900D03*
X65400Y61600D03*
X608800Y61600D03*
X608800Y489900D03*
D11*
X567100Y222000D03*
D12*
X567100Y249400D03*
X567100Y276800D03*
X567100Y304200D03*
X567100Y331600D03*
X595500Y235700D03*
X595500Y263100D03*
X595500Y290500D03*
X595500Y317900D03*
D13*
X581300Y401800D03*
X581300Y151900D03*
D14*
X39300Y169900D03*
X39300Y195300D03*
X39600Y299900D03*
X39600Y376100D03*
X39600Y350700D03*
X39600Y325300D03*
D15*
X264500Y449500D03*
X217500Y449500D03*
X170500Y449500D03*
X264500Y103900D03*
X217500Y103900D03*
X170500Y103900D03*
X264500Y282250D03*
X217500Y282250D03*
X170500Y282250D03*
D16*
X445300Y103000D03*
X470700Y103000D03*
D17*
X331762Y449000D03*
X404162Y449000D03*
X331762Y283250D03*
X404162Y283250D03*
X331762Y103900D03*
X404162Y103900D03*
X404162Y355800D03*
X331762Y355800D03*
D16*
X445300Y282527D03*
X470700Y282527D03*
X445300Y449000D03*
X470700Y449000D03*
M02*
