G04 EAGLE Gerber RS-274X export*
G75*
%MOMM*%
%FSLAX34Y34*%
%LPD*%
%INSilkscreen Top*%
%IPPOS*%
%AMOC8*
5,1,8,0,0,1.08239X$1,22.5*%
G01*
G04 Define Apertures*
%ADD10C,0.120000*%
%ADD11C,0.500000*%
%ADD12C,0.152400*%
%ADD13C,0.100000*%
%ADD14C,0.200000*%
%ADD15C,0.127000*%
%ADD16C,0.400000*%
G36*
X508121Y263019D02*
X507755Y263025D01*
X507399Y263044D01*
X507054Y263076D01*
X506719Y263120D01*
X506394Y263177D01*
X506078Y263247D01*
X505773Y263329D01*
X505479Y263425D01*
X505194Y263532D01*
X504919Y263653D01*
X504655Y263786D01*
X504400Y263932D01*
X503922Y264261D01*
X503484Y264642D01*
X503092Y265068D01*
X502916Y265295D01*
X502752Y265533D01*
X502602Y265781D01*
X502465Y266038D01*
X502341Y266306D01*
X502230Y266583D01*
X502132Y266870D01*
X502047Y267168D01*
X501975Y267475D01*
X501917Y267792D01*
X501871Y268119D01*
X501838Y268456D01*
X501819Y268803D01*
X501812Y269160D01*
X501824Y269624D01*
X501859Y270072D01*
X501918Y270505D01*
X502000Y270922D01*
X502105Y271323D01*
X502234Y271709D01*
X502387Y272079D01*
X502562Y272433D01*
X502761Y272769D01*
X502980Y273085D01*
X503221Y273381D01*
X503483Y273656D01*
X503766Y273911D01*
X504070Y274145D01*
X504396Y274359D01*
X504743Y274552D01*
X505108Y274724D01*
X505490Y274872D01*
X505888Y274998D01*
X506302Y275101D01*
X506733Y275182D01*
X507179Y275239D01*
X507642Y275273D01*
X508121Y275285D01*
X508598Y275273D01*
X509060Y275238D01*
X509507Y275180D01*
X509939Y275099D01*
X510356Y274995D01*
X510758Y274867D01*
X511144Y274717D01*
X511516Y274543D01*
X511870Y274348D01*
X512202Y274132D01*
X512513Y273896D01*
X512804Y273641D01*
X513073Y273365D01*
X513321Y273068D01*
X513548Y272752D01*
X513753Y272415D01*
X513936Y272061D01*
X514095Y271691D01*
X514229Y271305D01*
X514339Y270904D01*
X514424Y270487D01*
X514485Y270055D01*
X514522Y269607D01*
X514534Y269143D01*
X514522Y268675D01*
X514486Y268224D01*
X514426Y267788D01*
X514341Y267369D01*
X514233Y266967D01*
X514100Y266581D01*
X513943Y266211D01*
X513762Y265857D01*
X513558Y265522D01*
X513333Y265207D01*
X513086Y264913D01*
X512818Y264639D01*
X512528Y264385D01*
X512217Y264152D01*
X511884Y263939D01*
X511529Y263747D01*
X511156Y263576D01*
X510768Y263428D01*
X510365Y263303D01*
X509947Y263201D01*
X509513Y263121D01*
X509064Y263064D01*
X508600Y263030D01*
X508121Y263019D01*
G37*
%LPC*%
G36*
X508121Y264721D02*
X508687Y264739D01*
X509223Y264794D01*
X509729Y264886D01*
X510205Y265014D01*
X510652Y265178D01*
X511068Y265380D01*
X511454Y265618D01*
X511810Y265892D01*
X512130Y266199D01*
X512407Y266535D01*
X512641Y266898D01*
X512833Y267290D01*
X512982Y267711D01*
X513089Y268160D01*
X513153Y268637D01*
X513174Y269143D01*
X513154Y269663D01*
X513092Y270151D01*
X512989Y270608D01*
X512844Y271035D01*
X512659Y271430D01*
X512432Y271794D01*
X512163Y272127D01*
X511854Y272429D01*
X511507Y272697D01*
X511125Y272930D01*
X510710Y273126D01*
X510260Y273287D01*
X509777Y273413D01*
X509259Y273502D01*
X508707Y273556D01*
X508121Y273574D01*
X507559Y273556D01*
X507029Y273502D01*
X506529Y273411D01*
X506061Y273285D01*
X505624Y273123D01*
X505217Y272925D01*
X504842Y272690D01*
X504497Y272420D01*
X504189Y272117D01*
X503921Y271784D01*
X503695Y271421D01*
X503510Y271028D01*
X503366Y270606D01*
X503263Y270154D01*
X503202Y269672D01*
X503181Y269160D01*
X503201Y268645D01*
X503262Y268159D01*
X503364Y267704D01*
X503506Y267278D01*
X503688Y266883D01*
X503911Y266518D01*
X504175Y266184D01*
X504479Y265879D01*
X504820Y265608D01*
X505194Y265372D01*
X505600Y265173D01*
X506039Y265010D01*
X506510Y264884D01*
X507015Y264793D01*
X507551Y264739D01*
X508121Y264721D01*
G37*
%LPD*%
G36*
X514359Y223673D02*
X501996Y223673D01*
X501996Y228876D01*
X502012Y229381D01*
X502057Y229857D01*
X502133Y230303D01*
X502240Y230720D01*
X502377Y231108D01*
X502544Y231467D01*
X502742Y231796D01*
X502970Y232096D01*
X503226Y232363D01*
X503507Y232595D01*
X503813Y232791D01*
X504144Y232951D01*
X504500Y233076D01*
X504880Y233165D01*
X505286Y233219D01*
X505717Y233236D01*
X506144Y233218D01*
X506549Y233165D01*
X506931Y233075D01*
X507291Y232950D01*
X507629Y232789D01*
X507944Y232592D01*
X508237Y232360D01*
X508507Y232091D01*
X508749Y231792D01*
X508960Y231468D01*
X509138Y231117D01*
X509283Y230741D01*
X509396Y230340D01*
X509477Y229912D01*
X509526Y229460D01*
X509542Y228981D01*
X509542Y225349D01*
X514359Y225349D01*
X514359Y223673D01*
G37*
%LPC*%
G36*
X508217Y225349D02*
X508217Y228744D01*
X508207Y229084D01*
X508178Y229402D01*
X508130Y229698D01*
X508062Y229973D01*
X507975Y230225D01*
X507868Y230455D01*
X507742Y230663D01*
X507596Y230850D01*
X507431Y231014D01*
X507247Y231157D01*
X507044Y231278D01*
X506820Y231376D01*
X506578Y231453D01*
X506316Y231508D01*
X506035Y231541D01*
X505734Y231552D01*
X505444Y231541D01*
X505173Y231507D01*
X504920Y231451D01*
X504686Y231372D01*
X504471Y231271D01*
X504275Y231147D01*
X504097Y231001D01*
X503938Y230832D01*
X503797Y230641D01*
X503676Y230428D01*
X503573Y230192D01*
X503489Y229933D01*
X503423Y229652D01*
X503376Y229348D01*
X503348Y229022D01*
X503339Y228674D01*
X503339Y225349D01*
X508217Y225349D01*
G37*
%LPD*%
G36*
X505971Y213072D02*
X505499Y213089D01*
X505053Y213140D01*
X504633Y213225D01*
X504239Y213344D01*
X503871Y213497D01*
X503529Y213684D01*
X503213Y213905D01*
X502922Y214160D01*
X502662Y214446D01*
X502437Y214758D01*
X502246Y215096D01*
X502090Y215461D01*
X501968Y215853D01*
X501882Y216271D01*
X501830Y216716D01*
X501812Y217187D01*
X501818Y217441D01*
X501836Y217687D01*
X501908Y218156D01*
X502027Y218593D01*
X502194Y218999D01*
X502409Y219374D01*
X502671Y219718D01*
X502981Y220030D01*
X503339Y220311D01*
X503745Y220560D01*
X504198Y220775D01*
X504700Y220958D01*
X505249Y221107D01*
X505847Y221223D01*
X506493Y221306D01*
X507186Y221356D01*
X507928Y221372D01*
X508701Y221354D01*
X509428Y221300D01*
X510109Y221209D01*
X510744Y221082D01*
X511333Y220918D01*
X511876Y220719D01*
X512373Y220482D01*
X512823Y220210D01*
X513224Y219904D01*
X513572Y219567D01*
X513866Y219199D01*
X514107Y218801D01*
X514294Y218371D01*
X514367Y218145D01*
X514427Y217911D01*
X514474Y217669D01*
X514507Y217420D01*
X514528Y217163D01*
X514534Y216898D01*
X514525Y216545D01*
X514496Y216210D01*
X514448Y215893D01*
X514382Y215594D01*
X514296Y215313D01*
X514191Y215050D01*
X514067Y214804D01*
X513924Y214577D01*
X513760Y214367D01*
X513573Y214172D01*
X513362Y213992D01*
X513127Y213828D01*
X512869Y213680D01*
X512588Y213547D01*
X512283Y213429D01*
X511955Y213327D01*
X511718Y214836D01*
X512080Y214972D01*
X512393Y215144D01*
X512659Y215352D01*
X512876Y215595D01*
X513045Y215874D01*
X513166Y216188D01*
X513238Y216538D01*
X513256Y216727D01*
X513262Y216924D01*
X513242Y217255D01*
X513183Y217566D01*
X513084Y217858D01*
X512946Y218131D01*
X512769Y218384D01*
X512551Y218619D01*
X512295Y218834D01*
X511999Y219030D01*
X511666Y219205D01*
X511299Y219358D01*
X510899Y219489D01*
X510465Y219598D01*
X509998Y219684D01*
X509496Y219749D01*
X508961Y219791D01*
X508393Y219811D01*
X508585Y219715D01*
X508768Y219604D01*
X508941Y219477D01*
X509104Y219335D01*
X509258Y219177D01*
X509402Y219003D01*
X509536Y218814D01*
X509660Y218609D01*
X509772Y218393D01*
X509870Y218173D01*
X509952Y217947D01*
X510019Y217716D01*
X510071Y217480D01*
X510109Y217238D01*
X510131Y216992D01*
X510139Y216740D01*
X510121Y216334D01*
X510067Y215948D01*
X509978Y215583D01*
X509853Y215240D01*
X509693Y214917D01*
X509497Y214614D01*
X509265Y214333D01*
X508998Y214073D01*
X508701Y213838D01*
X508381Y213635D01*
X508038Y213463D01*
X507671Y213323D01*
X507281Y213213D01*
X506868Y213135D01*
X506431Y213088D01*
X505971Y213072D01*
G37*
%LPC*%
G36*
X505971Y214678D02*
X506300Y214688D01*
X506611Y214719D01*
X506905Y214771D01*
X507181Y214843D01*
X507439Y214935D01*
X507679Y215048D01*
X507902Y215182D01*
X508107Y215336D01*
X508291Y215508D01*
X508451Y215694D01*
X508586Y215895D01*
X508696Y216110D01*
X508782Y216340D01*
X508844Y216585D01*
X508880Y216844D01*
X508893Y217117D01*
X508873Y217453D01*
X508815Y217777D01*
X508717Y218089D01*
X508581Y218389D01*
X508409Y218668D01*
X508205Y218915D01*
X507968Y219131D01*
X507699Y219315D01*
X507404Y219463D01*
X507090Y219568D01*
X506755Y219632D01*
X506401Y219653D01*
X506037Y219642D01*
X505692Y219610D01*
X505364Y219557D01*
X505055Y219482D01*
X504764Y219385D01*
X504492Y219268D01*
X504237Y219129D01*
X504001Y218968D01*
X503788Y218790D01*
X503604Y218597D01*
X503448Y218390D01*
X503320Y218168D01*
X503221Y217931D01*
X503150Y217680D01*
X503107Y217415D01*
X503093Y217135D01*
X503105Y216857D01*
X503142Y216595D01*
X503202Y216347D01*
X503287Y216115D01*
X503397Y215898D01*
X503530Y215695D01*
X503688Y215508D01*
X503870Y215336D01*
X504072Y215182D01*
X504292Y215048D01*
X504529Y214935D01*
X504783Y214843D01*
X505055Y214771D01*
X505343Y214719D01*
X505648Y214688D01*
X505971Y214678D01*
G37*
%LPD*%
G36*
X514359Y240673D02*
X501996Y240673D01*
X501996Y242621D01*
X512595Y249306D01*
X511112Y249227D01*
X510103Y249201D01*
X501996Y249201D01*
X501996Y250710D01*
X514359Y250710D01*
X514359Y248692D01*
X503830Y242077D01*
X504681Y242121D01*
X506147Y242164D01*
X514359Y242164D01*
X514359Y240673D01*
G37*
G36*
X509867Y277523D02*
X501996Y277523D01*
X501996Y279198D01*
X509726Y279198D01*
X510137Y279212D01*
X510522Y279252D01*
X510881Y279319D01*
X511216Y279413D01*
X511524Y279534D01*
X511807Y279682D01*
X512065Y279857D01*
X512297Y280058D01*
X512503Y280285D01*
X512681Y280536D01*
X512832Y280811D01*
X512955Y281109D01*
X513051Y281431D01*
X513119Y281777D01*
X513161Y282147D01*
X513174Y282541D01*
X513160Y282946D01*
X513118Y283328D01*
X513047Y283687D01*
X512947Y284023D01*
X512820Y284335D01*
X512664Y284625D01*
X512479Y284891D01*
X512266Y285134D01*
X512026Y285351D01*
X511760Y285539D01*
X511467Y285698D01*
X511149Y285828D01*
X510804Y285929D01*
X510433Y286002D01*
X510036Y286045D01*
X509612Y286060D01*
X501996Y286060D01*
X501996Y287727D01*
X509709Y287727D01*
X510077Y287717D01*
X510433Y287687D01*
X510776Y287637D01*
X511106Y287568D01*
X511423Y287478D01*
X511727Y287369D01*
X512019Y287240D01*
X512297Y287091D01*
X512561Y286923D01*
X512809Y286740D01*
X513041Y286539D01*
X513257Y286323D01*
X513456Y286090D01*
X513640Y285840D01*
X513808Y285574D01*
X513960Y285292D01*
X514094Y284995D01*
X514211Y284685D01*
X514310Y284361D01*
X514391Y284025D01*
X514453Y283676D01*
X514498Y283314D01*
X514525Y282938D01*
X514534Y282550D01*
X514526Y282177D01*
X514500Y281815D01*
X514456Y281466D01*
X514396Y281129D01*
X514318Y280804D01*
X514223Y280490D01*
X514111Y280189D01*
X513982Y279900D01*
X513836Y279625D01*
X513674Y279366D01*
X513497Y279123D01*
X513304Y278896D01*
X513095Y278684D01*
X512871Y278489D01*
X512631Y278309D01*
X512376Y278146D01*
X512106Y278000D01*
X511824Y277873D01*
X511530Y277766D01*
X511222Y277678D01*
X510902Y277610D01*
X510570Y277562D01*
X510224Y277532D01*
X509867Y277523D01*
G37*
G36*
X503365Y289509D02*
X501996Y289509D01*
X501996Y299669D01*
X503365Y299669D01*
X503365Y295422D01*
X514359Y295422D01*
X514359Y293755D01*
X503365Y293755D01*
X503365Y289509D01*
G37*
G36*
X514359Y235857D02*
X501996Y235857D01*
X501996Y237533D01*
X514359Y237533D01*
X514359Y235857D01*
G37*
G36*
X517930Y251896D02*
X516789Y251896D01*
X516789Y262363D01*
X517930Y262363D01*
X517930Y251896D01*
G37*
G36*
X74475Y134973D02*
X57239Y142148D01*
X57258Y144810D01*
X74592Y151633D01*
X74575Y149240D01*
X69507Y147301D01*
X69452Y139425D01*
X74492Y137402D01*
X74475Y134973D01*
G37*
%LPC*%
G36*
X67629Y140149D02*
X67674Y146614D01*
X61954Y144433D01*
X61050Y144096D01*
X60036Y143760D01*
X59015Y143436D01*
X59358Y143323D01*
X60517Y142934D01*
X61964Y142397D01*
X67629Y140149D01*
G37*
%LPD*%
G36*
X74719Y169847D02*
X57483Y177022D01*
X57501Y179684D01*
X74835Y186507D01*
X74818Y184115D01*
X69750Y182175D01*
X69695Y174299D01*
X74736Y172276D01*
X74719Y169847D01*
G37*
%LPC*%
G36*
X67872Y175023D02*
X67918Y181488D01*
X62198Y179308D01*
X61293Y178970D01*
X60279Y178634D01*
X59258Y178310D01*
X59601Y178197D01*
X60761Y177809D01*
X62208Y177271D01*
X67872Y175023D01*
G37*
%LPD*%
G36*
X74606Y153735D02*
X57321Y153855D01*
X57340Y156579D01*
X72225Y165823D01*
X70151Y165727D01*
X69362Y165705D01*
X68740Y165700D01*
X57404Y165779D01*
X57419Y167890D01*
X74704Y167769D01*
X74685Y164947D01*
X59899Y155800D01*
X61089Y155853D01*
X63138Y155900D01*
X74621Y155820D01*
X74606Y153735D01*
G37*
G36*
X84540Y324537D02*
X67254Y324537D01*
X67254Y330254D01*
X67263Y330795D01*
X67289Y331321D01*
X67332Y331830D01*
X67392Y332325D01*
X67469Y332803D01*
X67564Y333266D01*
X67676Y333713D01*
X67805Y334144D01*
X67951Y334560D01*
X68115Y334960D01*
X68295Y335345D01*
X68493Y335714D01*
X68708Y336067D01*
X68940Y336404D01*
X69190Y336726D01*
X69456Y337032D01*
X69739Y337321D01*
X70036Y337591D01*
X70348Y337843D01*
X70674Y338076D01*
X71014Y338290D01*
X71369Y338486D01*
X71739Y338663D01*
X72123Y338822D01*
X72522Y338962D01*
X72935Y339083D01*
X73363Y339185D01*
X73805Y339269D01*
X74262Y339334D01*
X74733Y339381D01*
X75219Y339409D01*
X75719Y339418D01*
X76377Y339402D01*
X77015Y339353D01*
X77631Y339272D01*
X78227Y339158D01*
X78801Y339011D01*
X79355Y338832D01*
X79888Y338620D01*
X80400Y338375D01*
X80886Y338101D01*
X81344Y337800D01*
X81772Y337471D01*
X82171Y337115D01*
X82540Y336732D01*
X82880Y336321D01*
X83191Y335884D01*
X83473Y335419D01*
X83723Y334931D01*
X83940Y334425D01*
X84123Y333901D01*
X84273Y333358D01*
X84390Y332797D01*
X84473Y332217D01*
X84523Y331619D01*
X84540Y331002D01*
X84540Y324537D01*
G37*
%LPC*%
G36*
X82663Y326880D02*
X82663Y330732D01*
X82650Y331201D01*
X82611Y331654D01*
X82546Y332094D01*
X82454Y332519D01*
X82337Y332930D01*
X82194Y333326D01*
X82024Y333708D01*
X81829Y334075D01*
X81609Y334425D01*
X81366Y334754D01*
X81100Y335063D01*
X80811Y335350D01*
X80498Y335616D01*
X80163Y335862D01*
X79805Y336086D01*
X79424Y336290D01*
X79023Y336471D01*
X78604Y336628D01*
X78167Y336761D01*
X77713Y336870D01*
X77241Y336954D01*
X76751Y337014D01*
X76244Y337051D01*
X75719Y337063D01*
X75323Y337056D01*
X74940Y337035D01*
X74568Y337001D01*
X74208Y336953D01*
X73860Y336891D01*
X73523Y336815D01*
X73199Y336726D01*
X72887Y336623D01*
X72587Y336506D01*
X72298Y336375D01*
X72022Y336231D01*
X71757Y336072D01*
X71504Y335901D01*
X71264Y335715D01*
X71035Y335515D01*
X70818Y335302D01*
X70614Y335076D01*
X70423Y334838D01*
X70245Y334587D01*
X70080Y334324D01*
X69929Y334048D01*
X69790Y333760D01*
X69665Y333460D01*
X69553Y333148D01*
X69454Y332823D01*
X69369Y332486D01*
X69296Y332137D01*
X69237Y331775D01*
X69191Y331401D01*
X69158Y331015D01*
X69138Y330616D01*
X69131Y330205D01*
X69131Y326880D01*
X82663Y326880D01*
G37*
%LPD*%
G36*
X75817Y348833D02*
X75299Y348842D01*
X74795Y348869D01*
X74306Y348913D01*
X73832Y348974D01*
X73373Y349054D01*
X72929Y349151D01*
X72499Y349265D01*
X72085Y349398D01*
X71685Y349548D01*
X71300Y349715D01*
X70930Y349900D01*
X70575Y350103D01*
X70235Y350324D01*
X69909Y350562D01*
X69599Y350817D01*
X69303Y351091D01*
X69024Y351380D01*
X68763Y351684D01*
X68519Y352001D01*
X68294Y352334D01*
X68087Y352680D01*
X67898Y353041D01*
X67726Y353416D01*
X67573Y353805D01*
X67438Y354209D01*
X67321Y354626D01*
X67222Y355059D01*
X67141Y355505D01*
X67078Y355966D01*
X67033Y356441D01*
X67006Y356930D01*
X66997Y357433D01*
X67012Y358134D01*
X67057Y358801D01*
X67133Y359435D01*
X67239Y360034D01*
X67375Y360600D01*
X67542Y361132D01*
X67739Y361631D01*
X67966Y362095D01*
X68226Y362530D01*
X68523Y362939D01*
X68857Y363323D01*
X69226Y363681D01*
X69633Y364013D01*
X70075Y364320D01*
X70554Y364600D01*
X71070Y364855D01*
X71732Y362623D01*
X71377Y362430D01*
X71046Y362220D01*
X70740Y361992D01*
X70459Y361747D01*
X70203Y361485D01*
X69972Y361205D01*
X69766Y360907D01*
X69585Y360592D01*
X69427Y360259D01*
X69290Y359906D01*
X69174Y359533D01*
X69079Y359140D01*
X69005Y358728D01*
X68953Y358296D01*
X68921Y357844D01*
X68911Y357372D01*
X68918Y357003D01*
X68939Y356646D01*
X68974Y356299D01*
X69024Y355963D01*
X69087Y355639D01*
X69165Y355325D01*
X69257Y355023D01*
X69363Y354731D01*
X69483Y354451D01*
X69617Y354181D01*
X69766Y353923D01*
X69928Y353675D01*
X70105Y353439D01*
X70296Y353214D01*
X70501Y352999D01*
X70720Y352796D01*
X70952Y352604D01*
X71196Y352425D01*
X71451Y352258D01*
X71717Y352104D01*
X71995Y351961D01*
X72285Y351832D01*
X72586Y351714D01*
X72899Y351609D01*
X73224Y351516D01*
X73559Y351436D01*
X73907Y351368D01*
X74266Y351312D01*
X74636Y351269D01*
X75019Y351238D01*
X75412Y351220D01*
X75817Y351213D01*
X76221Y351220D01*
X76615Y351240D01*
X76997Y351272D01*
X77369Y351318D01*
X77730Y351378D01*
X78080Y351450D01*
X78419Y351535D01*
X78748Y351634D01*
X79066Y351745D01*
X79373Y351870D01*
X79669Y352008D01*
X79954Y352159D01*
X80229Y352323D01*
X80493Y352500D01*
X80746Y352691D01*
X80988Y352894D01*
X81218Y353109D01*
X81433Y353334D01*
X81633Y353570D01*
X81818Y353815D01*
X81988Y354070D01*
X82143Y354336D01*
X82284Y354611D01*
X82410Y354897D01*
X82521Y355193D01*
X82617Y355498D01*
X82699Y355814D01*
X82765Y356140D01*
X82817Y356476D01*
X82854Y356822D01*
X82876Y357178D01*
X82884Y357544D01*
X82876Y357963D01*
X82852Y358376D01*
X82811Y358782D01*
X82755Y359180D01*
X82683Y359571D01*
X82594Y359956D01*
X82489Y360333D01*
X82369Y360703D01*
X82234Y361061D01*
X82088Y361401D01*
X81930Y361724D01*
X81761Y362029D01*
X81581Y362317D01*
X81389Y362588D01*
X81185Y362841D01*
X80970Y363077D01*
X77854Y363077D01*
X77854Y357912D01*
X75891Y357912D01*
X75891Y365236D01*
X81853Y365236D01*
X82193Y364883D01*
X82513Y364510D01*
X82813Y364118D01*
X83094Y363707D01*
X83355Y363276D01*
X83596Y362826D01*
X83817Y362357D01*
X84019Y361868D01*
X84198Y361365D01*
X84354Y360850D01*
X84486Y360326D01*
X84594Y359790D01*
X84678Y359244D01*
X84737Y358688D01*
X84773Y358121D01*
X84785Y357544D01*
X84768Y356878D01*
X84718Y356235D01*
X84634Y355616D01*
X84515Y355020D01*
X84364Y354447D01*
X84178Y353898D01*
X83959Y353372D01*
X83706Y352870D01*
X83421Y352393D01*
X83107Y351946D01*
X82762Y351528D01*
X82389Y351138D01*
X81985Y350778D01*
X81552Y350446D01*
X81089Y350144D01*
X80596Y349870D01*
X80077Y349627D01*
X79536Y349417D01*
X78972Y349238D01*
X78386Y349093D01*
X77778Y348979D01*
X77147Y348898D01*
X76493Y348850D01*
X75817Y348833D01*
G37*
G36*
X84540Y342920D02*
X67254Y342920D01*
X67254Y345263D01*
X84540Y345263D01*
X84540Y342920D01*
G37*
G36*
X84540Y369451D02*
X67254Y369451D01*
X67254Y371794D01*
X84540Y371794D01*
X84540Y369451D01*
G37*
G36*
X211872Y359511D02*
X211405Y359523D01*
X210955Y359559D01*
X210520Y359619D01*
X210102Y359704D01*
X209700Y359812D01*
X209314Y359944D01*
X208945Y360101D01*
X208592Y360282D01*
X208258Y360485D01*
X207943Y360710D01*
X207649Y360956D01*
X207376Y361224D01*
X207123Y361514D01*
X206890Y361824D01*
X206678Y362157D01*
X206486Y362511D01*
X206315Y362883D01*
X206168Y363270D01*
X206043Y363673D01*
X205941Y364090D01*
X205861Y364523D01*
X205804Y364972D01*
X205770Y365435D01*
X205759Y365913D01*
X205765Y366278D01*
X205784Y366633D01*
X205816Y366978D01*
X205860Y367313D01*
X205917Y367637D01*
X205987Y367952D01*
X206069Y368256D01*
X206164Y368551D01*
X206271Y368835D01*
X206392Y369109D01*
X206525Y369373D01*
X206670Y369627D01*
X206999Y370105D01*
X207379Y370542D01*
X207804Y370933D01*
X208031Y371109D01*
X208269Y371272D01*
X208516Y371422D01*
X208773Y371559D01*
X209040Y371683D01*
X209317Y371794D01*
X209604Y371891D01*
X209901Y371976D01*
X210207Y372048D01*
X210524Y372106D01*
X210851Y372152D01*
X211187Y372185D01*
X211533Y372204D01*
X211890Y372211D01*
X212353Y372199D01*
X212800Y372164D01*
X213232Y372105D01*
X213648Y372024D01*
X214049Y371918D01*
X214434Y371790D01*
X214803Y371637D01*
X215157Y371462D01*
X215492Y371264D01*
X215808Y371045D01*
X216103Y370805D01*
X216377Y370543D01*
X216632Y370261D01*
X216865Y369957D01*
X217079Y369632D01*
X217272Y369285D01*
X217443Y368920D01*
X217592Y368539D01*
X217718Y368142D01*
X217820Y367729D01*
X217900Y367299D01*
X217958Y366853D01*
X217992Y366391D01*
X218003Y365913D01*
X217992Y365437D01*
X217957Y364976D01*
X217899Y364529D01*
X217818Y364098D01*
X217714Y363682D01*
X217587Y363281D01*
X217437Y362895D01*
X217263Y362524D01*
X217068Y362171D01*
X216853Y361839D01*
X216618Y361528D01*
X216362Y361238D01*
X216087Y360970D01*
X215791Y360722D01*
X215475Y360496D01*
X215139Y360290D01*
X214785Y360108D01*
X214416Y359949D01*
X214031Y359815D01*
X213631Y359706D01*
X213214Y359621D01*
X212783Y359560D01*
X212335Y359523D01*
X211872Y359511D01*
G37*
%LPC*%
G36*
X211872Y360868D02*
X212391Y360889D01*
X212879Y360951D01*
X213335Y361054D01*
X213761Y361198D01*
X214155Y361383D01*
X214519Y361610D01*
X214851Y361878D01*
X215152Y362187D01*
X215420Y362533D01*
X215652Y362914D01*
X215849Y363329D01*
X216010Y363777D01*
X216135Y364260D01*
X216224Y364777D01*
X216277Y365328D01*
X216295Y365913D01*
X216277Y366474D01*
X216223Y367003D01*
X216133Y367502D01*
X216007Y367969D01*
X215845Y368406D01*
X215647Y368812D01*
X215414Y369187D01*
X215144Y369531D01*
X214841Y369839D01*
X214508Y370105D01*
X214146Y370331D01*
X213754Y370516D01*
X213333Y370660D01*
X212881Y370762D01*
X212400Y370824D01*
X211890Y370844D01*
X211375Y370824D01*
X210890Y370763D01*
X210436Y370662D01*
X210011Y370520D01*
X209617Y370338D01*
X209252Y370115D01*
X208918Y369852D01*
X208614Y369548D01*
X208343Y369208D01*
X208108Y368835D01*
X207910Y368429D01*
X207747Y367991D01*
X207621Y367521D01*
X207530Y367017D01*
X207476Y366482D01*
X207458Y365913D01*
X207476Y365348D01*
X207531Y364813D01*
X207622Y364307D01*
X207750Y363832D01*
X207915Y363387D01*
X208116Y362971D01*
X208353Y362586D01*
X208627Y362230D01*
X208934Y361911D01*
X209269Y361635D01*
X209632Y361400D01*
X210023Y361209D01*
X210443Y361060D01*
X210891Y360954D01*
X211367Y360890D01*
X211872Y360868D01*
G37*
%LPD*%
G36*
X224589Y359686D02*
X222592Y359686D01*
X218957Y372027D01*
X220700Y372027D01*
X222916Y364188D01*
X223294Y362695D01*
X223643Y361157D01*
X224129Y363260D01*
X224384Y364234D01*
X224874Y366021D01*
X226559Y372027D01*
X228162Y372027D01*
X230308Y364346D01*
X230746Y362607D01*
X231079Y361157D01*
X231157Y361464D01*
X231543Y363106D01*
X232233Y365654D01*
X234004Y372027D01*
X235747Y372027D01*
X232112Y359686D01*
X230115Y359686D01*
X227978Y367525D01*
X227720Y368552D01*
X227365Y370161D01*
X226980Y368462D01*
X226303Y365926D01*
X224589Y359686D01*
G37*
G36*
X170155Y359511D02*
X169679Y359523D01*
X169220Y359559D01*
X168778Y359619D01*
X168353Y359704D01*
X167944Y359812D01*
X167552Y359944D01*
X167177Y360101D01*
X166818Y360282D01*
X166478Y360485D01*
X166159Y360709D01*
X165860Y360955D01*
X165582Y361222D01*
X165325Y361510D01*
X165088Y361820D01*
X164872Y362150D01*
X164676Y362502D01*
X164503Y362872D01*
X164353Y363259D01*
X164225Y363661D01*
X164121Y364080D01*
X164040Y364514D01*
X163983Y364964D01*
X163948Y365431D01*
X163936Y365913D01*
X163943Y366284D01*
X163962Y366643D01*
X163993Y366992D01*
X164037Y367331D01*
X164094Y367658D01*
X164163Y367976D01*
X164245Y368282D01*
X164339Y368578D01*
X164446Y368864D01*
X164566Y369138D01*
X164698Y369402D01*
X164843Y369656D01*
X165000Y369899D01*
X165170Y370131D01*
X165548Y370564D01*
X165971Y370950D01*
X166198Y371124D01*
X166435Y371285D01*
X166683Y371432D01*
X166940Y371568D01*
X167208Y371690D01*
X167486Y371799D01*
X167774Y371896D01*
X168072Y371979D01*
X168381Y372050D01*
X168699Y372108D01*
X169028Y372153D01*
X169367Y372185D01*
X169717Y372204D01*
X170076Y372211D01*
X170576Y372200D01*
X171053Y372168D01*
X171505Y372113D01*
X171933Y372038D01*
X172337Y371940D01*
X172717Y371822D01*
X173073Y371681D01*
X173404Y371519D01*
X173715Y371333D01*
X174007Y371121D01*
X174281Y370883D01*
X174536Y370619D01*
X174774Y370329D01*
X174992Y370013D01*
X175193Y369671D01*
X175375Y369303D01*
X173781Y368830D01*
X173643Y369084D01*
X173493Y369320D01*
X173331Y369538D01*
X173156Y369739D01*
X172968Y369921D01*
X172769Y370086D01*
X172556Y370233D01*
X172331Y370363D01*
X172093Y370476D01*
X171841Y370573D01*
X171575Y370656D01*
X171295Y370724D01*
X171000Y370777D01*
X170692Y370814D01*
X170369Y370837D01*
X170032Y370844D01*
X169514Y370824D01*
X169027Y370764D01*
X168571Y370663D01*
X168147Y370521D01*
X167754Y370340D01*
X167393Y370118D01*
X167064Y369855D01*
X166765Y369553D01*
X166501Y369213D01*
X166271Y368841D01*
X166077Y368435D01*
X165918Y367997D01*
X165794Y367525D01*
X165706Y367021D01*
X165653Y366484D01*
X165636Y365913D01*
X165654Y365344D01*
X165711Y364806D01*
X165804Y364298D01*
X165935Y363821D01*
X166104Y363375D01*
X166310Y362960D01*
X166554Y362575D01*
X166835Y362222D01*
X167150Y361904D01*
X167493Y361630D01*
X167865Y361397D01*
X168265Y361207D01*
X168695Y361059D01*
X169153Y360953D01*
X169639Y360890D01*
X170155Y360868D01*
X170749Y360891D01*
X171323Y360960D01*
X171877Y361075D01*
X172410Y361236D01*
X172909Y361437D01*
X173357Y361670D01*
X173756Y361936D01*
X174105Y362235D01*
X174105Y364459D01*
X170418Y364459D01*
X170418Y365861D01*
X175647Y365861D01*
X175647Y361604D01*
X175394Y361362D01*
X175128Y361133D01*
X174849Y360919D01*
X174555Y360718D01*
X174248Y360532D01*
X173926Y360360D01*
X173591Y360202D01*
X173242Y360058D01*
X172883Y359930D01*
X172516Y359819D01*
X172141Y359725D01*
X171759Y359648D01*
X171369Y359588D01*
X170972Y359545D01*
X170567Y359519D01*
X170155Y359511D01*
G37*
G36*
X148272Y359686D02*
X146599Y359686D01*
X146599Y372027D01*
X148272Y372027D01*
X148272Y366807D01*
X154946Y366807D01*
X154946Y372027D01*
X156619Y372027D01*
X156619Y359686D01*
X154946Y359686D01*
X154946Y365405D01*
X148272Y365405D01*
X148272Y359686D01*
G37*
G36*
X180147Y359686D02*
X178474Y359686D01*
X178474Y372027D01*
X180147Y372027D01*
X180147Y366807D01*
X186821Y366807D01*
X186821Y372027D01*
X188494Y372027D01*
X188494Y359686D01*
X186821Y359686D01*
X186821Y365405D01*
X180147Y365405D01*
X180147Y359686D01*
G37*
G36*
X204321Y359686D02*
X196412Y359686D01*
X196412Y372027D01*
X198085Y372027D01*
X198085Y361052D01*
X204321Y361052D01*
X204321Y359686D01*
G37*
G36*
X161394Y359686D02*
X159721Y359686D01*
X159721Y372027D01*
X161394Y372027D01*
X161394Y359686D01*
G37*
G36*
X191359Y359511D02*
X189940Y359511D01*
X193540Y372684D01*
X194924Y372684D01*
X191359Y359511D01*
G37*
G36*
X163556Y13335D02*
X163089Y13347D01*
X162638Y13383D01*
X162204Y13443D01*
X161786Y13528D01*
X161384Y13636D01*
X160998Y13768D01*
X160629Y13925D01*
X160276Y14106D01*
X159941Y14309D01*
X159627Y14534D01*
X159333Y14780D01*
X159059Y15048D01*
X158806Y15338D01*
X158574Y15648D01*
X158361Y15981D01*
X158169Y16335D01*
X157999Y16707D01*
X157851Y17094D01*
X157726Y17497D01*
X157624Y17914D01*
X157545Y18347D01*
X157488Y18796D01*
X157454Y19259D01*
X157442Y19737D01*
X157449Y20102D01*
X157468Y20457D01*
X157499Y20802D01*
X157544Y21137D01*
X157601Y21461D01*
X157670Y21776D01*
X157753Y22080D01*
X157847Y22375D01*
X157955Y22659D01*
X158075Y22933D01*
X158208Y23197D01*
X158354Y23451D01*
X158683Y23929D01*
X159063Y24366D01*
X159488Y24757D01*
X159715Y24933D01*
X159952Y25096D01*
X160199Y25246D01*
X160457Y25383D01*
X160724Y25507D01*
X161001Y25618D01*
X161287Y25715D01*
X161584Y25800D01*
X161891Y25872D01*
X162208Y25930D01*
X162534Y25976D01*
X162871Y26009D01*
X163217Y26028D01*
X163573Y26035D01*
X164036Y26023D01*
X164484Y25988D01*
X164915Y25929D01*
X165332Y25848D01*
X165732Y25742D01*
X166117Y25613D01*
X166487Y25461D01*
X166840Y25286D01*
X167176Y25088D01*
X167491Y24869D01*
X167786Y24629D01*
X168061Y24367D01*
X168315Y24085D01*
X168549Y23781D01*
X168762Y23456D01*
X168955Y23109D01*
X169127Y22744D01*
X169275Y22363D01*
X169401Y21966D01*
X169504Y21553D01*
X169584Y21123D01*
X169641Y20677D01*
X169675Y20215D01*
X169687Y19737D01*
X169675Y19261D01*
X169641Y18800D01*
X169583Y18353D01*
X169502Y17922D01*
X169398Y17506D01*
X169271Y17105D01*
X169120Y16719D01*
X168947Y16348D01*
X168752Y15995D01*
X168536Y15663D01*
X168301Y15352D01*
X168046Y15062D01*
X167770Y14794D01*
X167474Y14546D01*
X167159Y14320D01*
X166823Y14114D01*
X166469Y13932D01*
X166100Y13773D01*
X165715Y13639D01*
X165314Y13530D01*
X164898Y13444D01*
X164466Y13384D01*
X164019Y13347D01*
X163556Y13335D01*
G37*
%LPC*%
G36*
X163556Y14692D02*
X164075Y14713D01*
X164562Y14775D01*
X165019Y14878D01*
X165444Y15022D01*
X165839Y15207D01*
X166202Y15434D01*
X166535Y15702D01*
X166836Y16011D01*
X167104Y16357D01*
X167336Y16738D01*
X167532Y17153D01*
X167693Y17601D01*
X167818Y18084D01*
X167907Y18601D01*
X167961Y19152D01*
X167979Y19737D01*
X167961Y20298D01*
X167907Y20827D01*
X167817Y21326D01*
X167691Y21793D01*
X167529Y22230D01*
X167331Y22636D01*
X167097Y23011D01*
X166827Y23355D01*
X166524Y23663D01*
X166192Y23929D01*
X165830Y24155D01*
X165438Y24340D01*
X165016Y24484D01*
X164565Y24586D01*
X164084Y24648D01*
X163573Y24668D01*
X163059Y24648D01*
X162574Y24587D01*
X162119Y24486D01*
X161695Y24344D01*
X161300Y24162D01*
X160936Y23939D01*
X160602Y23676D01*
X160298Y23372D01*
X160027Y23032D01*
X159792Y22659D01*
X159593Y22253D01*
X159431Y21815D01*
X159304Y21345D01*
X159214Y20841D01*
X159160Y20306D01*
X159142Y19737D01*
X159160Y19172D01*
X159215Y18637D01*
X159306Y18131D01*
X159434Y17656D01*
X159598Y17211D01*
X159799Y16795D01*
X160037Y16410D01*
X160311Y16054D01*
X160617Y15735D01*
X160952Y15459D01*
X161315Y15224D01*
X161707Y15033D01*
X162127Y14884D01*
X162575Y14778D01*
X163051Y14714D01*
X163556Y14692D01*
G37*
%LPD*%
G36*
X195431Y13335D02*
X194964Y13347D01*
X194513Y13383D01*
X194079Y13443D01*
X193661Y13528D01*
X193259Y13636D01*
X192873Y13768D01*
X192504Y13925D01*
X192151Y14106D01*
X191816Y14309D01*
X191502Y14534D01*
X191208Y14780D01*
X190934Y15048D01*
X190681Y15338D01*
X190449Y15648D01*
X190236Y15981D01*
X190044Y16335D01*
X189874Y16707D01*
X189726Y17094D01*
X189601Y17497D01*
X189499Y17914D01*
X189420Y18347D01*
X189363Y18796D01*
X189329Y19259D01*
X189317Y19737D01*
X189324Y20102D01*
X189343Y20457D01*
X189374Y20802D01*
X189419Y21137D01*
X189476Y21461D01*
X189545Y21776D01*
X189628Y22080D01*
X189722Y22375D01*
X189830Y22659D01*
X189950Y22933D01*
X190083Y23197D01*
X190229Y23451D01*
X190558Y23929D01*
X190938Y24366D01*
X191363Y24757D01*
X191590Y24933D01*
X191827Y25096D01*
X192074Y25246D01*
X192332Y25383D01*
X192599Y25507D01*
X192876Y25618D01*
X193162Y25715D01*
X193459Y25800D01*
X193766Y25872D01*
X194083Y25930D01*
X194409Y25976D01*
X194746Y26009D01*
X195092Y26028D01*
X195448Y26035D01*
X195911Y26023D01*
X196359Y25988D01*
X196790Y25929D01*
X197207Y25848D01*
X197607Y25742D01*
X197992Y25613D01*
X198362Y25461D01*
X198715Y25286D01*
X199051Y25088D01*
X199366Y24869D01*
X199661Y24629D01*
X199936Y24367D01*
X200190Y24085D01*
X200424Y23781D01*
X200637Y23456D01*
X200830Y23109D01*
X201002Y22744D01*
X201150Y22363D01*
X201276Y21966D01*
X201379Y21553D01*
X201459Y21123D01*
X201516Y20677D01*
X201550Y20215D01*
X201562Y19737D01*
X201550Y19261D01*
X201516Y18800D01*
X201458Y18353D01*
X201377Y17922D01*
X201273Y17506D01*
X201146Y17105D01*
X200995Y16719D01*
X200822Y16348D01*
X200627Y15995D01*
X200411Y15663D01*
X200176Y15352D01*
X199921Y15062D01*
X199645Y14794D01*
X199349Y14546D01*
X199034Y14320D01*
X198698Y14114D01*
X198344Y13932D01*
X197975Y13773D01*
X197590Y13639D01*
X197189Y13530D01*
X196773Y13444D01*
X196341Y13384D01*
X195894Y13347D01*
X195431Y13335D01*
G37*
%LPC*%
G36*
X195431Y14692D02*
X195950Y14713D01*
X196437Y14775D01*
X196894Y14878D01*
X197319Y15022D01*
X197714Y15207D01*
X198077Y15434D01*
X198410Y15702D01*
X198711Y16011D01*
X198979Y16357D01*
X199211Y16738D01*
X199407Y17153D01*
X199568Y17601D01*
X199693Y18084D01*
X199782Y18601D01*
X199836Y19152D01*
X199854Y19737D01*
X199836Y20298D01*
X199782Y20827D01*
X199692Y21326D01*
X199566Y21793D01*
X199404Y22230D01*
X199206Y22636D01*
X198972Y23011D01*
X198702Y23355D01*
X198399Y23663D01*
X198067Y23929D01*
X197705Y24155D01*
X197313Y24340D01*
X196891Y24484D01*
X196440Y24586D01*
X195959Y24648D01*
X195448Y24668D01*
X194934Y24648D01*
X194449Y24587D01*
X193994Y24486D01*
X193570Y24344D01*
X193175Y24162D01*
X192811Y23939D01*
X192477Y23676D01*
X192173Y23372D01*
X191902Y23032D01*
X191667Y22659D01*
X191468Y22253D01*
X191306Y21815D01*
X191179Y21345D01*
X191089Y20841D01*
X191035Y20306D01*
X191017Y19737D01*
X191035Y19172D01*
X191090Y18637D01*
X191181Y18131D01*
X191309Y17656D01*
X191473Y17211D01*
X191674Y16795D01*
X191912Y16410D01*
X192186Y16054D01*
X192492Y15735D01*
X192827Y15459D01*
X193190Y15224D01*
X193582Y15033D01*
X194002Y14884D01*
X194450Y14778D01*
X194926Y14714D01*
X195431Y14692D01*
G37*
%LPD*%
G36*
X173491Y13510D02*
X172002Y13510D01*
X172002Y25851D01*
X173946Y25851D01*
X180620Y15270D01*
X180541Y16751D01*
X180515Y17758D01*
X180515Y25851D01*
X182022Y25851D01*
X182022Y13510D01*
X180007Y13510D01*
X173403Y24020D01*
X173447Y23171D01*
X173491Y21708D01*
X173491Y13510D01*
G37*
G36*
X205550Y13510D02*
X203877Y13510D01*
X203877Y25851D01*
X212644Y25851D01*
X212644Y24484D01*
X205550Y24484D01*
X205550Y19895D01*
X212434Y19895D01*
X212434Y18511D01*
X205550Y18511D01*
X205550Y13510D01*
G37*
G36*
X216518Y13510D02*
X214845Y13510D01*
X214845Y25851D01*
X223613Y25851D01*
X223613Y24484D01*
X216518Y24484D01*
X216518Y19895D01*
X223403Y19895D01*
X223403Y18511D01*
X216518Y18511D01*
X216518Y13510D01*
G37*
G36*
X184887Y13335D02*
X183468Y13335D01*
X187068Y26508D01*
X188451Y26508D01*
X184887Y13335D01*
G37*
G36*
X381207Y118508D02*
X380740Y118520D01*
X380289Y118556D01*
X379855Y118616D01*
X379437Y118701D01*
X379035Y118809D01*
X378649Y118941D01*
X378280Y119098D01*
X377927Y119279D01*
X377592Y119482D01*
X377278Y119707D01*
X376984Y119953D01*
X376711Y120221D01*
X376458Y120511D01*
X376225Y120822D01*
X376012Y121154D01*
X375821Y121508D01*
X375650Y121880D01*
X375502Y122267D01*
X375378Y122670D01*
X375275Y123088D01*
X375196Y123520D01*
X375139Y123969D01*
X375105Y124432D01*
X375094Y124910D01*
X375100Y125275D01*
X375119Y125630D01*
X375151Y125975D01*
X375195Y126310D01*
X375252Y126634D01*
X375321Y126949D01*
X375404Y127253D01*
X375499Y127548D01*
X375606Y127832D01*
X375727Y128106D01*
X375859Y128370D01*
X376005Y128624D01*
X376334Y129102D01*
X376714Y129539D01*
X377139Y129930D01*
X377366Y130106D01*
X377603Y130269D01*
X377851Y130419D01*
X378108Y130556D01*
X378375Y130680D01*
X378652Y130791D01*
X378939Y130888D01*
X379235Y130973D01*
X379542Y131045D01*
X379859Y131104D01*
X380185Y131149D01*
X380522Y131182D01*
X380868Y131201D01*
X381225Y131208D01*
X381688Y131196D01*
X382135Y131161D01*
X382567Y131102D01*
X382983Y131021D01*
X383383Y130915D01*
X383768Y130787D01*
X384138Y130634D01*
X384491Y130459D01*
X384827Y130261D01*
X385143Y130042D01*
X385438Y129802D01*
X385712Y129540D01*
X385966Y129258D01*
X386200Y128954D01*
X386414Y128629D01*
X386607Y128282D01*
X386778Y127917D01*
X386927Y127536D01*
X387052Y127139D01*
X387155Y126726D01*
X387235Y126296D01*
X387292Y125850D01*
X387327Y125388D01*
X387338Y124910D01*
X387326Y124434D01*
X387292Y123973D01*
X387234Y123526D01*
X387153Y123095D01*
X387049Y122679D01*
X386922Y122278D01*
X386771Y121892D01*
X386598Y121521D01*
X386403Y121168D01*
X386188Y120836D01*
X385952Y120525D01*
X385697Y120236D01*
X385421Y119967D01*
X385126Y119719D01*
X384810Y119493D01*
X384474Y119287D01*
X384120Y119105D01*
X383751Y118946D01*
X383366Y118812D01*
X382965Y118703D01*
X382549Y118618D01*
X382117Y118557D01*
X381670Y118520D01*
X381207Y118508D01*
G37*
%LPC*%
G36*
X381207Y119865D02*
X381726Y119886D01*
X382213Y119948D01*
X382670Y120051D01*
X383096Y120195D01*
X383490Y120380D01*
X383853Y120607D01*
X384186Y120875D01*
X384487Y121184D01*
X384755Y121530D01*
X384987Y121911D01*
X385184Y122326D01*
X385344Y122774D01*
X385469Y123257D01*
X385559Y123774D01*
X385612Y124325D01*
X385630Y124910D01*
X385612Y125471D01*
X385558Y126000D01*
X385468Y126499D01*
X385342Y126966D01*
X385180Y127403D01*
X384982Y127809D01*
X384748Y128184D01*
X384478Y128528D01*
X384176Y128836D01*
X383843Y129102D01*
X383481Y129328D01*
X383089Y129513D01*
X382667Y129657D01*
X382216Y129759D01*
X381735Y129821D01*
X381225Y129841D01*
X380710Y129821D01*
X380225Y129760D01*
X379770Y129659D01*
X379346Y129517D01*
X378951Y129335D01*
X378587Y129112D01*
X378253Y128849D01*
X377949Y128545D01*
X377678Y128205D01*
X377443Y127832D01*
X377244Y127426D01*
X377082Y126988D01*
X376955Y126518D01*
X376865Y126015D01*
X376811Y125479D01*
X376793Y124910D01*
X376811Y124345D01*
X376866Y123810D01*
X376957Y123304D01*
X377085Y122829D01*
X377249Y122384D01*
X377450Y121968D01*
X377688Y121583D01*
X377962Y121227D01*
X378268Y120908D01*
X378603Y120632D01*
X378966Y120397D01*
X379358Y120206D01*
X379778Y120057D01*
X380226Y119951D01*
X380702Y119887D01*
X381207Y119865D01*
G37*
%LPD*%
G36*
X458613Y118508D02*
X458146Y118520D01*
X457696Y118556D01*
X457261Y118616D01*
X456843Y118701D01*
X456441Y118809D01*
X456056Y118941D01*
X455686Y119098D01*
X455333Y119279D01*
X454999Y119482D01*
X454684Y119707D01*
X454390Y119953D01*
X454117Y120221D01*
X453864Y120511D01*
X453631Y120822D01*
X453419Y121154D01*
X453227Y121508D01*
X453056Y121880D01*
X452909Y122267D01*
X452784Y122670D01*
X452682Y123088D01*
X452602Y123520D01*
X452545Y123969D01*
X452511Y124432D01*
X452500Y124910D01*
X452506Y125275D01*
X452525Y125630D01*
X452557Y125975D01*
X452601Y126310D01*
X452658Y126634D01*
X452728Y126949D01*
X452810Y127253D01*
X452905Y127548D01*
X453013Y127832D01*
X453133Y128106D01*
X453266Y128370D01*
X453411Y128624D01*
X453740Y129102D01*
X454120Y129539D01*
X454545Y129930D01*
X454772Y130106D01*
X455010Y130269D01*
X455257Y130419D01*
X455514Y130556D01*
X455781Y130680D01*
X456058Y130791D01*
X456345Y130888D01*
X456642Y130973D01*
X456948Y131045D01*
X457265Y131104D01*
X457592Y131149D01*
X457928Y131182D01*
X458274Y131201D01*
X458631Y131208D01*
X459094Y131196D01*
X459541Y131161D01*
X459973Y131102D01*
X460389Y131021D01*
X460790Y130915D01*
X461175Y130787D01*
X461544Y130634D01*
X461898Y130459D01*
X462234Y130261D01*
X462549Y130042D01*
X462844Y129802D01*
X463118Y129540D01*
X463373Y129258D01*
X463606Y128954D01*
X463820Y128629D01*
X464013Y128282D01*
X464184Y127917D01*
X464333Y127536D01*
X464459Y127139D01*
X464561Y126726D01*
X464641Y126296D01*
X464699Y125850D01*
X464733Y125388D01*
X464744Y124910D01*
X464733Y124434D01*
X464698Y123973D01*
X464640Y123526D01*
X464559Y123095D01*
X464455Y122679D01*
X464328Y122278D01*
X464178Y121892D01*
X464004Y121521D01*
X463809Y121168D01*
X463594Y120836D01*
X463359Y120525D01*
X463103Y120236D01*
X462828Y119967D01*
X462532Y119719D01*
X462216Y119493D01*
X461880Y119287D01*
X461526Y119105D01*
X461157Y118946D01*
X460772Y118812D01*
X460372Y118703D01*
X459955Y118618D01*
X459524Y118557D01*
X459076Y118520D01*
X458613Y118508D01*
G37*
%LPC*%
G36*
X458613Y119865D02*
X459132Y119886D01*
X459620Y119948D01*
X460076Y120051D01*
X460502Y120195D01*
X460896Y120380D01*
X461260Y120607D01*
X461592Y120875D01*
X461893Y121184D01*
X462161Y121530D01*
X462393Y121911D01*
X462590Y122326D01*
X462751Y122774D01*
X462876Y123257D01*
X462965Y123774D01*
X463018Y124325D01*
X463036Y124910D01*
X463018Y125471D01*
X462964Y126000D01*
X462874Y126499D01*
X462748Y126966D01*
X462586Y127403D01*
X462388Y127809D01*
X462155Y128184D01*
X461885Y128528D01*
X461582Y128836D01*
X461249Y129102D01*
X460887Y129328D01*
X460495Y129513D01*
X460074Y129657D01*
X459622Y129759D01*
X459141Y129821D01*
X458631Y129841D01*
X458116Y129821D01*
X457631Y129760D01*
X457177Y129659D01*
X456752Y129517D01*
X456358Y129335D01*
X455993Y129112D01*
X455659Y128849D01*
X455355Y128545D01*
X455084Y128205D01*
X454849Y127832D01*
X454651Y127426D01*
X454488Y126988D01*
X454362Y126518D01*
X454271Y126015D01*
X454217Y125479D01*
X454199Y124910D01*
X454217Y124345D01*
X454272Y123810D01*
X454363Y123304D01*
X454491Y122829D01*
X454656Y122384D01*
X454857Y121968D01*
X455094Y121583D01*
X455368Y121227D01*
X455675Y120908D01*
X456010Y120632D01*
X456373Y120397D01*
X456764Y120206D01*
X457184Y120057D01*
X457632Y119951D01*
X458109Y119887D01*
X458613Y119865D01*
G37*
%LPD*%
G36*
X415263Y118683D02*
X413590Y118683D01*
X413590Y131024D01*
X419397Y131024D01*
X419904Y131009D01*
X420380Y130966D01*
X420827Y130893D01*
X421244Y130791D01*
X421632Y130659D01*
X421990Y130499D01*
X422318Y130310D01*
X422616Y130091D01*
X422882Y129846D01*
X423112Y129579D01*
X423307Y129289D01*
X423467Y128975D01*
X423591Y128639D01*
X423679Y128281D01*
X423733Y127899D01*
X423750Y127494D01*
X423738Y127157D01*
X423700Y126834D01*
X423638Y126524D01*
X423550Y126229D01*
X423437Y125946D01*
X423300Y125678D01*
X423137Y125423D01*
X422949Y125182D01*
X422739Y124958D01*
X422510Y124757D01*
X422262Y124576D01*
X422151Y124510D01*
X421995Y124418D01*
X421709Y124281D01*
X421404Y124165D01*
X421080Y124072D01*
X420737Y123999D01*
X422229Y121736D01*
X424241Y118683D01*
X422314Y118683D01*
X419108Y123807D01*
X415263Y123807D01*
X415263Y118683D01*
G37*
%LPC*%
G36*
X419301Y125129D02*
X419622Y125139D01*
X419925Y125168D01*
X420209Y125216D01*
X420474Y125284D01*
X420720Y125371D01*
X420947Y125477D01*
X421156Y125602D01*
X421346Y125747D01*
X421515Y125909D01*
X421662Y126086D01*
X421786Y126280D01*
X421888Y126488D01*
X421967Y126712D01*
X422024Y126951D01*
X422057Y127206D01*
X422069Y127477D01*
X422057Y127738D01*
X422023Y127983D01*
X421966Y128213D01*
X421886Y128426D01*
X421783Y128623D01*
X421657Y128804D01*
X421509Y128970D01*
X421337Y129119D01*
X421144Y129251D01*
X420931Y129366D01*
X420698Y129463D01*
X420445Y129543D01*
X420172Y129604D01*
X419878Y129648D01*
X419565Y129675D01*
X419231Y129684D01*
X415263Y129684D01*
X415263Y125129D01*
X419301Y125129D01*
G37*
%LPD*%
G36*
X391326Y118683D02*
X389653Y118683D01*
X389653Y131024D01*
X394847Y131024D01*
X395351Y131009D01*
X395826Y130963D01*
X396272Y130887D01*
X396688Y130781D01*
X397075Y130644D01*
X397433Y130477D01*
X397762Y130280D01*
X398061Y130052D01*
X398328Y129796D01*
X398559Y129516D01*
X398755Y129210D01*
X398915Y128880D01*
X399040Y128525D01*
X399129Y128145D01*
X399182Y127740D01*
X399200Y127310D01*
X399182Y126884D01*
X399128Y126479D01*
X399039Y126097D01*
X398914Y125738D01*
X398753Y125401D01*
X398557Y125087D01*
X398325Y124795D01*
X398057Y124525D01*
X397758Y124283D01*
X397434Y124073D01*
X397084Y123895D01*
X396709Y123750D01*
X396308Y123637D01*
X395882Y123556D01*
X395430Y123508D01*
X394952Y123492D01*
X391326Y123492D01*
X391326Y118683D01*
G37*
%LPC*%
G36*
X394715Y124814D02*
X395055Y124824D01*
X395372Y124853D01*
X395668Y124901D01*
X395942Y124969D01*
X396193Y125056D01*
X396423Y125163D01*
X396631Y125288D01*
X396817Y125434D01*
X396982Y125598D01*
X397124Y125782D01*
X397244Y125986D01*
X397343Y126208D01*
X397420Y126450D01*
X397474Y126712D01*
X397507Y126993D01*
X397518Y127293D01*
X397507Y127582D01*
X397473Y127853D01*
X397417Y128105D01*
X397339Y128339D01*
X397238Y128554D01*
X397114Y128750D01*
X396968Y128927D01*
X396800Y129086D01*
X396609Y129226D01*
X396396Y129348D01*
X396160Y129450D01*
X395902Y129534D01*
X395622Y129600D01*
X395319Y129646D01*
X394993Y129674D01*
X394645Y129684D01*
X391326Y129684D01*
X391326Y124814D01*
X394715Y124814D01*
G37*
%LPD*%
G36*
X426826Y118683D02*
X425092Y118683D01*
X430128Y131024D01*
X432028Y131024D01*
X436986Y118683D01*
X435278Y118683D01*
X433868Y122292D01*
X428245Y122292D01*
X426826Y118683D01*
G37*
%LPC*%
G36*
X433368Y123597D02*
X431783Y127669D01*
X431538Y128313D01*
X431293Y129036D01*
X431056Y129763D01*
X430977Y129517D01*
X430706Y128688D01*
X430329Y127652D01*
X428753Y123597D01*
X433368Y123597D01*
G37*
%LPD*%
G36*
X468548Y118683D02*
X467059Y118683D01*
X467059Y131024D01*
X469004Y131024D01*
X475678Y120444D01*
X475599Y121924D01*
X475572Y122931D01*
X475572Y131024D01*
X477079Y131024D01*
X477079Y118683D01*
X475064Y118683D01*
X468461Y129193D01*
X468504Y128344D01*
X468548Y126881D01*
X468548Y118683D01*
G37*
G36*
X411344Y118683D02*
X401622Y118683D01*
X401622Y131024D01*
X410985Y131024D01*
X410985Y129658D01*
X403295Y129658D01*
X403295Y125699D01*
X410459Y125699D01*
X410459Y124350D01*
X403295Y124350D01*
X403295Y120049D01*
X411344Y120049D01*
X411344Y118683D01*
G37*
G36*
X441988Y118683D02*
X440324Y118683D01*
X440324Y129658D01*
X436084Y129658D01*
X436084Y131024D01*
X446227Y131024D01*
X446227Y129658D01*
X441988Y129658D01*
X441988Y118683D01*
G37*
G36*
X449978Y118683D02*
X448306Y118683D01*
X448306Y131024D01*
X449978Y131024D01*
X449978Y118683D01*
G37*
G36*
X316480Y446036D02*
X314807Y446036D01*
X314807Y458377D01*
X320614Y458377D01*
X321120Y458362D01*
X321597Y458319D01*
X322044Y458246D01*
X322461Y458144D01*
X322848Y458012D01*
X323206Y457852D01*
X323534Y457663D01*
X323833Y457444D01*
X324098Y457199D01*
X324329Y456932D01*
X324524Y456642D01*
X324683Y456328D01*
X324807Y455992D01*
X324896Y455633D01*
X324949Y455252D01*
X324967Y454847D01*
X324954Y454510D01*
X324917Y454187D01*
X324854Y453877D01*
X324766Y453582D01*
X324654Y453299D01*
X324516Y453031D01*
X324353Y452776D01*
X324165Y452535D01*
X323955Y452311D01*
X323727Y452110D01*
X323479Y451929D01*
X323368Y451863D01*
X323212Y451771D01*
X322926Y451634D01*
X322621Y451518D01*
X322297Y451425D01*
X321954Y451352D01*
X323445Y449089D01*
X325457Y446036D01*
X323530Y446036D01*
X320325Y451160D01*
X316480Y451160D01*
X316480Y446036D01*
G37*
%LPC*%
G36*
X320517Y452482D02*
X320839Y452492D01*
X321141Y452521D01*
X321425Y452569D01*
X321690Y452637D01*
X321936Y452724D01*
X322164Y452830D01*
X322373Y452955D01*
X322563Y453100D01*
X322732Y453262D01*
X322879Y453439D01*
X323003Y453632D01*
X323104Y453841D01*
X323184Y454065D01*
X323240Y454304D01*
X323274Y454559D01*
X323285Y454830D01*
X323274Y455091D01*
X323239Y455336D01*
X323182Y455566D01*
X323102Y455779D01*
X322999Y455976D01*
X322874Y456157D01*
X322725Y456323D01*
X322554Y456472D01*
X322361Y456604D01*
X322148Y456719D01*
X321915Y456816D01*
X321661Y456896D01*
X321388Y456957D01*
X321095Y457001D01*
X320781Y457028D01*
X320447Y457037D01*
X316480Y457037D01*
X316480Y452482D01*
X320517Y452482D01*
G37*
%LPD*%
G36*
X335373Y446036D02*
X327639Y446036D01*
X327639Y447376D01*
X330784Y447376D01*
X330784Y456870D01*
X327998Y454882D01*
X327998Y456371D01*
X330915Y458377D01*
X332369Y458377D01*
X332369Y447376D01*
X335373Y447376D01*
X335373Y446036D01*
G37*
G36*
X316480Y278600D02*
X314807Y278600D01*
X314807Y290941D01*
X320614Y290941D01*
X321120Y290926D01*
X321597Y290882D01*
X322044Y290810D01*
X322461Y290708D01*
X322848Y290576D01*
X323206Y290416D01*
X323534Y290227D01*
X323833Y290008D01*
X324098Y289763D01*
X324329Y289496D01*
X324524Y289206D01*
X324683Y288892D01*
X324807Y288556D01*
X324896Y288197D01*
X324949Y287816D01*
X324967Y287411D01*
X324954Y287074D01*
X324917Y286751D01*
X324854Y286441D01*
X324766Y286145D01*
X324654Y285863D01*
X324516Y285595D01*
X324353Y285340D01*
X324165Y285099D01*
X323955Y284875D01*
X323727Y284674D01*
X323479Y284493D01*
X323368Y284427D01*
X323212Y284335D01*
X322926Y284198D01*
X322621Y284082D01*
X322297Y283989D01*
X321954Y283916D01*
X323445Y281653D01*
X325457Y278600D01*
X323530Y278600D01*
X320325Y283724D01*
X316480Y283724D01*
X316480Y278600D01*
G37*
%LPC*%
G36*
X320517Y285046D02*
X320839Y285056D01*
X321141Y285085D01*
X321425Y285133D01*
X321690Y285201D01*
X321936Y285287D01*
X322164Y285394D01*
X322373Y285519D01*
X322563Y285664D01*
X322732Y285826D01*
X322879Y286003D01*
X323003Y286196D01*
X323104Y286405D01*
X323184Y286629D01*
X323240Y286868D01*
X323274Y287123D01*
X323285Y287394D01*
X323274Y287655D01*
X323239Y287900D01*
X323182Y288130D01*
X323102Y288343D01*
X322999Y288540D01*
X322874Y288721D01*
X322725Y288887D01*
X322554Y289036D01*
X322361Y289168D01*
X322148Y289283D01*
X321915Y289380D01*
X321661Y289460D01*
X321388Y289521D01*
X321095Y289565D01*
X320781Y289592D01*
X320447Y289601D01*
X316480Y289601D01*
X316480Y285046D01*
X320517Y285046D01*
G37*
%LPD*%
G36*
X335347Y278600D02*
X327175Y278600D01*
X327175Y279712D01*
X327411Y280210D01*
X327671Y280677D01*
X327956Y281114D01*
X328265Y281521D01*
X328591Y281904D01*
X328926Y282268D01*
X329268Y282613D01*
X329619Y282940D01*
X330325Y283552D01*
X331024Y284118D01*
X331687Y284661D01*
X332281Y285204D01*
X332548Y285479D01*
X332788Y285760D01*
X333001Y286048D01*
X333188Y286343D01*
X333339Y286650D01*
X333447Y286978D01*
X333512Y287325D01*
X333534Y287691D01*
X333524Y287938D01*
X333497Y288171D01*
X333450Y288389D01*
X333385Y288593D01*
X333301Y288783D01*
X333199Y288959D01*
X333078Y289121D01*
X332938Y289268D01*
X332782Y289399D01*
X332611Y289513D01*
X332426Y289609D01*
X332227Y289688D01*
X332012Y289750D01*
X331784Y289793D01*
X331540Y289820D01*
X331283Y289828D01*
X331037Y289820D01*
X330801Y289794D01*
X330577Y289751D01*
X330364Y289692D01*
X330162Y289615D01*
X329971Y289521D01*
X329792Y289409D01*
X329623Y289281D01*
X329468Y289137D01*
X329330Y288980D01*
X329209Y288808D01*
X329105Y288623D01*
X329018Y288424D01*
X328947Y288211D01*
X328894Y287984D01*
X328857Y287744D01*
X327245Y287893D01*
X327303Y288253D01*
X327389Y288595D01*
X327504Y288918D01*
X327647Y289222D01*
X327818Y289507D01*
X328018Y289773D01*
X328246Y290020D01*
X328502Y290249D01*
X328782Y290454D01*
X329081Y290632D01*
X329400Y290783D01*
X329738Y290906D01*
X330095Y291002D01*
X330472Y291070D01*
X330868Y291111D01*
X331283Y291125D01*
X331736Y291111D01*
X332162Y291070D01*
X332561Y291001D01*
X332933Y290905D01*
X333278Y290781D01*
X333596Y290630D01*
X333887Y290451D01*
X334151Y290244D01*
X334386Y290013D01*
X334590Y289758D01*
X334762Y289480D01*
X334903Y289179D01*
X335013Y288855D01*
X335091Y288508D01*
X335138Y288137D01*
X335154Y287744D01*
X335134Y287385D01*
X335072Y287028D01*
X334969Y286672D01*
X334826Y286316D01*
X334641Y285962D01*
X334417Y285607D01*
X334153Y285252D01*
X333849Y284897D01*
X333451Y284494D01*
X332905Y283993D01*
X332212Y283395D01*
X331370Y282699D01*
X330892Y282297D01*
X330466Y281916D01*
X330091Y281555D01*
X329768Y281214D01*
X329491Y280887D01*
X329255Y280565D01*
X329061Y280250D01*
X328909Y279940D01*
X335347Y279940D01*
X335347Y278600D01*
G37*
G36*
X316480Y99860D02*
X314807Y99860D01*
X314807Y112201D01*
X320614Y112201D01*
X321120Y112186D01*
X321597Y112142D01*
X322044Y112070D01*
X322461Y111968D01*
X322848Y111836D01*
X323206Y111676D01*
X323534Y111487D01*
X323833Y111268D01*
X324098Y111023D01*
X324329Y110756D01*
X324524Y110466D01*
X324683Y110152D01*
X324807Y109816D01*
X324896Y109457D01*
X324949Y109076D01*
X324967Y108671D01*
X324954Y108334D01*
X324917Y108011D01*
X324854Y107701D01*
X324766Y107405D01*
X324654Y107123D01*
X324516Y106855D01*
X324353Y106600D01*
X324165Y106359D01*
X323955Y106135D01*
X323727Y105934D01*
X323479Y105753D01*
X323368Y105687D01*
X323212Y105595D01*
X322926Y105458D01*
X322621Y105342D01*
X322297Y105249D01*
X321954Y105176D01*
X323445Y102913D01*
X325457Y99860D01*
X323530Y99860D01*
X320325Y104984D01*
X316480Y104984D01*
X316480Y99860D01*
G37*
%LPC*%
G36*
X320517Y106306D02*
X320839Y106316D01*
X321141Y106345D01*
X321425Y106393D01*
X321690Y106461D01*
X321936Y106547D01*
X322164Y106654D01*
X322373Y106779D01*
X322563Y106924D01*
X322732Y107086D01*
X322879Y107263D01*
X323003Y107456D01*
X323104Y107665D01*
X323184Y107889D01*
X323240Y108128D01*
X323274Y108383D01*
X323285Y108654D01*
X323274Y108915D01*
X323239Y109160D01*
X323182Y109390D01*
X323102Y109603D01*
X322999Y109800D01*
X322874Y109981D01*
X322725Y110147D01*
X322554Y110296D01*
X322361Y110428D01*
X322148Y110543D01*
X321915Y110640D01*
X321661Y110720D01*
X321388Y110781D01*
X321095Y110825D01*
X320781Y110852D01*
X320447Y110861D01*
X316480Y110861D01*
X316480Y106306D01*
X320517Y106306D01*
G37*
%LPD*%
G36*
X331274Y99685D02*
X330817Y99698D01*
X330384Y99738D01*
X329975Y99804D01*
X329589Y99896D01*
X329227Y100015D01*
X328889Y100160D01*
X328574Y100332D01*
X328283Y100530D01*
X328018Y100754D01*
X327781Y101003D01*
X327573Y101278D01*
X327393Y101578D01*
X327241Y101903D01*
X327118Y102254D01*
X327023Y102629D01*
X326956Y103031D01*
X328585Y103179D01*
X328633Y102914D01*
X328696Y102666D01*
X328776Y102435D01*
X328871Y102222D01*
X328983Y102025D01*
X329111Y101845D01*
X329255Y101683D01*
X329415Y101537D01*
X329591Y101409D01*
X329783Y101298D01*
X329992Y101204D01*
X330216Y101127D01*
X330456Y101067D01*
X330713Y101024D01*
X330985Y100998D01*
X331274Y100990D01*
X331564Y100999D01*
X331838Y101027D01*
X332095Y101072D01*
X332337Y101137D01*
X332563Y101219D01*
X332773Y101320D01*
X332966Y101439D01*
X333144Y101577D01*
X333303Y101732D01*
X333441Y101906D01*
X333558Y102097D01*
X333653Y102306D01*
X333727Y102533D01*
X333780Y102777D01*
X333812Y103039D01*
X333823Y103320D01*
X333811Y103565D01*
X333774Y103796D01*
X333714Y104013D01*
X333629Y104216D01*
X333520Y104406D01*
X333387Y104582D01*
X333229Y104744D01*
X333048Y104892D01*
X332843Y105024D01*
X332617Y105139D01*
X332370Y105236D01*
X332101Y105315D01*
X331810Y105377D01*
X331498Y105421D01*
X331165Y105448D01*
X330810Y105457D01*
X329916Y105457D01*
X329916Y106823D01*
X330775Y106823D01*
X331090Y106832D01*
X331387Y106858D01*
X331665Y106902D01*
X331925Y106964D01*
X332168Y107044D01*
X332392Y107141D01*
X332597Y107256D01*
X332785Y107388D01*
X332952Y107536D01*
X333097Y107698D01*
X333220Y107873D01*
X333320Y108061D01*
X333398Y108263D01*
X333454Y108479D01*
X333488Y108709D01*
X333499Y108951D01*
X333490Y109192D01*
X333462Y109420D01*
X333417Y109635D01*
X333353Y109837D01*
X333271Y110026D01*
X333171Y110202D01*
X333053Y110365D01*
X332916Y110515D01*
X332762Y110649D01*
X332590Y110766D01*
X332400Y110864D01*
X332193Y110945D01*
X331968Y111008D01*
X331725Y111053D01*
X331464Y111079D01*
X331186Y111088D01*
X330932Y111080D01*
X330690Y111055D01*
X330461Y111013D01*
X330244Y110955D01*
X330039Y110880D01*
X329847Y110788D01*
X329668Y110679D01*
X329500Y110554D01*
X329348Y110414D01*
X329212Y110260D01*
X329093Y110092D01*
X328991Y109910D01*
X328906Y109715D01*
X328838Y109506D01*
X328786Y109284D01*
X328752Y109048D01*
X327166Y109170D01*
X327224Y109539D01*
X327311Y109886D01*
X327425Y110213D01*
X327568Y110519D01*
X327739Y110804D01*
X327939Y111069D01*
X328167Y111312D01*
X328423Y111535D01*
X328703Y111734D01*
X329003Y111907D01*
X329321Y112053D01*
X329659Y112172D01*
X330016Y112265D01*
X330393Y112332D01*
X330789Y112371D01*
X331204Y112385D01*
X331655Y112371D01*
X332081Y112331D01*
X332480Y112263D01*
X332854Y112169D01*
X333202Y112048D01*
X333524Y111899D01*
X333820Y111724D01*
X334090Y111522D01*
X334331Y111296D01*
X334540Y111048D01*
X334717Y110780D01*
X334862Y110490D01*
X334974Y110178D01*
X335055Y109846D01*
X335103Y109493D01*
X335119Y109118D01*
X335109Y108829D01*
X335078Y108554D01*
X335026Y108293D01*
X334954Y108046D01*
X334861Y107813D01*
X334747Y107593D01*
X334613Y107387D01*
X334458Y107195D01*
X334283Y107018D01*
X334090Y106855D01*
X333877Y106707D01*
X333647Y106575D01*
X333397Y106457D01*
X333128Y106354D01*
X332841Y106266D01*
X332535Y106192D01*
X332535Y106157D01*
X332872Y106110D01*
X333189Y106044D01*
X333487Y105957D01*
X333766Y105851D01*
X334026Y105725D01*
X334266Y105579D01*
X334488Y105414D01*
X334690Y105229D01*
X334871Y105028D01*
X335027Y104814D01*
X335160Y104588D01*
X335268Y104349D01*
X335352Y104097D01*
X335412Y103833D01*
X335449Y103556D01*
X335461Y103267D01*
X335444Y102852D01*
X335393Y102461D01*
X335308Y102095D01*
X335189Y101752D01*
X335036Y101433D01*
X334850Y101139D01*
X334629Y100868D01*
X334375Y100622D01*
X334089Y100402D01*
X333774Y100212D01*
X333429Y100051D01*
X333056Y99919D01*
X332654Y99817D01*
X332223Y99743D01*
X331763Y99700D01*
X331274Y99685D01*
G37*
G36*
X434011Y297423D02*
X432338Y297423D01*
X432338Y309764D01*
X438145Y309764D01*
X438651Y309749D01*
X439128Y309706D01*
X439574Y309633D01*
X439992Y309531D01*
X440379Y309399D01*
X440737Y309239D01*
X441065Y309050D01*
X441363Y308831D01*
X441629Y308586D01*
X441860Y308319D01*
X442055Y308029D01*
X442214Y307715D01*
X442338Y307379D01*
X442427Y307021D01*
X442480Y306639D01*
X442498Y306234D01*
X442485Y305897D01*
X442448Y305574D01*
X442385Y305264D01*
X442297Y304969D01*
X442185Y304686D01*
X442047Y304418D01*
X441884Y304163D01*
X441696Y303922D01*
X441486Y303698D01*
X441258Y303497D01*
X441010Y303316D01*
X440899Y303250D01*
X440743Y303158D01*
X440457Y303021D01*
X440152Y302905D01*
X439828Y302812D01*
X439485Y302739D01*
X440976Y300476D01*
X442988Y297423D01*
X441061Y297423D01*
X437856Y302547D01*
X434011Y302547D01*
X434011Y297423D01*
G37*
%LPC*%
G36*
X438048Y303869D02*
X438370Y303879D01*
X438672Y303908D01*
X438956Y303956D01*
X439221Y304024D01*
X439467Y304111D01*
X439695Y304217D01*
X439903Y304342D01*
X440093Y304487D01*
X440263Y304649D01*
X440410Y304826D01*
X440534Y305020D01*
X440635Y305228D01*
X440714Y305452D01*
X440771Y305691D01*
X440805Y305946D01*
X440816Y306217D01*
X440805Y306478D01*
X440770Y306723D01*
X440713Y306953D01*
X440633Y307166D01*
X440530Y307363D01*
X440405Y307544D01*
X440256Y307710D01*
X440085Y307859D01*
X439892Y307991D01*
X439679Y308106D01*
X439446Y308203D01*
X439192Y308283D01*
X438919Y308344D01*
X438626Y308388D01*
X438312Y308415D01*
X437978Y308424D01*
X434011Y308424D01*
X434011Y303869D01*
X438048Y303869D01*
G37*
%LPD*%
G36*
X404185Y297423D02*
X394463Y297423D01*
X394463Y309764D01*
X403826Y309764D01*
X403826Y308398D01*
X396136Y308398D01*
X396136Y304439D01*
X403300Y304439D01*
X403300Y303090D01*
X396136Y303090D01*
X396136Y298789D01*
X404185Y298789D01*
X404185Y297423D01*
G37*
G36*
X387097Y297248D02*
X386548Y297260D01*
X386029Y297297D01*
X385539Y297358D01*
X385079Y297444D01*
X384648Y297554D01*
X384248Y297689D01*
X383876Y297848D01*
X383535Y298032D01*
X383223Y298240D01*
X382940Y298473D01*
X382688Y298730D01*
X382464Y299012D01*
X382271Y299318D01*
X382107Y299649D01*
X381973Y300004D01*
X381868Y300383D01*
X383489Y300708D01*
X383569Y300439D01*
X383668Y300188D01*
X383788Y299956D01*
X383927Y299743D01*
X384085Y299548D01*
X384264Y299372D01*
X384462Y299214D01*
X384680Y299074D01*
X384918Y298952D01*
X385176Y298846D01*
X385455Y298756D01*
X385755Y298683D01*
X386075Y298626D01*
X386416Y298585D01*
X386777Y298561D01*
X387159Y298553D01*
X387552Y298562D01*
X387922Y298588D01*
X388270Y298631D01*
X388594Y298692D01*
X388895Y298770D01*
X389173Y298866D01*
X389427Y298979D01*
X389659Y299109D01*
X389865Y299256D01*
X390044Y299420D01*
X390195Y299599D01*
X390319Y299796D01*
X390416Y300008D01*
X390484Y300236D01*
X390526Y300481D01*
X390539Y300743D01*
X390522Y301030D01*
X390470Y301290D01*
X390384Y301521D01*
X390263Y301724D01*
X390112Y301904D01*
X389932Y302067D01*
X389724Y302215D01*
X389488Y302345D01*
X389227Y302463D01*
X388941Y302571D01*
X388631Y302669D01*
X388297Y302757D01*
X386764Y303116D01*
X386077Y303278D01*
X385478Y303440D01*
X384967Y303602D01*
X384544Y303764D01*
X384185Y303931D01*
X383866Y304107D01*
X383587Y304292D01*
X383349Y304487D01*
X383142Y304695D01*
X382962Y304919D01*
X382807Y305161D01*
X382679Y305420D01*
X382577Y305697D01*
X382504Y305993D01*
X382461Y306310D01*
X382446Y306646D01*
X382465Y307031D01*
X382522Y307393D01*
X382617Y307733D01*
X382750Y308049D01*
X382920Y308343D01*
X383129Y308615D01*
X383375Y308864D01*
X383659Y309089D01*
X383979Y309291D01*
X384331Y309465D01*
X384716Y309612D01*
X385134Y309733D01*
X385585Y309827D01*
X386068Y309894D01*
X386584Y309934D01*
X387132Y309948D01*
X387642Y309938D01*
X388121Y309908D01*
X388570Y309857D01*
X388987Y309787D01*
X389373Y309696D01*
X389729Y309586D01*
X390053Y309455D01*
X390347Y309304D01*
X390614Y309129D01*
X390861Y308925D01*
X391087Y308694D01*
X391293Y308434D01*
X391477Y308145D01*
X391641Y307828D01*
X391784Y307483D01*
X391906Y307110D01*
X390259Y306821D01*
X390184Y307058D01*
X390093Y307278D01*
X389986Y307481D01*
X389865Y307667D01*
X389728Y307837D01*
X389576Y307989D01*
X389408Y308125D01*
X389226Y308244D01*
X389026Y308348D01*
X388808Y308438D01*
X388572Y308514D01*
X388317Y308576D01*
X388044Y308624D01*
X387752Y308659D01*
X387443Y308680D01*
X387115Y308687D01*
X386756Y308679D01*
X386418Y308656D01*
X386103Y308618D01*
X385810Y308564D01*
X385538Y308495D01*
X385289Y308411D01*
X385061Y308311D01*
X384855Y308196D01*
X384672Y308066D01*
X384514Y307921D01*
X384380Y307760D01*
X384270Y307585D01*
X384185Y307395D01*
X384124Y307189D01*
X384088Y306969D01*
X384076Y306733D01*
X384094Y306461D01*
X384151Y306213D01*
X384245Y305990D01*
X384378Y305792D01*
X384545Y305613D01*
X384747Y305448D01*
X384981Y305298D01*
X385249Y305161D01*
X385604Y305025D01*
X386101Y304873D01*
X386739Y304707D01*
X387518Y304526D01*
X388652Y304259D01*
X389205Y304110D01*
X389734Y303935D01*
X390234Y303730D01*
X390701Y303493D01*
X390919Y303359D01*
X391123Y303210D01*
X391311Y303048D01*
X391485Y302871D01*
X391643Y302679D01*
X391782Y302470D01*
X391903Y302245D01*
X392006Y302004D01*
X392089Y301743D01*
X392148Y301461D01*
X392183Y301156D01*
X392195Y300830D01*
X392174Y300415D01*
X392111Y300024D01*
X392007Y299658D01*
X391861Y299315D01*
X391673Y298996D01*
X391443Y298702D01*
X391172Y298431D01*
X390859Y298185D01*
X390508Y297965D01*
X390123Y297775D01*
X389704Y297614D01*
X389251Y297482D01*
X388763Y297380D01*
X388242Y297306D01*
X387687Y297263D01*
X387097Y297248D01*
G37*
G36*
X424331Y297248D02*
X423959Y297257D01*
X423598Y297282D01*
X423249Y297326D01*
X422912Y297386D01*
X422588Y297463D01*
X422275Y297558D01*
X421975Y297670D01*
X421686Y297800D01*
X421412Y297945D01*
X421153Y298107D01*
X420910Y298284D01*
X420683Y298476D01*
X420472Y298684D01*
X420277Y298908D01*
X420098Y299148D01*
X419935Y299402D01*
X419789Y299672D01*
X419662Y299953D01*
X419556Y300247D01*
X419468Y300554D01*
X419400Y300874D01*
X419352Y301206D01*
X419322Y301550D01*
X419313Y301907D01*
X419313Y309764D01*
X420986Y309764D01*
X420986Y302048D01*
X420999Y301638D01*
X421039Y301253D01*
X421106Y300894D01*
X421200Y300561D01*
X421321Y300253D01*
X421468Y299970D01*
X421643Y299713D01*
X421844Y299481D01*
X422070Y299276D01*
X422321Y299098D01*
X422595Y298948D01*
X422893Y298824D01*
X423214Y298729D01*
X423560Y298660D01*
X423929Y298619D01*
X424323Y298605D01*
X424727Y298620D01*
X425108Y298662D01*
X425467Y298733D01*
X425802Y298832D01*
X426114Y298960D01*
X426402Y299115D01*
X426668Y299300D01*
X426911Y299512D01*
X427127Y299752D01*
X427315Y300018D01*
X427474Y300309D01*
X427604Y300628D01*
X427705Y300972D01*
X427777Y301342D01*
X427820Y301739D01*
X427835Y302161D01*
X427835Y309764D01*
X429499Y309764D01*
X429499Y302065D01*
X429489Y301697D01*
X429459Y301342D01*
X429410Y301000D01*
X429340Y300670D01*
X429251Y300354D01*
X429142Y300050D01*
X429013Y299759D01*
X428864Y299481D01*
X428697Y299218D01*
X428514Y298970D01*
X428314Y298739D01*
X428097Y298523D01*
X427865Y298324D01*
X427616Y298140D01*
X427350Y297973D01*
X427068Y297822D01*
X426772Y297687D01*
X426462Y297571D01*
X426139Y297472D01*
X425804Y297391D01*
X425455Y297329D01*
X425094Y297284D01*
X424719Y297257D01*
X424331Y297248D01*
G37*
G36*
X411888Y297248D02*
X411430Y297260D01*
X410987Y297296D01*
X410560Y297357D01*
X410148Y297442D01*
X409753Y297551D01*
X409373Y297684D01*
X409009Y297841D01*
X408661Y298023D01*
X408330Y298227D01*
X408020Y298452D01*
X407730Y298698D01*
X407461Y298965D01*
X407211Y299252D01*
X406982Y299560D01*
X406773Y299889D01*
X406585Y300239D01*
X406417Y300607D01*
X406272Y300992D01*
X406150Y301394D01*
X406049Y301812D01*
X405971Y302247D01*
X405916Y302698D01*
X405882Y303166D01*
X405871Y303650D01*
X405877Y304014D01*
X405896Y304368D01*
X405927Y304712D01*
X405971Y305046D01*
X406027Y305370D01*
X406095Y305684D01*
X406176Y305988D01*
X406269Y306282D01*
X406375Y306566D01*
X406494Y306840D01*
X406768Y307359D01*
X407091Y307837D01*
X407465Y308275D01*
X407883Y308667D01*
X408339Y309007D01*
X408581Y309157D01*
X408833Y309294D01*
X409095Y309418D01*
X409366Y309530D01*
X409646Y309628D01*
X409937Y309713D01*
X410236Y309784D01*
X410546Y309843D01*
X410865Y309889D01*
X411193Y309922D01*
X411532Y309941D01*
X411879Y309948D01*
X412362Y309936D01*
X412824Y309900D01*
X413266Y309839D01*
X413688Y309755D01*
X414089Y309647D01*
X414471Y309514D01*
X414832Y309358D01*
X415173Y309177D01*
X415492Y308973D01*
X415790Y308745D01*
X416066Y308494D01*
X416320Y308220D01*
X416552Y307923D01*
X416762Y307602D01*
X416951Y307258D01*
X417117Y306891D01*
X415532Y306366D01*
X415416Y306627D01*
X415284Y306872D01*
X415136Y307102D01*
X414972Y307316D01*
X414792Y307514D01*
X414595Y307696D01*
X414382Y307862D01*
X414152Y308012D01*
X413909Y308146D01*
X413655Y308261D01*
X413390Y308359D01*
X413113Y308439D01*
X412826Y308501D01*
X412527Y308546D01*
X412218Y308573D01*
X411897Y308581D01*
X411399Y308561D01*
X410929Y308499D01*
X410488Y308396D01*
X410075Y308252D01*
X409691Y308067D01*
X409335Y307840D01*
X409008Y307572D01*
X408709Y307263D01*
X408442Y306918D01*
X408211Y306543D01*
X408015Y306137D01*
X407855Y305701D01*
X407730Y305234D01*
X407641Y304737D01*
X407588Y304209D01*
X407570Y303650D01*
X407589Y303097D01*
X407644Y302572D01*
X407737Y302074D01*
X407867Y301604D01*
X408034Y301162D01*
X408238Y300748D01*
X408479Y300361D01*
X408757Y300002D01*
X409067Y299679D01*
X409403Y299399D01*
X409765Y299162D01*
X410153Y298968D01*
X410567Y298817D01*
X411008Y298709D01*
X411474Y298645D01*
X411967Y298623D01*
X412286Y298633D01*
X412595Y298663D01*
X412894Y298713D01*
X413183Y298783D01*
X413461Y298874D01*
X413730Y298984D01*
X413989Y299114D01*
X414238Y299265D01*
X414476Y299435D01*
X414705Y299625D01*
X414923Y299836D01*
X415131Y300067D01*
X415330Y300317D01*
X415518Y300588D01*
X415696Y300878D01*
X415864Y301189D01*
X417231Y300506D01*
X417031Y300119D01*
X416811Y299757D01*
X416572Y299418D01*
X416314Y299103D01*
X416037Y298811D01*
X415740Y298544D01*
X415425Y298300D01*
X415089Y298080D01*
X414738Y297885D01*
X414372Y297716D01*
X413993Y297573D01*
X413599Y297456D01*
X413192Y297365D01*
X412771Y297300D01*
X412337Y297261D01*
X411888Y297248D01*
G37*
G36*
X466578Y297423D02*
X464914Y297423D01*
X464914Y302538D01*
X460167Y309764D01*
X462006Y309764D01*
X465763Y303887D01*
X469503Y309764D01*
X471343Y309764D01*
X466578Y302538D01*
X466578Y297423D01*
G37*
G36*
X455110Y297423D02*
X453446Y297423D01*
X453446Y308398D01*
X449207Y308398D01*
X449207Y309764D01*
X459349Y309764D01*
X459349Y308398D01*
X455110Y308398D01*
X455110Y297423D01*
G37*
G36*
X447163Y297423D02*
X445490Y297423D01*
X445490Y309764D01*
X447163Y309764D01*
X447163Y297423D01*
G37*
G36*
X449926Y464859D02*
X445311Y464859D01*
X445311Y477200D01*
X449392Y477200D01*
X449778Y477194D01*
X450154Y477175D01*
X450518Y477145D01*
X450870Y477102D01*
X451212Y477046D01*
X451542Y476979D01*
X451862Y476899D01*
X452170Y476807D01*
X452467Y476702D01*
X452752Y476586D01*
X453027Y476457D01*
X453290Y476316D01*
X453542Y476162D01*
X453783Y475996D01*
X454013Y475818D01*
X454231Y475628D01*
X454438Y475426D01*
X454630Y475214D01*
X454810Y474992D01*
X454977Y474759D01*
X455130Y474516D01*
X455269Y474262D01*
X455396Y473998D01*
X455509Y473724D01*
X455609Y473439D01*
X455695Y473144D01*
X455768Y472839D01*
X455828Y472523D01*
X455875Y472197D01*
X455908Y471861D01*
X455928Y471514D01*
X455935Y471156D01*
X455923Y470687D01*
X455888Y470232D01*
X455830Y469792D01*
X455749Y469366D01*
X455644Y468956D01*
X455516Y468561D01*
X455365Y468181D01*
X455190Y467815D01*
X454994Y467468D01*
X454779Y467141D01*
X454544Y466835D01*
X454290Y466551D01*
X454017Y466287D01*
X453724Y466044D01*
X453411Y465822D01*
X453079Y465621D01*
X452731Y465442D01*
X452370Y465288D01*
X451996Y465157D01*
X451608Y465050D01*
X451207Y464966D01*
X450794Y464907D01*
X450367Y464871D01*
X449926Y464859D01*
G37*
%LPC*%
G36*
X449734Y466199D02*
X450068Y466208D01*
X450392Y466236D01*
X450706Y466283D01*
X451009Y466348D01*
X451302Y466432D01*
X451585Y466534D01*
X451858Y466655D01*
X452120Y466795D01*
X452370Y466952D01*
X452605Y467125D01*
X452825Y467315D01*
X453030Y467522D01*
X453220Y467744D01*
X453396Y467984D01*
X453556Y468239D01*
X453701Y468511D01*
X453831Y468798D01*
X453943Y469097D01*
X454038Y469409D01*
X454115Y469733D01*
X454176Y470070D01*
X454219Y470420D01*
X454245Y470782D01*
X454253Y471156D01*
X454233Y471713D01*
X454175Y472236D01*
X454076Y472724D01*
X453939Y473179D01*
X453762Y473599D01*
X453546Y473985D01*
X453291Y474337D01*
X452996Y474656D01*
X452664Y474938D01*
X452298Y475182D01*
X451895Y475389D01*
X451458Y475559D01*
X450986Y475690D01*
X450478Y475785D01*
X449935Y475841D01*
X449357Y475860D01*
X446984Y475860D01*
X446984Y466199D01*
X449734Y466199D01*
G37*
%LPD*%
G36*
X411077Y464859D02*
X409404Y464859D01*
X409404Y477200D01*
X414598Y477200D01*
X415103Y477185D01*
X415578Y477139D01*
X416023Y477063D01*
X416440Y476957D01*
X416827Y476820D01*
X417185Y476653D01*
X417513Y476456D01*
X417813Y476228D01*
X418079Y475972D01*
X418311Y475692D01*
X418506Y475386D01*
X418667Y475056D01*
X418791Y474701D01*
X418880Y474321D01*
X418933Y473916D01*
X418951Y473486D01*
X418933Y473060D01*
X418880Y472655D01*
X418790Y472273D01*
X418665Y471914D01*
X418505Y471577D01*
X418308Y471263D01*
X418076Y470971D01*
X417808Y470701D01*
X417510Y470459D01*
X417186Y470249D01*
X416836Y470071D01*
X416461Y469926D01*
X416060Y469813D01*
X415633Y469732D01*
X415181Y469684D01*
X414703Y469668D01*
X411077Y469668D01*
X411077Y464859D01*
G37*
%LPC*%
G36*
X414467Y470990D02*
X414806Y471000D01*
X415124Y471029D01*
X415419Y471077D01*
X415693Y471145D01*
X415945Y471232D01*
X416175Y471339D01*
X416383Y471465D01*
X416569Y471610D01*
X416733Y471774D01*
X416875Y471958D01*
X416996Y472162D01*
X417094Y472384D01*
X417171Y472626D01*
X417226Y472888D01*
X417259Y473169D01*
X417270Y473469D01*
X417258Y473758D01*
X417225Y474029D01*
X417169Y474281D01*
X417090Y474515D01*
X416989Y474730D01*
X416866Y474926D01*
X416720Y475103D01*
X416551Y475262D01*
X416361Y475402D01*
X416147Y475524D01*
X415912Y475626D01*
X415654Y475710D01*
X415373Y475776D01*
X415070Y475822D01*
X414745Y475850D01*
X414397Y475860D01*
X411077Y475860D01*
X411077Y470990D01*
X414467Y470990D01*
G37*
%LPD*%
G36*
X431095Y464859D02*
X421373Y464859D01*
X421373Y477200D01*
X430736Y477200D01*
X430736Y475834D01*
X423046Y475834D01*
X423046Y471875D01*
X430211Y471875D01*
X430211Y470526D01*
X423046Y470526D01*
X423046Y466225D01*
X431095Y466225D01*
X431095Y464859D01*
G37*
G36*
X443064Y464859D02*
X433342Y464859D01*
X433342Y477200D01*
X442705Y477200D01*
X442705Y475834D01*
X435015Y475834D01*
X435015Y471875D01*
X442179Y471875D01*
X442179Y470526D01*
X435015Y470526D01*
X435015Y466225D01*
X443064Y466225D01*
X443064Y464859D01*
G37*
G36*
X402039Y464684D02*
X401490Y464696D01*
X400970Y464733D01*
X400481Y464794D01*
X400021Y464880D01*
X399590Y464990D01*
X399189Y465125D01*
X398818Y465284D01*
X398476Y465468D01*
X398164Y465676D01*
X397882Y465909D01*
X397629Y466166D01*
X397406Y466448D01*
X397213Y466754D01*
X397049Y467085D01*
X396915Y467440D01*
X396810Y467819D01*
X398430Y468144D01*
X398510Y467875D01*
X398610Y467624D01*
X398729Y467392D01*
X398868Y467179D01*
X399027Y466984D01*
X399205Y466808D01*
X399404Y466650D01*
X399622Y466510D01*
X399859Y466388D01*
X400118Y466282D01*
X400397Y466193D01*
X400697Y466119D01*
X401017Y466062D01*
X401357Y466022D01*
X401718Y465997D01*
X402100Y465989D01*
X402494Y465998D01*
X402864Y466024D01*
X403211Y466067D01*
X403535Y466128D01*
X403836Y466206D01*
X404114Y466302D01*
X404369Y466415D01*
X404601Y466545D01*
X404807Y466692D01*
X404986Y466856D01*
X405137Y467036D01*
X405261Y467232D01*
X405357Y467444D01*
X405426Y467673D01*
X405467Y467917D01*
X405481Y468179D01*
X405464Y468467D01*
X405412Y468726D01*
X405326Y468957D01*
X405205Y469160D01*
X405053Y469340D01*
X404873Y469503D01*
X404666Y469651D01*
X404430Y469781D01*
X404168Y469899D01*
X403883Y470007D01*
X403573Y470105D01*
X403239Y470193D01*
X401706Y470552D01*
X401019Y470714D01*
X400420Y470876D01*
X399909Y471038D01*
X399486Y471200D01*
X399127Y471367D01*
X398808Y471543D01*
X398529Y471728D01*
X398290Y471923D01*
X398084Y472131D01*
X397904Y472355D01*
X397749Y472597D01*
X397620Y472856D01*
X397519Y473133D01*
X397446Y473429D01*
X397403Y473746D01*
X397388Y474082D01*
X397407Y474467D01*
X397464Y474829D01*
X397559Y475169D01*
X397691Y475485D01*
X397862Y475779D01*
X398070Y476051D01*
X398317Y476300D01*
X398601Y476525D01*
X398921Y476727D01*
X399273Y476901D01*
X399658Y477049D01*
X400076Y477169D01*
X400526Y477263D01*
X401009Y477330D01*
X401525Y477370D01*
X402074Y477384D01*
X402584Y477374D01*
X403063Y477344D01*
X403511Y477293D01*
X403929Y477223D01*
X404315Y477132D01*
X404670Y477022D01*
X404995Y476891D01*
X405288Y476740D01*
X405556Y476565D01*
X405803Y476362D01*
X406029Y476130D01*
X406234Y475870D01*
X406419Y475581D01*
X406582Y475265D01*
X406725Y474919D01*
X406847Y474546D01*
X405201Y474257D01*
X405125Y474494D01*
X405034Y474714D01*
X404928Y474917D01*
X404807Y475103D01*
X404670Y475273D01*
X404518Y475425D01*
X404350Y475561D01*
X404167Y475680D01*
X403968Y475784D01*
X403750Y475874D01*
X403513Y475950D01*
X403258Y476012D01*
X402985Y476060D01*
X402694Y476095D01*
X402384Y476116D01*
X402056Y476123D01*
X401697Y476115D01*
X401360Y476092D01*
X401045Y476054D01*
X400751Y476000D01*
X400480Y475931D01*
X400230Y475847D01*
X400003Y475747D01*
X399797Y475632D01*
X399614Y475502D01*
X399456Y475357D01*
X399322Y475197D01*
X399212Y475021D01*
X399127Y474831D01*
X399066Y474625D01*
X399029Y474405D01*
X399017Y474169D01*
X399036Y473897D01*
X399093Y473649D01*
X399187Y473426D01*
X399319Y473228D01*
X399487Y473049D01*
X399688Y472884D01*
X399923Y472734D01*
X400191Y472597D01*
X400546Y472461D01*
X401043Y472309D01*
X401680Y472143D01*
X402459Y471962D01*
X403594Y471695D01*
X404146Y471546D01*
X404675Y471371D01*
X405176Y471166D01*
X405643Y470929D01*
X405861Y470795D01*
X406065Y470646D01*
X406253Y470484D01*
X406427Y470307D01*
X406584Y470115D01*
X406724Y469906D01*
X406845Y469681D01*
X406948Y469440D01*
X407030Y469179D01*
X407089Y468897D01*
X407125Y468592D01*
X407136Y468266D01*
X407115Y467851D01*
X407053Y467460D01*
X406949Y467094D01*
X406802Y466751D01*
X406615Y466432D01*
X406385Y466138D01*
X406114Y465867D01*
X405801Y465621D01*
X405450Y465401D01*
X405065Y465211D01*
X404646Y465050D01*
X404192Y464918D01*
X403705Y464816D01*
X403184Y464743D01*
X402628Y464699D01*
X402039Y464684D01*
G37*
G36*
X152068Y280972D02*
X147123Y280972D01*
X147123Y281829D01*
X149133Y281829D01*
X149133Y287899D01*
X147353Y286628D01*
X147353Y287580D01*
X149217Y288862D01*
X150147Y288862D01*
X150147Y281829D01*
X152068Y281829D01*
X152068Y280972D01*
G37*
G36*
X199051Y280972D02*
X193826Y280972D01*
X193826Y281683D01*
X193977Y282001D01*
X194143Y282300D01*
X194325Y282579D01*
X194523Y282840D01*
X194945Y283317D01*
X195389Y283747D01*
X195840Y284138D01*
X196287Y284500D01*
X196711Y284847D01*
X197091Y285194D01*
X197415Y285550D01*
X197551Y285734D01*
X197670Y285922D01*
X197767Y286119D01*
X197836Y286328D01*
X197878Y286550D01*
X197892Y286785D01*
X197868Y287091D01*
X197796Y287362D01*
X197677Y287595D01*
X197511Y287793D01*
X197302Y287950D01*
X197056Y288062D01*
X196773Y288129D01*
X196452Y288151D01*
X196145Y288129D01*
X195865Y288064D01*
X195614Y287954D01*
X195391Y287801D01*
X195204Y287608D01*
X195060Y287380D01*
X194959Y287117D01*
X194901Y286818D01*
X193871Y286914D01*
X193908Y287144D01*
X193963Y287363D01*
X194036Y287569D01*
X194128Y287763D01*
X194237Y287946D01*
X194365Y288116D01*
X194511Y288274D01*
X194675Y288420D01*
X194854Y288551D01*
X195045Y288665D01*
X195249Y288761D01*
X195465Y288840D01*
X195693Y288901D01*
X195934Y288945D01*
X196187Y288971D01*
X196452Y288980D01*
X196742Y288971D01*
X197014Y288945D01*
X197270Y288901D01*
X197507Y288839D01*
X197728Y288760D01*
X197931Y288663D01*
X198118Y288549D01*
X198286Y288417D01*
X198437Y288269D01*
X198567Y288106D01*
X198677Y287929D01*
X198767Y287736D01*
X198838Y287529D01*
X198888Y287307D01*
X198918Y287070D01*
X198928Y286818D01*
X198915Y286589D01*
X198875Y286361D01*
X198810Y286133D01*
X198718Y285906D01*
X198600Y285679D01*
X198457Y285452D01*
X198288Y285225D01*
X198093Y284998D01*
X197839Y284740D01*
X197490Y284420D01*
X196508Y283593D01*
X195930Y283092D01*
X195484Y282644D01*
X195307Y282434D01*
X195156Y282228D01*
X195032Y282027D01*
X194935Y281829D01*
X199051Y281829D01*
X199051Y280972D01*
G37*
G36*
X243447Y280860D02*
X243155Y280868D01*
X242878Y280894D01*
X242616Y280936D01*
X242370Y280995D01*
X242138Y281071D01*
X241922Y281164D01*
X241721Y281274D01*
X241535Y281400D01*
X241365Y281544D01*
X241214Y281703D01*
X241081Y281879D01*
X240965Y282070D01*
X240868Y282278D01*
X240790Y282502D01*
X240729Y282743D01*
X240686Y282999D01*
X241728Y283094D01*
X241799Y282766D01*
X241911Y282482D01*
X242064Y282241D01*
X242258Y282044D01*
X242494Y281891D01*
X242770Y281782D01*
X243088Y281716D01*
X243447Y281694D01*
X243807Y281718D01*
X244127Y281788D01*
X244405Y281905D01*
X244642Y282070D01*
X244744Y282169D01*
X244832Y282280D01*
X244907Y282402D01*
X244968Y282536D01*
X245015Y282681D01*
X245049Y282837D01*
X245070Y283005D01*
X245076Y283184D01*
X245069Y283341D01*
X245046Y283488D01*
X245007Y283627D01*
X244953Y283757D01*
X244883Y283879D01*
X244798Y283991D01*
X244697Y284094D01*
X244581Y284189D01*
X244450Y284274D01*
X244306Y284347D01*
X244147Y284409D01*
X243975Y284460D01*
X243590Y284528D01*
X243150Y284550D01*
X242579Y284550D01*
X242579Y285424D01*
X243128Y285424D01*
X243519Y285447D01*
X243863Y285514D01*
X244161Y285627D01*
X244413Y285785D01*
X244613Y285983D01*
X244691Y286095D01*
X244755Y286216D01*
X244805Y286345D01*
X244841Y286483D01*
X244862Y286630D01*
X244869Y286785D01*
X244846Y287085D01*
X244776Y287351D01*
X244660Y287584D01*
X244497Y287784D01*
X244288Y287945D01*
X244034Y288059D01*
X243735Y288128D01*
X243391Y288151D01*
X243074Y288130D01*
X242788Y288066D01*
X242535Y287959D01*
X242313Y287810D01*
X242129Y287621D01*
X241987Y287398D01*
X241889Y287140D01*
X241834Y286846D01*
X240821Y286925D01*
X240858Y287160D01*
X240913Y287383D01*
X240986Y287592D01*
X241077Y287787D01*
X241187Y287970D01*
X241315Y288139D01*
X241460Y288294D01*
X241624Y288437D01*
X241803Y288564D01*
X241995Y288674D01*
X242198Y288768D01*
X242414Y288844D01*
X242643Y288904D01*
X242884Y288946D01*
X243137Y288971D01*
X243402Y288980D01*
X243691Y288971D01*
X243963Y288945D01*
X244218Y288902D01*
X244457Y288842D01*
X244679Y288764D01*
X244885Y288670D01*
X245075Y288558D01*
X245247Y288428D01*
X245402Y288284D01*
X245535Y288125D01*
X245648Y287954D01*
X245741Y287768D01*
X245813Y287569D01*
X245864Y287357D01*
X245895Y287131D01*
X245905Y286891D01*
X245899Y286707D01*
X245879Y286531D01*
X245846Y286364D01*
X245800Y286206D01*
X245740Y286057D01*
X245667Y285916D01*
X245482Y285662D01*
X245247Y285444D01*
X244964Y285265D01*
X244633Y285124D01*
X244253Y285021D01*
X244253Y284998D01*
X244468Y284968D01*
X244671Y284926D01*
X244862Y284870D01*
X245040Y284802D01*
X245206Y284722D01*
X245360Y284629D01*
X245502Y284523D01*
X245631Y284405D01*
X245746Y284276D01*
X245846Y284139D01*
X245931Y283995D01*
X246000Y283842D01*
X246054Y283681D01*
X246093Y283512D01*
X246116Y283335D01*
X246124Y283150D01*
X246113Y282885D01*
X246080Y282635D01*
X246026Y282401D01*
X245950Y282182D01*
X245852Y281978D01*
X245733Y281790D01*
X245592Y281617D01*
X245429Y281459D01*
X245246Y281319D01*
X245045Y281197D01*
X244825Y281094D01*
X244586Y281010D01*
X244329Y280944D01*
X244054Y280897D01*
X243760Y280869D01*
X243447Y280860D01*
G37*
G36*
X202900Y209225D02*
X202433Y209237D01*
X201982Y209273D01*
X201548Y209333D01*
X201130Y209418D01*
X200728Y209526D01*
X200342Y209658D01*
X199973Y209815D01*
X199620Y209996D01*
X199285Y210199D01*
X198971Y210424D01*
X198677Y210670D01*
X198403Y210938D01*
X198150Y211228D01*
X197918Y211538D01*
X197705Y211871D01*
X197513Y212225D01*
X197343Y212597D01*
X197195Y212984D01*
X197070Y213387D01*
X196968Y213804D01*
X196889Y214237D01*
X196832Y214686D01*
X196798Y215149D01*
X196786Y215627D01*
X196793Y215992D01*
X196812Y216347D01*
X196843Y216692D01*
X196888Y217027D01*
X196945Y217351D01*
X197014Y217666D01*
X197097Y217970D01*
X197191Y218265D01*
X197299Y218549D01*
X197419Y218823D01*
X197552Y219087D01*
X197698Y219341D01*
X198027Y219819D01*
X198407Y220256D01*
X198832Y220647D01*
X199059Y220823D01*
X199296Y220986D01*
X199543Y221136D01*
X199801Y221273D01*
X200068Y221397D01*
X200345Y221508D01*
X200631Y221605D01*
X200928Y221690D01*
X201235Y221762D01*
X201552Y221820D01*
X201878Y221866D01*
X202215Y221899D01*
X202561Y221918D01*
X202917Y221925D01*
X203380Y221913D01*
X203828Y221878D01*
X204259Y221819D01*
X204676Y221738D01*
X205076Y221632D01*
X205461Y221503D01*
X205831Y221351D01*
X206184Y221176D01*
X206520Y220978D01*
X206835Y220759D01*
X207130Y220519D01*
X207405Y220257D01*
X207659Y219975D01*
X207893Y219671D01*
X208106Y219346D01*
X208299Y218999D01*
X208471Y218634D01*
X208619Y218253D01*
X208745Y217856D01*
X208848Y217443D01*
X208928Y217013D01*
X208985Y216567D01*
X209019Y216105D01*
X209031Y215627D01*
X209019Y215151D01*
X208985Y214690D01*
X208927Y214243D01*
X208846Y213812D01*
X208742Y213396D01*
X208615Y212995D01*
X208464Y212609D01*
X208291Y212238D01*
X208096Y211885D01*
X207880Y211553D01*
X207645Y211242D01*
X207390Y210952D01*
X207114Y210684D01*
X206818Y210436D01*
X206503Y210210D01*
X206167Y210004D01*
X205813Y209822D01*
X205444Y209663D01*
X205059Y209529D01*
X204658Y209420D01*
X204242Y209334D01*
X203810Y209274D01*
X203363Y209237D01*
X202900Y209225D01*
G37*
%LPC*%
G36*
X202900Y210582D02*
X203419Y210603D01*
X203906Y210665D01*
X204363Y210768D01*
X204788Y210912D01*
X205183Y211097D01*
X205546Y211324D01*
X205879Y211592D01*
X206180Y211901D01*
X206448Y212247D01*
X206680Y212628D01*
X206876Y213043D01*
X207037Y213491D01*
X207162Y213974D01*
X207251Y214491D01*
X207305Y215042D01*
X207323Y215627D01*
X207305Y216188D01*
X207251Y216717D01*
X207161Y217216D01*
X207035Y217683D01*
X206873Y218120D01*
X206675Y218526D01*
X206441Y218901D01*
X206171Y219245D01*
X205868Y219553D01*
X205536Y219819D01*
X205174Y220045D01*
X204782Y220230D01*
X204360Y220374D01*
X203909Y220476D01*
X203428Y220538D01*
X202917Y220558D01*
X202403Y220538D01*
X201918Y220477D01*
X201463Y220376D01*
X201039Y220234D01*
X200644Y220052D01*
X200280Y219829D01*
X199946Y219566D01*
X199642Y219262D01*
X199371Y218922D01*
X199136Y218549D01*
X198937Y218143D01*
X198775Y217705D01*
X198648Y217235D01*
X198558Y216731D01*
X198504Y216196D01*
X198486Y215627D01*
X198504Y215062D01*
X198559Y214527D01*
X198650Y214021D01*
X198778Y213546D01*
X198942Y213101D01*
X199143Y212685D01*
X199381Y212300D01*
X199655Y211944D01*
X199961Y211625D01*
X200296Y211349D01*
X200659Y211114D01*
X201051Y210923D01*
X201471Y210774D01*
X201919Y210668D01*
X202395Y210604D01*
X202900Y210582D01*
G37*
%LPD*%
G36*
X189055Y209400D02*
X184439Y209400D01*
X184439Y221741D01*
X188521Y221741D01*
X188907Y221735D01*
X189282Y221716D01*
X189646Y221686D01*
X189999Y221643D01*
X190341Y221587D01*
X190671Y221520D01*
X190990Y221440D01*
X191299Y221348D01*
X191595Y221243D01*
X191881Y221127D01*
X192156Y220998D01*
X192419Y220856D01*
X192671Y220703D01*
X192912Y220537D01*
X193142Y220359D01*
X193360Y220169D01*
X193566Y219967D01*
X193759Y219755D01*
X193939Y219532D01*
X194105Y219300D01*
X194258Y219056D01*
X194398Y218803D01*
X194525Y218539D01*
X194638Y218265D01*
X194738Y217980D01*
X194824Y217685D01*
X194897Y217380D01*
X194957Y217064D01*
X195004Y216738D01*
X195037Y216401D01*
X195057Y216055D01*
X195064Y215697D01*
X195052Y215228D01*
X195017Y214773D01*
X194959Y214332D01*
X194877Y213907D01*
X194773Y213497D01*
X194645Y213102D01*
X194494Y212721D01*
X194319Y212356D01*
X194123Y212008D01*
X193908Y211682D01*
X193673Y211376D01*
X193419Y211091D01*
X193146Y210828D01*
X192853Y210585D01*
X192540Y210363D01*
X192208Y210162D01*
X191860Y209983D01*
X191499Y209829D01*
X191124Y209698D01*
X190737Y209590D01*
X190336Y209507D01*
X189922Y209448D01*
X189495Y209412D01*
X189055Y209400D01*
G37*
%LPC*%
G36*
X188863Y210740D02*
X189197Y210749D01*
X189521Y210777D01*
X189835Y210824D01*
X190138Y210889D01*
X190431Y210973D01*
X190714Y211075D01*
X190987Y211196D01*
X191249Y211336D01*
X191499Y211493D01*
X191734Y211666D01*
X191954Y211856D01*
X192159Y212063D01*
X192349Y212285D01*
X192524Y212525D01*
X192685Y212780D01*
X192830Y213052D01*
X192960Y213339D01*
X193072Y213638D01*
X193166Y213950D01*
X193244Y214274D01*
X193304Y214611D01*
X193347Y214961D01*
X193373Y215323D01*
X193382Y215697D01*
X193362Y216254D01*
X193303Y216777D01*
X193205Y217265D01*
X193068Y217720D01*
X192891Y218140D01*
X192675Y218526D01*
X192420Y218878D01*
X192125Y219196D01*
X191793Y219479D01*
X191426Y219723D01*
X191024Y219930D01*
X190587Y220100D01*
X190114Y220231D01*
X189607Y220325D01*
X189064Y220382D01*
X188486Y220401D01*
X186112Y220401D01*
X186112Y210740D01*
X188863Y210740D01*
G37*
%LPD*%
G36*
X169175Y209400D02*
X167502Y209400D01*
X167502Y221741D01*
X172696Y221741D01*
X173200Y221726D01*
X173675Y221680D01*
X174121Y221604D01*
X174537Y221498D01*
X174924Y221361D01*
X175282Y221194D01*
X175611Y220996D01*
X175910Y220769D01*
X176177Y220513D01*
X176408Y220233D01*
X176604Y219927D01*
X176764Y219597D01*
X176889Y219242D01*
X176978Y218862D01*
X177031Y218457D01*
X177049Y218027D01*
X177031Y217600D01*
X176977Y217196D01*
X176888Y216814D01*
X176763Y216455D01*
X176602Y216118D01*
X176406Y215804D01*
X176174Y215512D01*
X175906Y215242D01*
X175607Y215000D01*
X175283Y214790D01*
X174933Y214612D01*
X174558Y214467D01*
X174157Y214354D01*
X173731Y214273D01*
X173279Y214225D01*
X172801Y214208D01*
X169175Y214208D01*
X169175Y209400D01*
G37*
%LPC*%
G36*
X172564Y215531D02*
X172904Y215541D01*
X173221Y215570D01*
X173517Y215618D01*
X173791Y215686D01*
X174042Y215773D01*
X174272Y215880D01*
X174480Y216005D01*
X174666Y216151D01*
X174831Y216315D01*
X174973Y216499D01*
X175093Y216703D01*
X175192Y216925D01*
X175269Y217167D01*
X175323Y217429D01*
X175356Y217709D01*
X175367Y218010D01*
X175356Y218299D01*
X175322Y218570D01*
X175266Y218822D01*
X175188Y219056D01*
X175087Y219271D01*
X174963Y219467D01*
X174817Y219644D01*
X174649Y219803D01*
X174458Y219943D01*
X174245Y220064D01*
X174009Y220167D01*
X173751Y220251D01*
X173471Y220317D01*
X173168Y220363D01*
X172842Y220391D01*
X172494Y220401D01*
X169175Y220401D01*
X169175Y215531D01*
X172564Y215531D01*
G37*
%LPD*%
G36*
X215585Y209400D02*
X213588Y209400D01*
X209953Y221741D01*
X211696Y221741D01*
X213912Y213902D01*
X214291Y212409D01*
X214639Y210871D01*
X215125Y212973D01*
X215380Y213948D01*
X215871Y215735D01*
X217556Y221741D01*
X219158Y221741D01*
X221304Y214060D01*
X221742Y212321D01*
X222075Y210871D01*
X222154Y211178D01*
X222539Y212820D01*
X223229Y215368D01*
X225000Y221741D01*
X226743Y221741D01*
X223108Y209400D01*
X221112Y209400D01*
X218974Y217239D01*
X218716Y218266D01*
X218361Y219875D01*
X217976Y218176D01*
X217299Y215640D01*
X215585Y209400D01*
G37*
G36*
X229772Y209400D02*
X228283Y209400D01*
X228283Y221741D01*
X230228Y221741D01*
X236902Y211160D01*
X236823Y212641D01*
X236797Y213648D01*
X236797Y221741D01*
X238303Y221741D01*
X238303Y209400D01*
X236289Y209400D01*
X229685Y219910D01*
X229728Y219061D01*
X229772Y217598D01*
X229772Y209400D01*
G37*
G36*
X159496Y209225D02*
X159123Y209233D01*
X158762Y209259D01*
X158413Y209302D01*
X158077Y209363D01*
X157752Y209440D01*
X157439Y209535D01*
X157139Y209647D01*
X156850Y209777D01*
X156576Y209922D01*
X156317Y210084D01*
X156075Y210261D01*
X155848Y210453D01*
X155637Y210661D01*
X155441Y210885D01*
X155262Y211124D01*
X155099Y211379D01*
X154953Y211648D01*
X154827Y211930D01*
X154720Y212224D01*
X154632Y212531D01*
X154564Y212851D01*
X154516Y213183D01*
X154487Y213527D01*
X154477Y213884D01*
X154477Y221741D01*
X156150Y221741D01*
X156150Y214025D01*
X156163Y213615D01*
X156203Y213230D01*
X156270Y212871D01*
X156364Y212538D01*
X156485Y212230D01*
X156633Y211947D01*
X156807Y211690D01*
X157008Y211458D01*
X157235Y211253D01*
X157485Y211075D01*
X157759Y210925D01*
X158057Y210801D01*
X158379Y210706D01*
X158724Y210637D01*
X159094Y210596D01*
X159487Y210582D01*
X159891Y210597D01*
X160273Y210639D01*
X160631Y210710D01*
X160966Y210809D01*
X161278Y210937D01*
X161567Y211092D01*
X161832Y211276D01*
X162075Y211489D01*
X162292Y211729D01*
X162479Y211994D01*
X162638Y212286D01*
X162768Y212605D01*
X162869Y212949D01*
X162941Y213319D01*
X162985Y213716D01*
X162999Y214138D01*
X162999Y221741D01*
X164663Y221741D01*
X164663Y214042D01*
X164653Y213674D01*
X164623Y213319D01*
X164574Y212977D01*
X164504Y212647D01*
X164415Y212331D01*
X164306Y212027D01*
X164177Y211736D01*
X164028Y211458D01*
X163861Y211195D01*
X163678Y210947D01*
X163478Y210716D01*
X163262Y210500D01*
X163029Y210301D01*
X162780Y210117D01*
X162515Y209950D01*
X162233Y209799D01*
X161936Y209664D01*
X161626Y209548D01*
X161304Y209449D01*
X160968Y209368D01*
X160619Y209306D01*
X160258Y209261D01*
X159883Y209234D01*
X159496Y209225D01*
G37*
G36*
X179418Y209225D02*
X177999Y209225D01*
X181599Y222398D01*
X182983Y222398D01*
X179418Y209225D01*
G37*
D10*
X518440Y412100D02*
X518440Y100200D01*
X646840Y100200D01*
X646840Y412100D02*
X518440Y412100D01*
X646840Y412100D02*
X646840Y100200D01*
X708840Y171500D02*
X708840Y340700D01*
X647240Y340700D01*
X647240Y171500D02*
X708840Y171500D01*
D11*
X513187Y201300D03*
D12*
X43072Y131314D02*
X-24927Y131788D01*
X-24523Y189687D01*
X43476Y189212D01*
X43072Y131314D01*
X43160Y283950D02*
X-24840Y283950D01*
X-24840Y392650D01*
X43160Y392650D01*
X43160Y283950D01*
D13*
X125470Y390036D02*
X125470Y469036D01*
X255470Y469036D01*
X255470Y390036D01*
X125470Y390036D01*
D14*
X236470Y473536D02*
X236472Y473474D01*
X236478Y473413D01*
X236487Y473352D01*
X236500Y473292D01*
X236517Y473233D01*
X236538Y473175D01*
X236562Y473118D01*
X236589Y473063D01*
X236620Y473010D01*
X236654Y472958D01*
X236691Y472909D01*
X236731Y472862D01*
X236774Y472818D01*
X236819Y472777D01*
X236867Y472738D01*
X236918Y472702D01*
X236970Y472670D01*
X237024Y472641D01*
X237080Y472615D01*
X237138Y472593D01*
X237196Y472574D01*
X237256Y472559D01*
X237317Y472548D01*
X237378Y472540D01*
X237439Y472536D01*
X237501Y472536D01*
X237562Y472540D01*
X237623Y472548D01*
X237684Y472559D01*
X237744Y472574D01*
X237802Y472593D01*
X237860Y472615D01*
X237916Y472641D01*
X237970Y472670D01*
X238022Y472702D01*
X238073Y472738D01*
X238121Y472777D01*
X238166Y472818D01*
X238209Y472862D01*
X238249Y472909D01*
X238286Y472958D01*
X238320Y473010D01*
X238351Y473063D01*
X238378Y473118D01*
X238402Y473175D01*
X238423Y473233D01*
X238440Y473292D01*
X238453Y473352D01*
X238462Y473413D01*
X238468Y473474D01*
X238470Y473536D01*
X238468Y473598D01*
X238462Y473659D01*
X238453Y473720D01*
X238440Y473780D01*
X238423Y473839D01*
X238402Y473897D01*
X238378Y473954D01*
X238351Y474009D01*
X238320Y474062D01*
X238286Y474114D01*
X238249Y474163D01*
X238209Y474210D01*
X238166Y474254D01*
X238121Y474295D01*
X238073Y474334D01*
X238022Y474370D01*
X237970Y474402D01*
X237916Y474431D01*
X237860Y474457D01*
X237802Y474479D01*
X237744Y474498D01*
X237684Y474513D01*
X237623Y474524D01*
X237562Y474532D01*
X237501Y474536D01*
X237439Y474536D01*
X237378Y474532D01*
X237317Y474524D01*
X237256Y474513D01*
X237196Y474498D01*
X237138Y474479D01*
X237080Y474457D01*
X237024Y474431D01*
X236970Y474402D01*
X236918Y474370D01*
X236867Y474334D01*
X236819Y474295D01*
X236774Y474254D01*
X236731Y474210D01*
X236691Y474163D01*
X236654Y474114D01*
X236620Y474062D01*
X236589Y474009D01*
X236562Y473954D01*
X236538Y473897D01*
X236517Y473839D01*
X236500Y473780D01*
X236487Y473720D01*
X236478Y473659D01*
X236472Y473598D01*
X236470Y473536D01*
D13*
X125470Y122860D02*
X125470Y43860D01*
X125470Y122860D02*
X255470Y122860D01*
X255470Y43860D01*
X125470Y43860D01*
D14*
X236470Y127360D02*
X236472Y127298D01*
X236478Y127237D01*
X236487Y127176D01*
X236500Y127116D01*
X236517Y127057D01*
X236538Y126999D01*
X236562Y126942D01*
X236589Y126887D01*
X236620Y126834D01*
X236654Y126782D01*
X236691Y126733D01*
X236731Y126686D01*
X236774Y126642D01*
X236819Y126601D01*
X236867Y126562D01*
X236918Y126526D01*
X236970Y126494D01*
X237024Y126465D01*
X237080Y126439D01*
X237138Y126417D01*
X237196Y126398D01*
X237256Y126383D01*
X237317Y126372D01*
X237378Y126364D01*
X237439Y126360D01*
X237501Y126360D01*
X237562Y126364D01*
X237623Y126372D01*
X237684Y126383D01*
X237744Y126398D01*
X237802Y126417D01*
X237860Y126439D01*
X237916Y126465D01*
X237970Y126494D01*
X238022Y126526D01*
X238073Y126562D01*
X238121Y126601D01*
X238166Y126642D01*
X238209Y126686D01*
X238249Y126733D01*
X238286Y126782D01*
X238320Y126834D01*
X238351Y126887D01*
X238378Y126942D01*
X238402Y126999D01*
X238423Y127057D01*
X238440Y127116D01*
X238453Y127176D01*
X238462Y127237D01*
X238468Y127298D01*
X238470Y127360D01*
X238468Y127422D01*
X238462Y127483D01*
X238453Y127544D01*
X238440Y127604D01*
X238423Y127663D01*
X238402Y127721D01*
X238378Y127778D01*
X238351Y127833D01*
X238320Y127886D01*
X238286Y127938D01*
X238249Y127987D01*
X238209Y128034D01*
X238166Y128078D01*
X238121Y128119D01*
X238073Y128158D01*
X238022Y128194D01*
X237970Y128226D01*
X237916Y128255D01*
X237860Y128281D01*
X237802Y128303D01*
X237744Y128322D01*
X237684Y128337D01*
X237623Y128348D01*
X237562Y128356D01*
X237501Y128360D01*
X237439Y128360D01*
X237378Y128356D01*
X237317Y128348D01*
X237256Y128337D01*
X237196Y128322D01*
X237138Y128303D01*
X237080Y128281D01*
X237024Y128255D01*
X236970Y128226D01*
X236918Y128194D01*
X236867Y128158D01*
X236819Y128119D01*
X236774Y128078D01*
X236731Y128034D01*
X236691Y127987D01*
X236654Y127938D01*
X236620Y127886D01*
X236589Y127833D01*
X236562Y127778D01*
X236538Y127721D01*
X236517Y127663D01*
X236500Y127604D01*
X236487Y127544D01*
X236478Y127483D01*
X236472Y127422D01*
X236470Y127360D01*
D10*
X398150Y82637D02*
X398158Y83328D01*
X398184Y84018D01*
X398226Y84708D01*
X398285Y85396D01*
X398361Y86083D01*
X398454Y86768D01*
X398563Y87450D01*
X398689Y88130D01*
X398832Y88806D01*
X398991Y89478D01*
X399166Y90146D01*
X399358Y90810D01*
X399566Y91469D01*
X399790Y92123D01*
X400030Y92771D01*
X400286Y93413D01*
X400557Y94048D01*
X400844Y94677D01*
X401146Y95298D01*
X401463Y95912D01*
X401795Y96518D01*
X402142Y97116D01*
X402504Y97704D01*
X402879Y98284D01*
X403269Y98855D01*
X403673Y99416D01*
X404090Y99967D01*
X404520Y100507D01*
X404964Y101037D01*
X405420Y101556D01*
X405889Y102063D01*
X406371Y102559D01*
X406864Y103043D01*
X407369Y103515D01*
X407885Y103974D01*
X408412Y104420D01*
X408951Y104854D01*
X409499Y105274D01*
X410058Y105680D01*
X410626Y106073D01*
X411204Y106452D01*
X411791Y106816D01*
X412387Y107166D01*
X412991Y107502D01*
X413603Y107822D01*
X414223Y108128D01*
X414850Y108418D01*
X415484Y108693D01*
X416125Y108952D01*
X416771Y109195D01*
X417424Y109423D01*
X418081Y109634D01*
X418744Y109830D01*
X419412Y110009D01*
X420083Y110172D01*
X420758Y110318D01*
X421437Y110448D01*
X422119Y110561D01*
X422803Y110657D01*
X423489Y110737D01*
X424177Y110799D01*
X424867Y110845D01*
X425557Y110874D01*
X426248Y110887D01*
X426939Y110882D01*
X427630Y110860D01*
X428320Y110822D01*
X429008Y110766D01*
X429695Y110694D01*
X430381Y110605D01*
X431064Y110499D01*
X431744Y110377D01*
X432420Y110238D01*
X433094Y110083D01*
X433763Y109911D01*
X434428Y109722D01*
X435088Y109518D01*
X435743Y109297D01*
X436392Y109061D01*
X437035Y108809D01*
X437672Y108541D01*
X438302Y108257D01*
X438925Y107959D01*
X439541Y107645D01*
X440148Y107316D01*
X440748Y106972D01*
X441339Y106614D01*
X441921Y106241D01*
X442493Y105855D01*
X443056Y105454D01*
X443610Y105040D01*
X444152Y104612D01*
X444684Y104172D01*
X445206Y103718D01*
X445716Y103252D01*
X446214Y102773D01*
X446701Y102283D01*
X447175Y101780D01*
X447637Y101266D01*
X448086Y100741D01*
X448522Y100206D01*
X448946Y99659D01*
X449355Y99103D01*
X449751Y98537D01*
X450133Y97961D01*
X450501Y97376D01*
X450854Y96782D01*
X451192Y96179D01*
X451516Y95569D01*
X451825Y94951D01*
X451825Y70323D02*
X451516Y69705D01*
X451192Y69095D01*
X450854Y68492D01*
X450501Y67898D01*
X450133Y67313D01*
X449751Y66737D01*
X449355Y66171D01*
X448946Y65615D01*
X448522Y65068D01*
X448086Y64533D01*
X447637Y64008D01*
X447175Y63494D01*
X446701Y62991D01*
X446214Y62501D01*
X445716Y62022D01*
X445206Y61556D01*
X444684Y61102D01*
X444152Y60662D01*
X443610Y60234D01*
X443056Y59820D01*
X442493Y59419D01*
X441921Y59033D01*
X441339Y58660D01*
X440748Y58302D01*
X440148Y57958D01*
X439541Y57629D01*
X438925Y57315D01*
X438302Y57017D01*
X437672Y56733D01*
X437035Y56465D01*
X436392Y56213D01*
X435743Y55977D01*
X435088Y55756D01*
X434428Y55552D01*
X433763Y55363D01*
X433094Y55191D01*
X432420Y55036D01*
X431744Y54897D01*
X431064Y54775D01*
X430381Y54669D01*
X429695Y54580D01*
X429008Y54508D01*
X428320Y54452D01*
X427630Y54414D01*
X426939Y54392D01*
X426248Y54387D01*
X425557Y54400D01*
X424867Y54429D01*
X424177Y54475D01*
X423489Y54537D01*
X422803Y54617D01*
X422119Y54713D01*
X421437Y54826D01*
X420758Y54956D01*
X420083Y55102D01*
X419412Y55265D01*
X418744Y55444D01*
X418081Y55640D01*
X417424Y55851D01*
X416771Y56079D01*
X416125Y56322D01*
X415484Y56581D01*
X414850Y56856D01*
X414223Y57146D01*
X413603Y57452D01*
X412991Y57772D01*
X412387Y58108D01*
X411791Y58458D01*
X411204Y58822D01*
X410626Y59201D01*
X410058Y59594D01*
X409499Y60000D01*
X408951Y60420D01*
X408412Y60854D01*
X407885Y61300D01*
X407369Y61759D01*
X406864Y62231D01*
X406371Y62715D01*
X405889Y63211D01*
X405420Y63718D01*
X404964Y64237D01*
X404520Y64767D01*
X404090Y65307D01*
X403673Y65858D01*
X403269Y66419D01*
X402879Y66990D01*
X402504Y67570D01*
X402142Y68158D01*
X401795Y68756D01*
X401463Y69362D01*
X401146Y69976D01*
X400844Y70597D01*
X400557Y71226D01*
X400286Y71861D01*
X400030Y72503D01*
X399790Y73151D01*
X399566Y73805D01*
X399358Y74464D01*
X399166Y75128D01*
X398991Y75796D01*
X398832Y76468D01*
X398689Y77144D01*
X398563Y77824D01*
X398454Y78506D01*
X398361Y79191D01*
X398285Y79878D01*
X398226Y80566D01*
X398184Y81256D01*
X398158Y81946D01*
X398150Y82637D01*
X451825Y94951D02*
X451825Y70323D01*
X407954Y108583D02*
X400454Y108583D01*
X404204Y112333D02*
X404204Y104833D01*
D15*
X303200Y419386D02*
X303200Y439686D01*
X303200Y419386D02*
X346400Y419386D01*
X346400Y439686D01*
X303200Y439686D01*
X303200Y429536D02*
X297440Y429536D01*
X346400Y429536D02*
X352160Y429536D01*
X303200Y272250D02*
X303200Y251950D01*
X346400Y251950D01*
X346400Y272250D01*
X303200Y272250D01*
X303200Y262100D02*
X297440Y262100D01*
X346400Y262100D02*
X352160Y262100D01*
X303200Y93510D02*
X303200Y73210D01*
X346400Y73210D01*
X346400Y93510D01*
X303200Y93510D01*
X303200Y83360D02*
X297440Y83360D01*
X346400Y83360D02*
X352160Y83360D01*
D10*
X398150Y261377D02*
X398158Y262068D01*
X398184Y262758D01*
X398226Y263448D01*
X398285Y264136D01*
X398361Y264823D01*
X398454Y265508D01*
X398563Y266190D01*
X398689Y266870D01*
X398832Y267546D01*
X398991Y268218D01*
X399166Y268886D01*
X399358Y269550D01*
X399566Y270209D01*
X399790Y270863D01*
X400030Y271511D01*
X400286Y272153D01*
X400557Y272788D01*
X400844Y273417D01*
X401146Y274038D01*
X401463Y274652D01*
X401795Y275258D01*
X402142Y275856D01*
X402504Y276444D01*
X402879Y277024D01*
X403269Y277595D01*
X403673Y278156D01*
X404090Y278707D01*
X404520Y279247D01*
X404964Y279777D01*
X405420Y280296D01*
X405889Y280803D01*
X406371Y281299D01*
X406864Y281783D01*
X407369Y282255D01*
X407885Y282714D01*
X408412Y283160D01*
X408951Y283594D01*
X409499Y284014D01*
X410058Y284420D01*
X410626Y284813D01*
X411204Y285192D01*
X411791Y285556D01*
X412387Y285906D01*
X412991Y286242D01*
X413603Y286562D01*
X414223Y286868D01*
X414850Y287158D01*
X415484Y287433D01*
X416125Y287692D01*
X416771Y287935D01*
X417424Y288163D01*
X418081Y288374D01*
X418744Y288570D01*
X419412Y288749D01*
X420083Y288912D01*
X420758Y289058D01*
X421437Y289188D01*
X422119Y289301D01*
X422803Y289397D01*
X423489Y289477D01*
X424177Y289539D01*
X424867Y289585D01*
X425557Y289614D01*
X426248Y289627D01*
X426939Y289622D01*
X427630Y289600D01*
X428320Y289562D01*
X429008Y289506D01*
X429695Y289434D01*
X430381Y289345D01*
X431064Y289239D01*
X431744Y289117D01*
X432420Y288978D01*
X433094Y288823D01*
X433763Y288651D01*
X434428Y288462D01*
X435088Y288258D01*
X435743Y288037D01*
X436392Y287801D01*
X437035Y287549D01*
X437672Y287281D01*
X438302Y286997D01*
X438925Y286699D01*
X439541Y286385D01*
X440148Y286056D01*
X440748Y285712D01*
X441339Y285354D01*
X441921Y284981D01*
X442493Y284595D01*
X443056Y284194D01*
X443610Y283780D01*
X444152Y283352D01*
X444684Y282912D01*
X445206Y282458D01*
X445716Y281992D01*
X446214Y281513D01*
X446701Y281023D01*
X447175Y280520D01*
X447637Y280006D01*
X448086Y279481D01*
X448522Y278946D01*
X448946Y278399D01*
X449355Y277843D01*
X449751Y277277D01*
X450133Y276701D01*
X450501Y276116D01*
X450854Y275522D01*
X451192Y274919D01*
X451516Y274309D01*
X451825Y273691D01*
X451825Y249063D02*
X451516Y248445D01*
X451192Y247835D01*
X450854Y247232D01*
X450501Y246638D01*
X450133Y246053D01*
X449751Y245477D01*
X449355Y244911D01*
X448946Y244355D01*
X448522Y243808D01*
X448086Y243273D01*
X447637Y242748D01*
X447175Y242234D01*
X446701Y241731D01*
X446214Y241241D01*
X445716Y240762D01*
X445206Y240296D01*
X444684Y239842D01*
X444152Y239402D01*
X443610Y238974D01*
X443056Y238560D01*
X442493Y238159D01*
X441921Y237773D01*
X441339Y237400D01*
X440748Y237042D01*
X440148Y236698D01*
X439541Y236369D01*
X438925Y236055D01*
X438302Y235757D01*
X437672Y235473D01*
X437035Y235205D01*
X436392Y234953D01*
X435743Y234717D01*
X435088Y234496D01*
X434428Y234292D01*
X433763Y234103D01*
X433094Y233931D01*
X432420Y233776D01*
X431744Y233637D01*
X431064Y233515D01*
X430381Y233409D01*
X429695Y233320D01*
X429008Y233248D01*
X428320Y233192D01*
X427630Y233154D01*
X426939Y233132D01*
X426248Y233127D01*
X425557Y233140D01*
X424867Y233169D01*
X424177Y233215D01*
X423489Y233277D01*
X422803Y233357D01*
X422119Y233453D01*
X421437Y233566D01*
X420758Y233696D01*
X420083Y233842D01*
X419412Y234005D01*
X418744Y234184D01*
X418081Y234380D01*
X417424Y234591D01*
X416771Y234819D01*
X416125Y235062D01*
X415484Y235321D01*
X414850Y235596D01*
X414223Y235886D01*
X413603Y236192D01*
X412991Y236512D01*
X412387Y236848D01*
X411791Y237198D01*
X411204Y237562D01*
X410626Y237941D01*
X410058Y238334D01*
X409499Y238740D01*
X408951Y239160D01*
X408412Y239594D01*
X407885Y240040D01*
X407369Y240499D01*
X406864Y240971D01*
X406371Y241455D01*
X405889Y241951D01*
X405420Y242458D01*
X404964Y242977D01*
X404520Y243507D01*
X404090Y244047D01*
X403673Y244598D01*
X403269Y245159D01*
X402879Y245730D01*
X402504Y246310D01*
X402142Y246898D01*
X401795Y247496D01*
X401463Y248102D01*
X401146Y248716D01*
X400844Y249337D01*
X400557Y249966D01*
X400286Y250601D01*
X400030Y251243D01*
X399790Y251891D01*
X399566Y252545D01*
X399358Y253204D01*
X399166Y253868D01*
X398991Y254536D01*
X398832Y255208D01*
X398689Y255884D01*
X398563Y256564D01*
X398454Y257246D01*
X398361Y257931D01*
X398285Y258618D01*
X398226Y259306D01*
X398184Y259996D01*
X398158Y260686D01*
X398150Y261377D01*
X451825Y273691D02*
X451825Y249063D01*
X407954Y287323D02*
X400454Y287323D01*
X404204Y291073D02*
X404204Y283573D01*
X398150Y428813D02*
X398158Y429504D01*
X398184Y430194D01*
X398226Y430884D01*
X398285Y431572D01*
X398361Y432259D01*
X398454Y432944D01*
X398563Y433626D01*
X398689Y434306D01*
X398832Y434982D01*
X398991Y435654D01*
X399166Y436322D01*
X399358Y436986D01*
X399566Y437645D01*
X399790Y438299D01*
X400030Y438947D01*
X400286Y439589D01*
X400557Y440224D01*
X400844Y440853D01*
X401146Y441474D01*
X401463Y442088D01*
X401795Y442694D01*
X402142Y443292D01*
X402504Y443880D01*
X402879Y444460D01*
X403269Y445031D01*
X403673Y445592D01*
X404090Y446143D01*
X404520Y446683D01*
X404964Y447213D01*
X405420Y447732D01*
X405889Y448239D01*
X406371Y448735D01*
X406864Y449219D01*
X407369Y449691D01*
X407885Y450150D01*
X408412Y450596D01*
X408951Y451030D01*
X409499Y451450D01*
X410058Y451856D01*
X410626Y452249D01*
X411204Y452628D01*
X411791Y452992D01*
X412387Y453342D01*
X412991Y453678D01*
X413603Y453998D01*
X414223Y454304D01*
X414850Y454594D01*
X415484Y454869D01*
X416125Y455128D01*
X416771Y455371D01*
X417424Y455599D01*
X418081Y455810D01*
X418744Y456006D01*
X419412Y456185D01*
X420083Y456348D01*
X420758Y456494D01*
X421437Y456624D01*
X422119Y456737D01*
X422803Y456833D01*
X423489Y456913D01*
X424177Y456975D01*
X424867Y457021D01*
X425557Y457050D01*
X426248Y457063D01*
X426939Y457058D01*
X427630Y457036D01*
X428320Y456998D01*
X429008Y456942D01*
X429695Y456870D01*
X430381Y456781D01*
X431064Y456675D01*
X431744Y456553D01*
X432420Y456414D01*
X433094Y456259D01*
X433763Y456087D01*
X434428Y455898D01*
X435088Y455694D01*
X435743Y455473D01*
X436392Y455237D01*
X437035Y454985D01*
X437672Y454717D01*
X438302Y454433D01*
X438925Y454135D01*
X439541Y453821D01*
X440148Y453492D01*
X440748Y453148D01*
X441339Y452790D01*
X441921Y452417D01*
X442493Y452031D01*
X443056Y451630D01*
X443610Y451216D01*
X444152Y450788D01*
X444684Y450348D01*
X445206Y449894D01*
X445716Y449428D01*
X446214Y448949D01*
X446701Y448459D01*
X447175Y447956D01*
X447637Y447442D01*
X448086Y446917D01*
X448522Y446382D01*
X448946Y445835D01*
X449355Y445279D01*
X449751Y444713D01*
X450133Y444137D01*
X450501Y443552D01*
X450854Y442958D01*
X451192Y442355D01*
X451516Y441745D01*
X451825Y441127D01*
X451825Y416499D02*
X451516Y415881D01*
X451192Y415271D01*
X450854Y414668D01*
X450501Y414074D01*
X450133Y413489D01*
X449751Y412913D01*
X449355Y412347D01*
X448946Y411791D01*
X448522Y411244D01*
X448086Y410709D01*
X447637Y410184D01*
X447175Y409670D01*
X446701Y409167D01*
X446214Y408677D01*
X445716Y408198D01*
X445206Y407732D01*
X444684Y407278D01*
X444152Y406838D01*
X443610Y406410D01*
X443056Y405996D01*
X442493Y405595D01*
X441921Y405209D01*
X441339Y404836D01*
X440748Y404478D01*
X440148Y404134D01*
X439541Y403805D01*
X438925Y403491D01*
X438302Y403193D01*
X437672Y402909D01*
X437035Y402641D01*
X436392Y402389D01*
X435743Y402153D01*
X435088Y401932D01*
X434428Y401728D01*
X433763Y401539D01*
X433094Y401367D01*
X432420Y401212D01*
X431744Y401073D01*
X431064Y400951D01*
X430381Y400845D01*
X429695Y400756D01*
X429008Y400684D01*
X428320Y400628D01*
X427630Y400590D01*
X426939Y400568D01*
X426248Y400563D01*
X425557Y400576D01*
X424867Y400605D01*
X424177Y400651D01*
X423489Y400713D01*
X422803Y400793D01*
X422119Y400889D01*
X421437Y401002D01*
X420758Y401132D01*
X420083Y401278D01*
X419412Y401441D01*
X418744Y401620D01*
X418081Y401816D01*
X417424Y402027D01*
X416771Y402255D01*
X416125Y402498D01*
X415484Y402757D01*
X414850Y403032D01*
X414223Y403322D01*
X413603Y403628D01*
X412991Y403948D01*
X412387Y404284D01*
X411791Y404634D01*
X411204Y404998D01*
X410626Y405377D01*
X410058Y405770D01*
X409499Y406176D01*
X408951Y406596D01*
X408412Y407030D01*
X407885Y407476D01*
X407369Y407935D01*
X406864Y408407D01*
X406371Y408891D01*
X405889Y409387D01*
X405420Y409894D01*
X404964Y410413D01*
X404520Y410943D01*
X404090Y411483D01*
X403673Y412034D01*
X403269Y412595D01*
X402879Y413166D01*
X402504Y413746D01*
X402142Y414334D01*
X401795Y414932D01*
X401463Y415538D01*
X401146Y416152D01*
X400844Y416773D01*
X400557Y417402D01*
X400286Y418037D01*
X400030Y418679D01*
X399790Y419327D01*
X399566Y419981D01*
X399358Y420640D01*
X399166Y421304D01*
X398991Y421972D01*
X398832Y422644D01*
X398689Y423320D01*
X398563Y424000D01*
X398454Y424682D01*
X398361Y425367D01*
X398285Y426054D01*
X398226Y426742D01*
X398184Y427432D01*
X398158Y428122D01*
X398150Y428813D01*
X451825Y441127D02*
X451825Y416499D01*
X407954Y454759D02*
X400454Y454759D01*
X404204Y458509D02*
X404204Y451009D01*
D14*
X260938Y228100D02*
X131938Y228100D01*
X131938Y296100D01*
X260938Y296100D01*
X260938Y228100D01*
D16*
X119438Y242100D02*
X119440Y242189D01*
X119446Y242278D01*
X119456Y242367D01*
X119470Y242455D01*
X119487Y242542D01*
X119509Y242628D01*
X119535Y242714D01*
X119564Y242798D01*
X119597Y242881D01*
X119633Y242962D01*
X119674Y243042D01*
X119717Y243119D01*
X119764Y243195D01*
X119815Y243268D01*
X119868Y243339D01*
X119925Y243408D01*
X119985Y243474D01*
X120048Y243538D01*
X120113Y243598D01*
X120181Y243656D01*
X120252Y243710D01*
X120325Y243761D01*
X120400Y243809D01*
X120477Y243854D01*
X120556Y243895D01*
X120637Y243932D01*
X120719Y243966D01*
X120803Y243997D01*
X120888Y244023D01*
X120974Y244046D01*
X121061Y244064D01*
X121149Y244079D01*
X121238Y244090D01*
X121327Y244097D01*
X121416Y244100D01*
X121505Y244099D01*
X121594Y244094D01*
X121682Y244085D01*
X121771Y244072D01*
X121858Y244055D01*
X121945Y244035D01*
X122031Y244010D01*
X122115Y243982D01*
X122198Y243950D01*
X122280Y243914D01*
X122360Y243875D01*
X122438Y243832D01*
X122514Y243786D01*
X122588Y243736D01*
X122660Y243683D01*
X122729Y243627D01*
X122796Y243568D01*
X122860Y243506D01*
X122921Y243442D01*
X122980Y243374D01*
X123035Y243304D01*
X123087Y243232D01*
X123136Y243157D01*
X123181Y243081D01*
X123223Y243002D01*
X123261Y242922D01*
X123296Y242840D01*
X123327Y242756D01*
X123355Y242671D01*
X123378Y242585D01*
X123398Y242498D01*
X123414Y242411D01*
X123426Y242322D01*
X123434Y242234D01*
X123438Y242145D01*
X123438Y242055D01*
X123434Y241966D01*
X123426Y241878D01*
X123414Y241789D01*
X123398Y241702D01*
X123378Y241615D01*
X123355Y241529D01*
X123327Y241444D01*
X123296Y241360D01*
X123261Y241278D01*
X123223Y241198D01*
X123181Y241119D01*
X123136Y241043D01*
X123087Y240968D01*
X123035Y240896D01*
X122980Y240826D01*
X122921Y240758D01*
X122860Y240694D01*
X122796Y240632D01*
X122729Y240573D01*
X122660Y240517D01*
X122588Y240464D01*
X122514Y240414D01*
X122438Y240368D01*
X122360Y240325D01*
X122280Y240286D01*
X122198Y240250D01*
X122115Y240218D01*
X122031Y240190D01*
X121945Y240165D01*
X121858Y240145D01*
X121771Y240128D01*
X121682Y240115D01*
X121594Y240106D01*
X121505Y240101D01*
X121416Y240100D01*
X121327Y240103D01*
X121238Y240110D01*
X121149Y240121D01*
X121061Y240136D01*
X120974Y240154D01*
X120888Y240177D01*
X120803Y240203D01*
X120719Y240234D01*
X120637Y240268D01*
X120556Y240305D01*
X120477Y240346D01*
X120400Y240391D01*
X120325Y240439D01*
X120252Y240490D01*
X120181Y240544D01*
X120113Y240602D01*
X120048Y240662D01*
X119985Y240726D01*
X119925Y240792D01*
X119868Y240861D01*
X119815Y240932D01*
X119764Y241005D01*
X119717Y241081D01*
X119674Y241158D01*
X119633Y241238D01*
X119597Y241319D01*
X119564Y241402D01*
X119535Y241486D01*
X119509Y241572D01*
X119487Y241658D01*
X119470Y241745D01*
X119456Y241833D01*
X119446Y241922D01*
X119440Y242011D01*
X119438Y242100D01*
M02*
