G04 EAGLE Gerber RS-274X export*
G75*
%MOMM*%
%FSLAX34Y34*%
%LPD*%
%INSoldermask Top*%
%IPPOS*%
%AMOC8*
5,1,8,0,0,1.08239X$1,22.5*%
G01*
G04 Define Apertures*
%ADD10C,4.203200*%
%ADD11R,1.763200X1.763200*%
%ADD12C,1.763200*%
%ADD13C,4.389200*%
%ADD14C,2.003200*%
%ADD15C,2.903200*%
%ADD16C,1.784200*%
%ADD17C,1.463200*%
%ADD18C,2.978200*%
D10*
X35400Y469900D03*
X35400Y41600D03*
X578800Y41600D03*
X578800Y469900D03*
D11*
X537640Y201300D03*
D12*
X537640Y228700D03*
X537640Y256100D03*
X537640Y283500D03*
X537640Y310900D03*
X566040Y215000D03*
X566040Y242400D03*
X566040Y269800D03*
X566040Y297200D03*
D13*
X551840Y381100D03*
X551840Y131200D03*
D14*
X9363Y173200D03*
X9186Y147801D03*
X9160Y376400D03*
X9160Y300200D03*
X9160Y325600D03*
X9160Y351000D03*
D15*
X237470Y429536D03*
X190470Y429536D03*
X143470Y429536D03*
X237470Y83360D03*
X190470Y83360D03*
X143470Y83360D03*
D16*
X413700Y82637D03*
X439100Y82637D03*
D17*
X288600Y429536D03*
X361000Y429536D03*
X288600Y262100D03*
X361000Y262100D03*
X288600Y83360D03*
X361000Y83360D03*
D16*
X413700Y261377D03*
X439100Y261377D03*
X413700Y428813D03*
X439100Y428813D03*
D18*
X149438Y262100D03*
X196438Y262100D03*
X243438Y262100D03*
M02*
