M48
;GenerationSoftware,Autodesk,EAGLE,9.7.0*%
;CreationDate,2024-07-01T10:11:47Z*%
FMAT,2
ICI,OFF
METRIC,TZ,000.000
T8C0.660
T7C0.981
T6C1.040
T5C1.200
T4C1.800
T3C1.850
T2C3.170
T1C4.000
%
G90
M71
T1
X3540Y46990
X3540Y4160
X57880Y4160
X57880Y46990
T2
X55184Y38110
X55184Y13120
T3
X24344Y26210
X14944Y26210
X19644Y26210
T4
X14347Y8336
X23747Y42954
X19047Y42954
X14347Y42954
X23747Y8336
X19047Y8336
T5
X936Y17320
X916Y37640
X916Y30020
X916Y32560
X916Y35100
X919Y14780
T6
X53764Y22870
X53764Y20130
X53764Y25610
X53764Y28350
X53764Y31090
X56604Y21500
X56604Y24240
X56604Y26980
X56604Y29720
T7
X41370Y8264
X41370Y26138
X43910Y26138
X41370Y42881
X43910Y42881
X43910Y8264
T8
X36100Y42954
X36100Y26210
X28860Y8336
X36100Y8336
X28860Y42954
X28860Y26210
M30