M48
;GenerationSoftware,Autodesk,EAGLE,9.7.0*%
;CreationDate,2024-08-12T09:50:26Z*%
FMAT,2
ICI,OFF
METRIC,TZ,000.000
T7C0.660
T6C0.981
T5C1.040
T4C1.200
T3C1.800
T2C3.170
T1C4.000
%
G90
M71
T1
X6540Y48990
X6540Y6160
X60880Y6160
X60880Y48990
T2
X58130Y15190
X58130Y40180
T3
X26450Y28225
X21750Y44950
X26450Y44950
X17050Y44950
X26450Y10390
X21750Y10390
X17050Y10390
X21750Y28225
X17050Y28225
T4
X3930Y16990
X3930Y19530
X3960Y37610
X3960Y35070
X3960Y32530
X3960Y29990
T5
X59550Y31790
X56710Y24940
X56710Y22200
X56710Y27680
X56710Y30420
X56710Y33160
X59550Y23570
X59550Y26310
X59550Y29050
T6
X44530Y10300
X47070Y10300
X47070Y44900
X44530Y28253
X47070Y28253
X44530Y44900
T7
X33176Y44900
X33176Y28325
X40416Y28325
X33176Y10390
X40416Y10390
X40416Y44900
X33176Y35580
X40416Y35580
M30